<?xml version="1.0"?><svg xmlns="http://www.w3.org/2000/svg" xmlns:xlink= "http://www.w3.org/1999/xlink" style="background: white;" width="1500" height="300"> <g style="color: black; font-size: 13px; font-family: sans-serif; transform: translate(18px, 25px);"><g><circle r="3" cx="-6" cy="-5" style="fill: #1AD4B3" /><text>Borrow APR, variable</text></g><g style="transform: translateX(150px);"><circle r="3" cx="-6" cy="-5" style="fill: #101423" /><text>Borrow APR, stable</text></g></g><g class="visx-group" transform="translate(45, 50)"><g class="visx-group visx-rows" transform="translate(0, 0)"><line class="visx-line" x1="0" y1="155" x2="1425" y2="155" fill="transparent" shape-rendering="crispEdges" stroke="#F2F0F9" stroke-width="1" pointer-events="none"></line><line class="visx-line" x1="0" y1="120.55555555555556" x2="1425" y2="120.55555555555556" fill="transparent" shape-rendering="crispEdges" stroke="#F2F0F9" stroke-width="1" pointer-events="none"></line><line class="visx-line" x1="0" y1="86.11111111111111" x2="1425" y2="86.11111111111111" fill="transparent" shape-rendering="crispEdges" stroke="#F2F0F9" stroke-width="1" pointer-events="none"></line><line class="visx-line" x1="0" y1="51.66666666666667" x2="1425" y2="51.66666666666667" fill="transparent" shape-rendering="crispEdges" stroke="#F2F0F9" stroke-width="1" pointer-events="none"></line><line class="visx-line" x1="0" y1="17.22222222222223" x2="1425" y2="17.22222222222223" fill="transparent" shape-rendering="crispEdges" stroke="#F2F0F9" stroke-width="1" pointer-events="none"></line></g><path class="visx-linepath" d="M0,154.9999999999715C2.375,154.9952471139805,4.75,154.99049422798947,7.125,154.98574134199134C9.5,154.9809884559932,11.875,154.97623556998556,14.25,154.97148268398269C16.625,154.9667297979798,19,154.9619769119769,21.375,154.95722402597403C23.75,154.95247113997115,26.125,154.94771825396825,28.5,154.94296536796537C30.875,154.9382124819625,33.25,154.9334595959596,35.625,154.9287067099567C38,154.92395382395384,40.375,154.91920093795093,42.75,154.91444805194806C45.125,154.90969516594518,47.50000000000001,154.90494227994228,49.87500000000001,154.9001893939394C52.25000000000001,154.89543650793652,54.625,154.89068362193362,57,154.88593073593074C59.375,154.88117784992787,61.75,154.87642496392496,64.125,154.87167207792209C66.5,154.8669191919192,68.875,154.8621663059163,71.25,154.85741341991343C73.625,154.85266053391055,76,154.84790764790765,78.375,154.84315476190477C80.75,154.8384018759019,83.125,154.83364898989902,85.5,154.8288961038961C87.875,154.8241432178932,90.25,154.8193903318903,92.625,154.81463744588743C95,154.80988455988452,97.37500000000001,154.80513167388165,99.75000000000001,154.80037878787877C102.12500000000001,154.7956259018759,104.5,154.790873015873,106.875,154.7861201298701C109.25,154.78136724386724,111.625,154.77661435786433,114,154.77186147186146C116.375,154.76710858585858,118.75000000000001,154.76235569985568,121.12500000000001,154.7576028138528C123.50000000000001,154.75284992784992,125.875,154.74809704184702,128.25,154.74334415584414C130.625,154.73859126984127,133,154.73383838383836,135.375,154.72908549783548C137.75,154.7243326118326,140.125,154.7195797258297,142.5,154.71482683982683C144.875,154.71007395382395,147.25,154.70532106782105,149.625,154.70056818181817C152,154.6958152958153,154.375,154.6910624098124,156.75,154.6863095238095C159.125,154.68155663780664,161.5,154.67680375180373,163.875,154.67205086580086C166.25,154.66729797979798,168.625,154.66254509379507,171,154.6577922077922C173.375,154.65303932178932,175.75,154.64828643578642,178.125,154.64353354978354C180.5,154.63878066378066,182.875,154.63402777777776,185.25,154.62927489177488C187.625,154.624522005772,190,154.6197691197691,192.375,154.61501623376623C194.75,154.61026334776335,197.12500000000003,154.60551046176045,199.50000000000003,154.60075757575757C201.875,154.5960046897547,204.25,154.5912518037518,206.62499999999997,154.5864989177489C208.99999999999997,154.58174603174604,211.375,154.57699314574313,213.75,154.57224025974025C216.125,154.56748737373738,218.5,154.56273448773447,220.875,154.5579816017316C223.25,154.55322871572872,225.625,154.54847582972582,228,154.54372294372294C230.375,154.53897005772006,232.75,154.53421717171716,235.125,154.52946428571428C237.5,154.5247113997114,239.87500000000003,154.5199585137085,242.25000000000003,154.51520562770563C244.625,154.51045274170275,247,154.50569985569985,249.37499999999997,154.50094696969697C251.74999999999997,154.4961940836941,254.125,154.4914411976912,256.5,154.4866883116883C258.875,154.48193542568544,261.25,154.47718253968253,263.625,154.47242965367965C266,154.46767676767678,268.375,154.46292388167387,270.75,154.458170995671C273.125,154.45341810966812,275.5,154.44866522366522,277.875,154.44391233766234C280.25,154.43915945165946,282.625,154.43440656565656,285,154.42965367965368C287.375,154.4249007936508,289.75,154.4201479076479,292.125,154.41539502164503C294.5,154.41064213564215,296.875,154.40588924963924,299.25,154.40113636363637C301.625,154.3963834776335,304,154.3916305916306,306.375,154.3868777056277C308.75,154.38212481962483,311.125,154.37737193362193,313.5,154.37261904761905C315.875,154.36786616161618,318.25,154.36311327561327,320.625,154.3583603896104C323,154.35360750360752,325.375,154.34885461760462,327.75,154.34410173160174C330.125,154.33934884559886,332.5,154.33459595959596,334.875,154.32984307359308C337.25,154.3250901875902,339.625,154.3203373015873,342,154.31558441558442C344.375,154.31083152958155,346.75,154.30607864357864,349.125,154.30132575757577C351.5,154.2965728715729,353.875,154.29181998557,356.25,154.2870670995671C358.625,154.28231421356423,361,154.27756132756133,363.375,154.27280844155845C365.75,154.26805555555558,368.125,154.26330266955267,370.5,154.2585497835498C372.875,154.25379689754692,375.25,154.24904401154402,377.625,154.24429112554114C380,154.23953823953826,382.375,154.23478535353536,384.75,154.23003246753248C387.125,154.2252795815296,389.50000000000006,154.2205266955267,391.87500000000006,154.21577380952382C394.25000000000006,154.21102092352095,396.62500000000006,154.20626803751804,399.00000000000006,154.20151515151517C401.375,154.1967622655123,403.75,154.1920093795094,406.12499999999994,154.1872564935065C408.49999999999994,154.18250360750363,410.87499999999994,154.17775072150073,413.24999999999994,154.17299783549785C415.62499999999994,154.16824494949498,418,154.16349206349207,420.375,154.1587391774892C422.75,154.15398629148632,425.125,154.14923340548341,427.5,154.14448051948054C429.875,154.13972763347766,432.25,154.13497474747476,434.625,154.13022186147188C437,154.125468975469,439.375,154.1207160894661,441.75,154.11596320346322C444.125,154.11121031746035,446.5,154.10645743145744,448.875,154.10170454545457C451.25,154.0969516594517,453.625,154.09219877344879,456,154.08744588744588C458.375,154.08269300144298,460.75,154.0779401154401,463.125,154.07318722943722C465.5,154.06843434343435,467.875,154.06368145743144,470.25,154.05892857142857C472.625,154.0541756854257,475.00000000000006,154.04942279942279,477.37500000000006,154.0446699134199C479.75000000000006,154.03991702741703,482.12500000000006,154.03516414141413,484.50000000000006,154.03041125541125C486.875,154.02565836940838,489.25,154.02090548340547,491.62499999999994,154.0161525974026C493.99999999999994,154.01139971139972,496.37499999999994,154.0066468253968,498.74999999999994,154.00189393939394C501.12499999999994,153.99714105339106,503.5,153.99238816738816,505.875,153.98763528138528C508.25,153.9828823953824,510.625,153.9781295093795,513,153.97337662337662C515.375,153.96862373737375,517.75,153.96387085137084,520.125,153.95911796536797C522.5,153.9543650793651,524.875,153.94961219336219,527.25,153.9448593073593C529.625,153.94010642135643,532,153.93535353535353,534.375,153.93060064935065C536.75,153.92584776334778,539.125,153.92109487734487,541.5,153.916341991342C543.875,153.91158910533912,546.25,153.9068362193362,548.625,153.90208333333334C551,153.89733044733046,553.375,153.89257756132756,555.75,153.88782467532468C558.125,153.8830717893218,560.5,153.8783189033189,562.875,153.87356601731602C565.25,153.86881313131315,567.625,153.86406024531024,570,153.85930735930737C572.375,153.8545544733045,574.75,153.84980158730158,577.125,153.8450487012987C579.5,153.84029581529583,581.875,153.83554292929293,584.25,153.83079004329005C586.625,153.82603715728717,589,153.82128427128427,591.375,153.8165313852814C593.75,153.81177849927852,596.125,153.8070256132756,598.5,153.80227272727274C600.875,153.79751984126986,603.25,153.79276695526696,605.625,153.78801406926408C608,153.7832611832612,610.375,153.7785082972583,612.75,153.77375541125542C615.125,153.76900252525255,617.5,153.76424963924964,619.875,153.75949675324676C622.25,153.7547438672439,624.625,153.74999098124098,627,153.7452380952381C629.375,153.74048520923523,631.75,153.73573232323236,634.125,153.73097943722945C636.5,153.72622655122655,638.875,153.72147366522364,641.25,153.71672077922076C643.625,153.7119678932179,646,153.70721500721498,648.375,153.7024621212121C650.75,153.69770923520923,653.125,153.69295634920633,655.5,153.68820346320345C657.875,153.68345057720057,660.25,153.67869769119767,662.625,153.6739448051948C665,153.66919191919192,667.375,153.664439033189,669.75,153.65968614718614C672.125,153.65493326118326,674.5,153.65018037518035,676.875,153.64542748917748C679.25,153.6406746031746,681.625,153.6359217171717,684,153.63116883116882C686.375,153.62641594516595,688.75,153.62166305916304,691.125,153.61691017316016C693.5,153.6121572871573,695.875,153.60740440115438,698.25,153.6026515151515C700.625,153.59789862914863,703,153.59314574314573,705.375,153.58839285714285C707.75,153.58363997113997,710.125,153.57888708513707,712.5,153.5741341991342C714.875,153.56938131313132,717.25,153.5646284271284,719.625,153.55987554112554C722,153.55512265512266,724.375,153.55036976911975,726.75,153.54561688311688C729.125,153.540863997114,731.5,153.5361111111111,733.875,153.53135822510822C736.25,153.52660533910534,738.625,153.52185245310244,741,153.51709956709956C743.375,153.5123466810967,745.75,153.50759379509378,748.125,153.5028409090909C750.5,153.49808802308803,752.875,153.49333513708513,755.25,153.48858225108225C757.625,153.48382936507937,760,153.47907647907647,762.375,153.4743235930736C764.75,153.46957070707072,767.125,153.4648178210678,769.5,153.46006493506493C771.875,153.45531204906206,774.2500000000001,153.45055916305915,776.6250000000001,153.44580627705628C779.0000000000001,153.4410533910534,781.3750000000001,153.4363005050505,783.7500000000001,153.43154761904762C786.1250000000001,153.42679473304474,788.5000000000001,153.42204184704184,790.8750000000001,153.41728896103896C793.2500000000001,153.4125360750361,795.6250000000001,153.40778318903318,798.0000000000001,153.4030303030303C800.375,153.39827741702743,802.75,153.39352453102453,805.1249999999999,153.38877164502165C807.4999999999999,153.38401875901877,809.8749999999999,153.37926587301587,812.2499999999999,153.374512987013C814.6249999999999,153.36976010101012,816.9999999999999,153.3650072150072,819.3749999999999,153.36025432900433C821.7499999999999,153.35550144300146,824.1249999999999,153.35074855699855,826.4999999999999,153.34599567099568C828.8749999999999,153.3412427849928,831.25,153.3364898989899,833.625,153.33173701298702C836,153.32698412698414,838.375,153.32223124098124,840.75,153.31747835497836C843.125,153.3127254689755,845.5,153.30797258297258,847.875,153.3032196969697C850.25,153.29846681096683,852.625,153.29371392496392,855,153.28896103896105C857.375,153.28420815295817,859.75,153.27945526695527,862.125,153.27470238095236C864.5,153.26994949494946,866.875,153.26519660894658,869.25,153.2604437229437C871.625,153.25569083694083,874,153.25093795093792,876.375,153.24618506493505C878.75,153.24143217893217,881.125,153.23667929292927,883.5,153.2319264069264C885.875,153.22717352092351,888.25,153.2224206349206,890.625,153.21766774891773C893,153.21291486291486,895.375,153.20816197691195,897.75,153.20340909090908C900.125,153.1986562049062,902.5,153.1939033189033,904.875,153.18915043290042C907.25,153.18439754689754,909.625,153.17964466089464,912,153.17489177489176C914.375,153.17013888888889,916.75,153.16538600288598,919.125,153.1606331168831C921.5,153.15588023088023,923.875,153.15112734487732,926.25,153.14637445887445C928.625,153.14162157287157,931,153.13686868686867,933.375,153.1321158008658C935.75,153.1273629148629,938.125,153.12261002886,940.5,153.11785714285713C942.875,153.11310425685426,945.25,153.10835137085135,947.625,153.10359848484848C950,153.0988455988456,952.3750000000001,153.0940927128427,954.7500000000001,153.08933982683982C957.1250000000001,153.08458694083694,959.5000000000001,153.07983405483404,961.8750000000001,153.07508116883116C964.2500000000001,153.07032828282829,966.6250000000001,153.06557539682538,969.0000000000001,153.0608225108225C971.3750000000001,153.05606962481963,973.7500000000001,153.05131673881672,976.1250000000001,153.04656385281385C978.5,153.04181096681097,980.875,153.03705808080807,983.2499999999999,153.0323051948052C985.6249999999999,153.0275523088023,987.9999999999999,153.0227994227994,990.3749999999999,153.01804653679653C992.7499999999999,153.01329365079366,995.1249999999999,153.00854076479075,997.4999999999999,153.00378787878788C999.8749999999999,152.999034992785,1002.2499999999999,152.9942821067821,1004.6249999999999,152.98952922077922C1006.9999999999999,152.98477633477634,1009.375,152.98002344877344,1011.75,152.97527056277056C1014.125,152.97051767676768,1016.5,152.96576479076478,1018.875,152.9610119047619C1021.25,152.95625901875903,1023.625,152.95150613275612,1026,152.94675324675325C1028.375,152.94200036075037,1030.75,152.93724747474747,1033.125,152.9324945887446C1035.5,152.9277417027417,1037.875,152.9229888167388,1040.25,152.91823593073593C1042.625,152.91348304473306,1045,152.90873015873015,1047.375,152.90397727272727C1049.75,152.8992243867244,1052.125,152.8944715007215,1054.5,152.88971861471862C1056.875,152.88496572871574,1059.25,152.88021284271284,1061.625,152.87545995670996C1064,152.87070707070708,1066.375,152.86595418470418,1068.75,152.8612012987013C1071.125,152.85644841269843,1073.5,152.85169552669552,1075.875,152.84694264069265C1078.25,152.84218975468977,1080.625,152.83743686868686,1083,152.832683982684C1085.375,152.8279310966811,1087.75,152.8231782106782,1090.125,152.81842532467533C1092.5,152.81367243867246,1094.875,152.81367243867246,1097.25,152.80416666666667C1099.625,152.7946608946609,1102,150.93218599033818,1104.375,149.99619565217392C1106.75,149.06020531400966,1109.125,148.1242149758454,1111.5,147.18822463768115C1113.875,146.25223429951689,1116.25,145.31624396135265,1118.625,144.3802536231884C1121,143.44426328502414,1123.375,142.5082729468599,1125.75,141.57228260869564C1128.125,140.63629227053138,1130.5,139.70030193236715,1132.875,138.7643115942029C1135.25,137.82832125603863,1137.625,136.8923309178744,1140,135.95634057971014C1142.375,135.02035024154588,1144.75,134.08435990338165,1147.125,133.1483695652174C1149.5,132.21237922705313,1151.875,131.2763888888889,1154.25,130.34039855072464C1156.625,129.40440821256038,1159,128.46841787439612,1161.375,127.53242753623188C1163.75,126.59643719806763,1166.125,125.66044685990337,1168.5,124.72445652173913C1170.875,123.78846618357488,1173.25,122.85247584541062,1175.625,121.91648550724638C1178,120.98049516908213,1180.375,120.04450483091786,1182.75,119.10851449275361C1185.125,118.17252415458937,1187.5,117.23653381642512,1189.875,116.30054347826088C1192.25,115.36455314009663,1194.625,114.42856280193237,1197,113.49257246376811C1199.375,112.55658212560385,1201.75,111.62059178743961,1204.125,110.68460144927536C1206.5,109.74861111111112,1208.875,108.81262077294687,1211.25,107.87663043478261C1213.625,106.94064009661835,1216,106.00464975845411,1218.375,105.06865942028985C1220.75,104.13266908212559,1223.125,103.19667874396133,1225.5,102.26068840579708C1227.875,101.32469806763284,1230.25,100.38870772946859,1232.625,99.45271739130435C1235,98.5167270531401,1237.375,97.58073671497583,1239.75,96.64474637681158C1242.125,95.70875603864734,1244.5,94.7727657004831,1246.875,93.83677536231886C1249.25,92.90078502415462,1251.625,91.96479468599034,1254,91.02880434782608C1256.375,90.09281400966182,1258.75,89.15682367149756,1261.125,88.22083333333332C1263.5,87.28484299516907,1265.875,86.34885265700484,1268.25,85.4128623188406C1270.625,84.47687198067635,1273,83.54088164251209,1275.375,82.60489130434783C1277.75,81.66890096618357,1280.125,80.7329106280193,1282.5,79.79692028985505C1284.875,78.8609299516908,1287.25,77.92493961352658,1289.625,76.98894927536233C1292,76.05295893719808,1294.375,75.11696859903381,1296.75,74.18097826086957C1299.125,73.24498792270532,1301.5,72.30899758454106,1303.875,71.37300724637682C1306.25,70.43701690821257,1308.625,69.5010265700483,1311,68.56503623188405C1313.375,67.6290458937198,1315.75,66.69305555555556,1318.125,65.75706521739131C1320.5,64.82107487922707,1322.875,63.88508454106282,1325.25,62.949094202898564C1327.625,62.01310386473431,1330,61.07711352657004,1332.375,60.141123188405786C1334.75,59.20513285024153,1337.125,58.2691425120773,1339.5,57.33315217391305C1341.875,56.3971618357488,1344.25,55.46117149758453,1346.625,54.525181159420285C1349,53.58919082125604,1351.375,52.65320048309181,1353.75,51.717210144927556C1356.125,50.7812198067633,1358.5,49.845229468599044,1360.875,48.909239130434784C1363.25,47.973248792270525,1365.625,47.03725845410627,1368,46.10126811594202C1370.375,45.16527777777777,1372.75,44.229287439613515,1375.125,43.29329710144927C1377.5,42.357306763285024,1379.875,41.42131642512078,1382.25,40.485326086956526C1384.625,39.549335748792274,1387,38.61334541062803,1389.375,37.677355072463776C1391.75,36.74136473429952,1394.125,35.805374396135264,1396.5,34.86938405797101C1398.875,33.93339371980676,1401.25,32.99740338164251,1403.625,32.06141304347826C1406,31.12542270531401,1408.375,30.18943236714974,1410.75,29.253442028985493C1413.125,28.317451690821244,1415.5,27.38146135265701,1417.875,26.44547101449276C1420.25,25.50948067632851,1422.625,24.57349033816425,1425,23.637499999999996" fill="transparent" stroke-linecap="round" stroke="#1AD4B3" stroke-width="2"></path><g class="visx-group visx-axis visx-axis-bottom" transform="translate(0, 155)"><g class="visx-group visx-axis-tick" transform="translate(0, 0)"><line class="visx-line" x1="0" y1="0" x2="0" y2="8" fill="transparent" shape-rendering="crispEdges" stroke="#F2F0F9" stroke-width="1" stroke-linecap="square"></line><svg x="0" y="0" font-size="11" style="overflow:visible"><text transform="" x="0" y="19" fill="#1B2030" font-size="11" text-anchor="middle"><tspan x="0" dy="0em">0%</tspan></text></svg></g><g class="visx-group visx-axis-tick" transform="translate(0, 0)"><line class="visx-line" x1="356.25" y1="0" x2="356.25" y2="8" fill="transparent" shape-rendering="crispEdges" stroke="#F2F0F9" stroke-width="1" stroke-linecap="square"></line><svg x="0" y="0" font-size="11" style="overflow:visible"><text transform="" x="356.25" y="19" fill="#1B2030" font-size="11" text-anchor="middle"><tspan x="356.25" dy="0em">25%</tspan></text></svg></g><g class="visx-group visx-axis-tick" transform="translate(0, 0)"><line class="visx-line" x1="712.5" y1="0" x2="712.5" y2="8" fill="transparent" shape-rendering="crispEdges" stroke="#F2F0F9" stroke-width="1" stroke-linecap="square"></line><svg x="0" y="0" font-size="11" style="overflow:visible"><text transform="" x="712.5" y="19" fill="#1B2030" font-size="11" text-anchor="middle"><tspan x="712.5" dy="0em">50%</tspan></text></svg></g><g class="visx-group visx-axis-tick" transform="translate(0, 0)"><line class="visx-line" x1="1068.75" y1="0" x2="1068.75" y2="8" fill="transparent" shape-rendering="crispEdges" stroke="#F2F0F9" stroke-width="1" stroke-linecap="square"></line><svg x="0" y="0" font-size="11" style="overflow:visible"><text transform="" x="1068.75" y="19" fill="#1B2030" font-size="11" text-anchor="middle"><tspan x="1068.75" dy="0em">75%</tspan></text></svg></g><g class="visx-group visx-axis-tick" transform="translate(0, 0)"><line class="visx-line" x1="1425" y1="0" x2="1425" y2="8" fill="transparent" shape-rendering="crispEdges" stroke="#F2F0F9" stroke-width="1" stroke-linecap="square"></line><svg x="0" y="0" font-size="11" style="overflow:visible"><text transform="" x="1425" y="19" fill="#1B2030" font-size="11" text-anchor="middle"><tspan x="1425" dy="0em">100%</tspan></text></svg></g></g><g class="visx-group visx-axis visx-axis-left" transform="translate(0, 0)"><g class="visx-group visx-axis-tick" transform="translate(0, 0)"><line class="visx-line" x1="0" y1="155" x2="-8" y2="155" fill="transparent" shape-rendering="crispEdges" stroke="#F2F0F9" stroke-width="1" stroke-linecap="square"></line><svg x="-30" y="0" font-size="11" style="overflow:visible"><text transform="" x="-8" y="155" fill="#1B2030" font-size="11" text-anchor="start"><tspan x="-8" dy="0em">0%</tspan></text></svg></g><g class="visx-group visx-axis-tick" transform="translate(0, 0)"><line class="visx-line" x1="0" y1="120.55555555555556" x2="-8" y2="120.55555555555556" fill="transparent" shape-rendering="crispEdges" stroke="#F2F0F9" stroke-width="1" stroke-linecap="square"></line><svg x="-30" y="0" font-size="11" style="overflow:visible"><text transform="" x="-8" y="120.55555555555556" fill="#1B2030" font-size="11" text-anchor="start"><tspan x="-8" dy="0em">200%</tspan></text></svg></g><g class="visx-group visx-axis-tick" transform="translate(0, 0)"><line class="visx-line" x1="0" y1="86.11111111111111" x2="-8" y2="86.11111111111111" fill="transparent" shape-rendering="crispEdges" stroke="#F2F0F9" stroke-width="1" stroke-linecap="square"></line><svg x="-30" y="0" font-size="11" style="overflow:visible"><text transform="" x="-8" y="86.11111111111111" fill="#1B2030" font-size="11" text-anchor="start"><tspan x="-8" dy="0em">400%</tspan></text></svg></g><g class="visx-group visx-axis-tick" transform="translate(0, 0)"><line class="visx-line" x1="0" y1="51.66666666666667" x2="-8" y2="51.66666666666667" fill="transparent" shape-rendering="crispEdges" stroke="#F2F0F9" stroke-width="1" stroke-linecap="square"></line><svg x="-30" y="0" font-size="11" style="overflow:visible"><text transform="" x="-8" y="51.66666666666667" fill="#1B2030" font-size="11" text-anchor="start"><tspan x="-8" dy="0em">600%</tspan></text></svg></g><g class="visx-group visx-axis-tick" transform="translate(0, 0)"><line class="visx-line" x1="0" y1="17.22222222222223" x2="-8" y2="17.22222222222223" fill="transparent" shape-rendering="crispEdges" stroke="#F2F0F9" stroke-width="1" stroke-linecap="square"></line><svg x="-30" y="0" font-size="11" style="overflow:visible"><text transform="" x="-8" y="17.22222222222223" fill="#1B2030" font-size="11" text-anchor="start"><tspan x="-8" dy="0em">800%</tspan></text></svg></g><line class="visx-line visx-axis-line" x1="0" y1="155.5" x2="0" y2="0.5" fill="transparent" shape-rendering="crispEdges" stroke="#F2F0F9" stroke-width="1"></line></g><rect class="visx-bar" width="1425" height="155" fill="transparent"></rect><line class="visx-line" x1="1097.25" y1="58" x2="1097.25" y2="155" fill="transparent" shape-rendering="crispEdges" stroke="#CDC8E1" stroke-width="1" pointer-events="none" stroke-dasharray="5"></line><svg x="0" y="0" font-size="11px" style="overflow:visible"><text transform="" x="1097.25" y="50" font-size="11px" fill="#555069" stroke="#FFFFFF" stroke-width="1px" text-anchor="middle"><tspan x="1097.25" dy="0.355em">uOptimal 77%</tspan></text></svg><svg x="0" y="0" font-size="11px" style="overflow:visible"><text transform="" x="1097.25" y="50" font-size="11px" fill="#CDC8E1" text-anchor="middle"><tspan x="1097.25" dy="0.355em">uOptimal 77%</tspan></text></svg></g></svg>