<?xml version="1.0"?><svg xmlns="http://www.w3.org/2000/svg" xmlns:xlink= "http://www.w3.org/1999/xlink" style="background: white;" width="1500" height="300"> <g style="color: black; font-size: 13px; font-family: sans-serif; transform: translate(18px, 25px);"><g><circle r="3" cx="-6" cy="-5" style="fill: #1AD4B3" /><text>Borrow APR, variable</text></g><g style="transform: translateX(150px);"><circle r="3" cx="-6" cy="-5" style="fill: #101423" /><text>Borrow APR, stable</text></g></g><g class="visx-group" transform="translate(45, 50)"><g class="visx-group visx-rows" transform="translate(0, 0)"><line class="visx-line" x1="0" y1="155" x2="1425" y2="155" fill="transparent" shape-rendering="crispEdges" stroke="#F2F0F9" stroke-width="1" pointer-events="none"></line><line class="visx-line" x1="0" y1="120.55555555555556" x2="1425" y2="120.55555555555556" fill="transparent" shape-rendering="crispEdges" stroke="#F2F0F9" stroke-width="1" pointer-events="none"></line><line class="visx-line" x1="0" y1="86.11111111111111" x2="1425" y2="86.11111111111111" fill="transparent" shape-rendering="crispEdges" stroke="#F2F0F9" stroke-width="1" pointer-events="none"></line><line class="visx-line" x1="0" y1="51.66666666666667" x2="1425" y2="51.66666666666667" fill="transparent" shape-rendering="crispEdges" stroke="#F2F0F9" stroke-width="1" pointer-events="none"></line><line class="visx-line" x1="0" y1="17.22222222222223" x2="1425" y2="17.22222222222223" fill="transparent" shape-rendering="crispEdges" stroke="#F2F0F9" stroke-width="1" pointer-events="none"></line></g><path class="visx-linepath" d="M0,154.99999999996908C2.375,154.9948454616408,4.75,154.98969092331254,7.125,154.98453638497654C9.5,154.97938184664054,11.875,154.9742273082942,14.25,154.96907276995304C16.625,154.9639182316119,19,154.95876369327073,21.375,154.95360915492958C23.75,154.94845461658844,26.125,154.94330007824726,28.5,154.93814553990612C30.875,154.93299100156497,33.25,154.9278364632238,35.625,154.92268192488262C38,154.91752738654145,40.375,154.9123728482003,42.75,154.90721830985916C45.125,154.902063771518,47.50000000000001,154.89690923317684,49.87500000000001,154.89175469483567C52.25000000000001,154.88660015649452,54.625,154.88144561815335,57,154.8762910798122C59.375,154.87113654147106,61.75,154.8659820031299,64.125,154.86082746478874C66.5,154.8556729264476,68.875,154.85051838810642,71.25,154.84536384976525C73.625,154.84020931142408,76,154.83505477308293,78.375,154.82990023474179C80.75,154.82474569640064,83.125,154.8195911580595,85.5,154.81443661971832C87.875,154.80928208137715,90.25,154.80412754303597,92.625,154.79897300469483C95,154.79381846635366,97.37500000000001,154.78866392801254,99.75000000000001,154.78350938967137C102.12500000000001,154.77835485133022,104.5,154.77320031298902,106.875,154.76804577464787C109.25,154.7628912363067,111.625,154.75773669796556,114,154.7525821596244C116.375,154.74742762128326,118.75000000000001,154.7422730829421,121.12500000000001,154.73711854460095C123.50000000000001,154.7319640062598,125.875,154.72680946791863,128.25,154.72165492957748C130.625,154.7165003912363,133,154.71134585289514,135.375,154.706191314554C137.75,154.70103677621285,140.125,154.69588223787167,142.5,154.69072769953053C144.875,154.68557316118938,147.25,154.6804186228482,149.625,154.67526408450703C152,154.67010954616586,154.375,154.66495500782474,156.75,154.65980046948357C159.125,154.6546459311424,161.5,154.64949139280122,163.875,154.64433685446008C166.25,154.63918231611893,168.625,154.63402777777776,171,154.62887323943661C173.375,154.62371870109547,175.75,154.6185641627543,178.125,154.61340962441315C180.5,154.608255086072,182.875,154.60310054773083,185.25,154.5979460093897C187.625,154.59279147104854,190,154.58763693270734,192.375,154.5824823943662C194.75,154.57732785602502,197.12500000000003,154.5721733176839,199.50000000000003,154.56701877934273C201.875,154.5618642410016,204.25,154.55670970266038,206.62499999999997,154.55155516431924C208.99999999999997,154.54640062597807,211.375,154.54124608763695,213.75,154.53609154929578C216.125,154.53093701095463,218.5,154.52578247261346,220.875,154.52062793427228C223.25,154.5154733959311,225.625,154.51031885758997,228,154.50516431924882C230.375,154.50000978090767,232.75,154.4948552425665,235.125,154.48970070422536C237.5,154.4845461658842,239.87500000000003,154.47939162754307,242.25000000000003,154.4742370892019C244.625,154.46908255086075,247,154.46392801251955,249.37499999999997,154.4587734741784C251.74999999999997,154.45361893583723,254.125,154.4484643974961,256.5,154.44330985915494C258.875,154.4381553208138,261.25,154.43300078247262,263.625,154.42784624413144C266,154.42269170579027,268.375,154.41753716744915,270.75,154.41238262910798C273.125,154.4072280907668,275.5,154.40207355242563,277.875,154.3969190140845C280.25,154.39176447574334,282.625,154.3866099374022,285,154.38145539906105C287.375,154.3763008607199,289.75,154.3711463223787,292.125,154.36599178403756C294.5,154.36083724569642,296.875,154.35568270735524,299.25,154.3505281690141C301.625,154.34537363067295,304,154.34021909233178,306.375,154.3350645539906C308.75,154.32991001564943,311.125,154.32475547730832,313.5,154.31960093896714C315.875,154.31444640062597,318.25,154.3092918622848,320.625,154.30413732394365C323,154.2989827856025,325.375,154.29382824726133,327.75,154.2886737089202C330.125,154.28351917057904,332.5,154.27836463223787,334.875,154.27321009389672C337.25,154.26805555555558,339.625,154.2629010172144,342,154.25774647887323C344.375,154.25259194053206,346.75,154.2474374021909,349.125,154.24228286384977C351.5,154.23712832550862,353.875,154.23197378716748,356.25,154.2268192488263C358.625,154.22166471048513,361,154.21651017214396,363.375,154.2113556338028C365.75,154.20620109546167,368.125,154.2010465571205,370.5,154.19589201877935C372.875,154.1907374804382,375.25,154.18558294209703,377.625,154.18042840375585C380,154.17527386541468,382.375,154.17011932707354,384.75,154.1649647887324C387.125,154.15981025039125,389.50000000000006,154.1546557120501,391.87500000000006,154.14950117370893C394.25000000000006,154.14434663536778,396.62500000000006,154.1391920970266,399.00000000000006,154.13403755868543C401.375,154.1288830203443,403.75,154.12372848200312,406.12499999999994,154.11857394366197C408.49999999999994,154.11341940532083,410.87499999999994,154.10826486697965,413.24999999999994,154.1031103286385C415.62499999999994,154.09795579029733,418,154.0928012519562,420.375,154.08764671361502C422.75,154.08249217527387,425.125,154.0773376369327,427.5,154.07218309859155C429.875,154.0670285602504,432.25,154.06187402190926,434.625,154.0567194835681C437,154.05156494522691,439.375,154.04641040688574,441.75,154.0412558685446C444.125,154.03610133020345,446.5,154.03094679186228,448.875,154.02579225352113C451.25,154.02063771518,453.625,154.0154831768388,456,154.01032863849764C458.375,154.00517410015647,460.75,154.00001956181532,463.125,153.99486502347418C465.5,153.98971048513303,467.875,153.98455594679186,470.25,153.9794014084507C472.625,153.97424687010954,475.00000000000006,153.9690923317684,477.37500000000006,153.96393779342722C479.75000000000006,153.95878325508608,482.12500000000006,153.9536287167449,484.50000000000006,153.94847417840376C486.875,153.9433196400626,489.25,153.93816510172144,491.62499999999994,153.9330105633803C493.99999999999994,153.92785602503912,496.37499999999994,153.92270148669795,498.74999999999994,153.9175469483568C501.12499999999994,153.91239241001563,503.5,153.9072378716745,505.875,153.90208333333334C508.25,153.8969287949922,510.625,153.891774256651,513,153.88661971830984C515.375,153.8814651799687,517.75,153.87631064162753,520.125,153.87115610328638C522.5,153.86600156494524,524.875,153.86084702660406,527.25,153.85569248826292C529.625,153.85053794992177,532,153.8453834115806,534.375,153.84022887323945C536.75,153.8350743348983,539.125,153.82991979655714,541.5,153.82476525821596C543.875,153.8196107198748,546.25,153.81445618153367,548.625,153.8093016431925C551,153.80414710485132,553.375,153.79899256651015,555.75,153.793838028169C558.125,153.78868348982786,560.5,153.7835289514867,562.875,153.77837441314554C565.25,153.7732198748044,567.625,153.76806533646322,570,153.76291079812205C572.375,153.75775625978088,574.75,153.75260172143973,577.125,153.7474471830986C579.5,153.74229264475744,581.875,153.73713810641627,584.25,153.73198356807512C586.625,153.72682902973398,589,153.72167449139283,591.375,153.71651995305166C593.75,153.71136541471049,596.125,153.7062108763693,598.5,153.70105633802817C600.875,153.69590179968702,603.25,153.69074726134585,605.625,153.6855927230047C608,153.68043818466356,610.375,153.67528364632238,612.75,153.6701291079812C615.125,153.66497456964004,617.5,153.65982003129892,619.875,153.65466549295775C622.25,153.64951095461657,624.625,153.6443564162754,627,153.63920187793425C629.375,153.6340473395931,631.75,153.62889280125194,634.125,153.6237382629108C636.5,153.61858372456965,638.875,153.61342918622847,641.25,153.60827464788733C643.625,153.60312010954618,646,153.597965571205,648.375,153.59281103286386C650.75,153.58765649452272,653.125,153.58250195618155,655.5,153.57734741784037C657.875,153.5721928794992,660.25,153.56703834115808,662.625,153.5618838028169C665,153.55672926447573,667.375,153.55157472613456,669.75,153.54642018779342C672.125,153.54126564945227,674.5,153.5361111111111,676.875,153.53095657276995C679.25,153.5258020344288,681.625,153.52064749608763,684,153.5154929577465C686.375,153.51033841940534,688.75,153.50518388106417,691.125,153.50002934272302C693.5,153.49487480438188,695.875,153.4897202660407,698.25,153.48456572769953C700.625,153.47941118935836,703,153.47425665101724,705.375,153.46910211267607C707.75,153.4639475743349,710.125,153.45879303599372,712.5,153.45363849765258C714.875,153.44848395931143,717.25,153.44332942097026,719.625,153.4381748826291C722,153.43302034428797,724.375,153.4278658059468,726.75,153.42271126760562C729.125,153.41755672926445,731.5,153.4124021909233,733.875,153.40724765258216C736.25,153.402093114241,738.625,153.39693857589984,741,153.3917840375587C743.375,153.38662949921755,745.75,153.3814749608764,748.125,153.37632042253523C750.5,153.37116588419406,752.875,153.36601134585288,755.25,153.36085680751174C757.625,153.3557022691706,760,153.35054773082942,762.375,153.34539319248827C764.75,153.34023865414713,767.125,153.33508411580593,769.5,153.32992957746478C771.875,153.3247750391236,774.2500000000001,153.3196205007825,776.6250000000001,153.31446596244132C779.0000000000001,153.30931142410017,781.3750000000001,153.30415688575897,783.7500000000001,153.29900234741783C786.1250000000001,153.29384780907668,788.5000000000001,153.2886932707355,790.8750000000001,153.28353873239436C793.2500000000001,153.27838419405322,795.6250000000001,153.27322965571207,798.0000000000001,153.2680751173709C800.375,153.26292057902975,802.75,153.25776604068855,805.1249999999999,153.2526115023474C807.4999999999999,153.24745696400623,809.8749999999999,153.2423024256651,812.2499999999999,153.23714788732394C814.6249999999999,153.2319933489828,816.9999999999999,153.22683881064165,819.3749999999999,153.22168427230048C821.7499999999999,153.2165297339593,824.1249999999999,153.21137519561813,826.4999999999999,153.206220657277C828.8749999999999,153.2010661189358,831.25,153.19591158059467,833.625,153.19075704225352C836,153.18560250391238,838.375,153.1804479655712,840.75,153.17529342723006C843.125,153.1701388888889,845.5,153.16498435054774,847.875,153.15982981220657C850.25,153.1546752738654,852.625,153.14952073552428,855,153.1443661971831C857.375,153.13921165884193,859.75,153.13405712050076,862.125,153.1289025821596C864.5,153.12374804381847,866.875,153.1185935054773,869.25,153.11343896713615C871.625,153.108284428795,874,153.10312989045383,876.375,153.09797535211268C878.75,153.09282081377154,881.125,153.08766627543037,883.5,153.0825117370892C885.875,153.07735719874802,888.25,153.07220266040687,890.625,153.06704812206573C893,153.06189358372458,895.375,153.05673904538344,897.75,153.05158450704226C900.125,153.0464299687011,902.5,153.04127543035992,904.875,153.03612089201877C907.25,153.03096635367763,909.625,153.02581181533645,912,153.0206572769953C914.375,153.01550273865416,916.75,153.010348200313,919.125,153.00519366197182C921.5,153.00003912363064,923.875,152.9948845852895,926.25,152.98973004694835C928.625,152.9845755086072,931,152.97942097026603,933.375,152.9742664319249C935.75,152.96911189358374,938.125,152.9639573552426,940.5,152.95880281690143C942.875,152.95364827856025,945.25,152.94849374021908,947.625,152.94333920187793C950,152.93818466353676,952.3750000000001,152.93303012519564,954.7500000000001,152.92787558685447C957.1250000000001,152.92272104851332,959.5000000000001,152.91756651017215,961.8750000000001,152.91241197183098C964.2500000000001,152.9072574334898,966.6250000000001,152.9021028951487,969.0000000000001,152.8969483568075C971.3750000000001,152.89179381846634,973.7500000000001,152.8866392801252,976.1250000000001,152.88148474178402C978.5,152.87633020344288,980.875,152.8711756651017,983.2499999999999,152.86602112676056C985.6249999999999,152.8608665884194,987.9999999999999,152.85571205007824,990.3749999999999,152.8505575117371C992.7499999999999,152.84540297339595,995.1249999999999,152.84024843505478,997.4999999999999,152.83509389671363C999.8749999999999,152.82993935837249,1002.2499999999999,152.82478482003128,1004.6249999999999,152.81963028169014C1006.9999999999999,152.81447574334896,1009.375,152.814475743349,1011.75,152.80416666666667C1014.125,152.79385758998436,1016.5,151.31949233716475,1018.875,150.5771551724138C1021.25,149.83481800766285,1023.625,149.09248084291187,1026,148.35014367816092C1028.375,147.60780651340997,1030.75,146.865469348659,1033.125,146.12313218390804C1035.5,145.3807950191571,1037.875,144.6384578544061,1040.25,143.89612068965516C1042.625,143.1537835249042,1045,142.41144636015323,1047.375,141.66910919540229C1049.75,140.92677203065134,1052.125,140.18443486590036,1054.5,139.4420977011494C1056.875,138.69976053639846,1059.25,137.9574233716475,1061.625,137.21508620689656C1064,136.4727490421456,1066.375,135.73041187739463,1068.75,134.98807471264368C1071.125,134.24573754789273,1073.5,133.50340038314175,1075.875,132.7610632183908C1078.25,132.01872605363985,1080.625,131.27638888888887,1083,130.53405172413792C1085.375,129.79171455938697,1087.75,129.049377394636,1090.125,128.30704022988505C1092.5,127.5647030651341,1094.875,126.82236590038315,1097.25,126.08002873563218C1099.625,125.33769157088122,1102,124.59535440613026,1104.375,123.8530172413793C1106.75,123.11068007662836,1109.125,122.3683429118774,1111.5,121.62600574712646C1113.875,120.8836685823755,1116.25,120.14133141762454,1118.625,119.39899425287358C1121,118.65665708812261,1123.375,117.91431992337165,1125.75,117.17198275862069C1128.125,116.42964559386972,1130.5,115.68730842911879,1132.875,114.94497126436782C1135.25,114.20263409961686,1137.625,113.46029693486591,1140,112.71795977011494C1142.375,111.97562260536398,1144.75,111.23328544061303,1147.125,110.49094827586208C1149.5,109.74861111111113,1151.875,109.00627394636017,1154.25,108.2639367816092C1156.625,107.52159961685824,1159,106.77926245210729,1161.375,106.03692528735633C1163.75,105.29458812260536,1166.125,104.55225095785441,1168.5,103.80991379310345C1170.875,103.06757662835248,1173.25,102.32523946360153,1175.625,101.58290229885057C1178,100.8405651340996,1180.375,100.09822796934864,1182.75,99.35589080459769C1185.125,98.61355363984674,1187.5,97.87121647509579,1189.875,97.12887931034483C1192.25,96.38654214559386,1194.625,95.64420498084291,1197,94.90186781609195C1199.375,94.15953065134099,1201.75,93.41719348659004,1204.125,92.67485632183907C1206.5,91.93251915708811,1208.875,91.19018199233717,1211.25,90.44784482758621C1213.625,89.70550766283525,1216,88.96317049808428,1218.375,88.22083333333332C1220.75,87.47849616858235,1223.125,86.73615900383142,1225.5,85.99382183908047C1227.875,85.25148467432952,1230.25,84.50914750957855,1232.625,83.76681034482759C1235,83.02447318007663,1237.375,82.28213601532569,1239.75,81.53979885057473C1242.125,80.79746168582376,1244.5,80.0551245210728,1246.875,79.31278735632183C1249.25,78.57045019157087,1251.625,77.82811302681992,1254,77.08577586206897C1256.375,76.34343869731802,1258.75,75.60110153256706,1261.125,74.8587643678161C1263.5,74.11642720306513,1265.875,73.37409003831418,1268.25,72.63175287356322C1270.625,71.88941570881225,1273,71.1470785440613,1275.375,70.40474137931034C1277.75,69.66240421455937,1280.125,68.92006704980842,1282.5,68.17772988505746C1284.875,67.4353927203065,1287.25,66.69305555555553,1289.625,65.95071839080458C1292,65.20838122605363,1294.375,64.46604406130268,1296.75,63.72370689655173C1299.125,62.981369731800775,1301.5,62.23903256704981,1303.875,61.496695402298855C1306.25,60.7543582375479,1308.625,60.012021072796934,1311,59.26968390804598C1313.375,58.52734674329502,1315.75,57.78500957854406,1318.125,57.042672413793106C1320.5,56.30033524904215,1322.875,55.557998084291185,1325.25,54.81566091954023C1327.625,54.07332375478927,1330,53.330986590038314,1332.375,52.58864942528736C1334.75,51.8463122605364,1337.125,51.10397509578545,1339.5,50.361637931034494C1341.875,49.61930076628354,1344.25,48.876963601532566,1346.625,48.1346264367816C1349,47.39228927203064,1351.375,46.64995210727969,1353.75,45.90761494252873C1356.125,45.165277777777774,1358.5,44.42294061302683,1360.875,43.680603448275875C1363.25,42.93826628352492,1365.625,42.19592911877394,1368,41.45359195402298C1370.375,40.711254789272026,1372.75,39.968917624521076,1375.125,39.22658045977012C1377.5,38.48424329501916,1379.875,37.741906130268205,1382.25,36.99956896551725C1384.625,36.25723180076629,1387,35.51489463601533,1389.375,34.77255747126437C1391.75,34.030220306513414,1394.125,33.28788314176245,1396.5,32.54554597701149C1398.875,31.803208812260536,1401.25,31.06087164750958,1403.625,30.318534482758622C1406,29.576197318007665,1408.375,28.8338601532567,1410.75,28.091522988505744C1413.125,27.349185823754787,1415.5,26.606848659003827,1417.875,25.86451149425287C1420.25,25.122174329501913,1422.625,24.379837164750953,1425,23.637499999999996" fill="transparent" stroke-linecap="round" stroke="#1AD4B3" stroke-width="2"></path><g class="visx-group visx-axis visx-axis-bottom" transform="translate(0, 155)"><g class="visx-group visx-axis-tick" transform="translate(0, 0)"><line class="visx-line" x1="0" y1="0" x2="0" y2="8" fill="transparent" shape-rendering="crispEdges" stroke="#F2F0F9" stroke-width="1" stroke-linecap="square"></line><svg x="0" y="0" font-size="11" style="overflow:visible"><text transform="" x="0" y="19" fill="#1B2030" font-size="11" text-anchor="middle"><tspan x="0" dy="0em">0%</tspan></text></svg></g><g class="visx-group visx-axis-tick" transform="translate(0, 0)"><line class="visx-line" x1="356.25" y1="0" x2="356.25" y2="8" fill="transparent" shape-rendering="crispEdges" stroke="#F2F0F9" stroke-width="1" stroke-linecap="square"></line><svg x="0" y="0" font-size="11" style="overflow:visible"><text transform="" x="356.25" y="19" fill="#1B2030" font-size="11" text-anchor="middle"><tspan x="356.25" dy="0em">25%</tspan></text></svg></g><g class="visx-group visx-axis-tick" transform="translate(0, 0)"><line class="visx-line" x1="712.5" y1="0" x2="712.5" y2="8" fill="transparent" shape-rendering="crispEdges" stroke="#F2F0F9" stroke-width="1" stroke-linecap="square"></line><svg x="0" y="0" font-size="11" style="overflow:visible"><text transform="" x="712.5" y="19" fill="#1B2030" font-size="11" text-anchor="middle"><tspan x="712.5" dy="0em">50%</tspan></text></svg></g><g class="visx-group visx-axis-tick" transform="translate(0, 0)"><line class="visx-line" x1="1068.75" y1="0" x2="1068.75" y2="8" fill="transparent" shape-rendering="crispEdges" stroke="#F2F0F9" stroke-width="1" stroke-linecap="square"></line><svg x="0" y="0" font-size="11" style="overflow:visible"><text transform="" x="1068.75" y="19" fill="#1B2030" font-size="11" text-anchor="middle"><tspan x="1068.75" dy="0em">75%</tspan></text></svg></g><g class="visx-group visx-axis-tick" transform="translate(0, 0)"><line class="visx-line" x1="1425" y1="0" x2="1425" y2="8" fill="transparent" shape-rendering="crispEdges" stroke="#F2F0F9" stroke-width="1" stroke-linecap="square"></line><svg x="0" y="0" font-size="11" style="overflow:visible"><text transform="" x="1425" y="19" fill="#1B2030" font-size="11" text-anchor="middle"><tspan x="1425" dy="0em">100%</tspan></text></svg></g></g><g class="visx-group visx-axis visx-axis-left" transform="translate(0, 0)"><g class="visx-group visx-axis-tick" transform="translate(0, 0)"><line class="visx-line" x1="0" y1="155" x2="-8" y2="155" fill="transparent" shape-rendering="crispEdges" stroke="#F2F0F9" stroke-width="1" stroke-linecap="square"></line><svg x="-30" y="0" font-size="11" style="overflow:visible"><text transform="" x="-8" y="155" fill="#1B2030" font-size="11" text-anchor="start"><tspan x="-8" dy="0em">0%</tspan></text></svg></g><g class="visx-group visx-axis-tick" transform="translate(0, 0)"><line class="visx-line" x1="0" y1="120.55555555555556" x2="-8" y2="120.55555555555556" fill="transparent" shape-rendering="crispEdges" stroke="#F2F0F9" stroke-width="1" stroke-linecap="square"></line><svg x="-30" y="0" font-size="11" style="overflow:visible"><text transform="" x="-8" y="120.55555555555556" fill="#1B2030" font-size="11" text-anchor="start"><tspan x="-8" dy="0em">200%</tspan></text></svg></g><g class="visx-group visx-axis-tick" transform="translate(0, 0)"><line class="visx-line" x1="0" y1="86.11111111111111" x2="-8" y2="86.11111111111111" fill="transparent" shape-rendering="crispEdges" stroke="#F2F0F9" stroke-width="1" stroke-linecap="square"></line><svg x="-30" y="0" font-size="11" style="overflow:visible"><text transform="" x="-8" y="86.11111111111111" fill="#1B2030" font-size="11" text-anchor="start"><tspan x="-8" dy="0em">400%</tspan></text></svg></g><g class="visx-group visx-axis-tick" transform="translate(0, 0)"><line class="visx-line" x1="0" y1="51.66666666666667" x2="-8" y2="51.66666666666667" fill="transparent" shape-rendering="crispEdges" stroke="#F2F0F9" stroke-width="1" stroke-linecap="square"></line><svg x="-30" y="0" font-size="11" style="overflow:visible"><text transform="" x="-8" y="51.66666666666667" fill="#1B2030" font-size="11" text-anchor="start"><tspan x="-8" dy="0em">600%</tspan></text></svg></g><g class="visx-group visx-axis-tick" transform="translate(0, 0)"><line class="visx-line" x1="0" y1="17.22222222222223" x2="-8" y2="17.22222222222223" fill="transparent" shape-rendering="crispEdges" stroke="#F2F0F9" stroke-width="1" stroke-linecap="square"></line><svg x="-30" y="0" font-size="11" style="overflow:visible"><text transform="" x="-8" y="17.22222222222223" fill="#1B2030" font-size="11" text-anchor="start"><tspan x="-8" dy="0em">800%</tspan></text></svg></g><line class="visx-line visx-axis-line" x1="0" y1="155.5" x2="0" y2="0.5" fill="transparent" shape-rendering="crispEdges" stroke="#F2F0F9" stroke-width="1"></line></g><rect class="visx-bar" width="1425" height="155" fill="transparent"></rect><line class="visx-line" x1="1011.75" y1="58" x2="1011.75" y2="155" fill="transparent" shape-rendering="crispEdges" stroke="#CDC8E1" stroke-width="1" pointer-events="none" stroke-dasharray="5"></line><svg x="0" y="0" font-size="11px" style="overflow:visible"><text transform="" x="1011.75" y="50" font-size="11px" fill="#555069" stroke="#FFFFFF" stroke-width="1px" text-anchor="middle"><tspan x="1011.75" dy="0.355em">uOptimal 71%</tspan></text></svg><svg x="0" y="0" font-size="11px" style="overflow:visible"><text transform="" x="1011.75" y="50" font-size="11px" fill="#CDC8E1" text-anchor="middle"><tspan x="1011.75" dy="0.355em">uOptimal 71%</tspan></text></svg></g></svg>