<?xml version="1.0"?><svg xmlns="http://www.w3.org/2000/svg" xmlns:xlink= "http://www.w3.org/1999/xlink" style="background: white;" width="1500" height="300"> <g style="color: black; font-size: 13px; font-family: sans-serif; transform: translate(18px, 25px);"><g><circle r="3" cx="-6" cy="-5" style="fill: #1AD4B3" /><text>Borrow APR, variable</text></g><g style="transform: translateX(150px);"><circle r="3" cx="-6" cy="-5" style="fill: #101423" /><text>Borrow APR, stable</text></g></g><g class="visx-group" transform="translate(45, 50)"><g class="visx-group visx-rows" transform="translate(0, 0)"><line class="visx-line" x1="0" y1="155" x2="1425" y2="155" fill="transparent" shape-rendering="crispEdges" stroke="#F2F0F9" stroke-width="1" pointer-events="none"></line><line class="visx-line" x1="0" y1="90.41666666666666" x2="1425" y2="90.41666666666666" fill="transparent" shape-rendering="crispEdges" stroke="#F2F0F9" stroke-width="1" pointer-events="none"></line><line class="visx-line" x1="0" y1="25.83333333333333" x2="1425" y2="25.83333333333333" fill="transparent" shape-rendering="crispEdges" stroke="#F2F0F9" stroke-width="1" pointer-events="none"></line></g><path class="visx-linepath" d="M0,154.61249999935418C2.375,154.5048611107344,4.75,154.39722222211458,7.125,154.28958333333333C9.5,154.18194444455207,11.875,154.07430555555555,14.25,153.96666666666667C16.625,153.85902777777778,19,153.75138888888887,21.375,153.64374999999998C23.75,153.5361111111111,26.125,153.4284722222222,28.5,153.32083333333333C30.875,153.21319444444444,33.25,153.10555555555555,35.625,152.99791666666667C38,152.89027777777778,40.375,152.7826388888889,42.75,152.675C45.125,152.56736111111113,47.50000000000001,152.4597222222222,49.87500000000001,152.35208333333333C52.25000000000001,152.24444444444444,54.625,152.13680555555555,57,152.02916666666667C59.375,151.92152777777778,61.75,151.8138888888889,64.125,151.70625C66.5,151.59861111111113,68.875,151.4909722222222,71.25,151.38333333333333C73.625,151.27569444444444,76,151.16805555555555,78.375,151.06041666666667C80.75,150.95277777777778,83.125,150.8451388888889,85.5,150.7375C87.875,150.62986111111113,90.25,150.5222222222222,92.625,150.41458333333333C95,150.30694444444444,97.37500000000001,150.19930555555555,99.75000000000001,150.09166666666667C102.12500000000001,149.98402777777778,104.5,149.8763888888889,106.875,149.76875C109.25,149.66111111111113,111.625,149.5534722222222,114,149.44583333333333C116.375,149.33819444444444,118.75000000000001,149.23055555555555,121.12500000000001,149.12291666666667C123.50000000000001,149.01527777777778,125.875,148.90763888888887,128.25,148.79999999999998C130.625,148.6923611111111,133,148.5847222222222,135.375,148.47708333333333C137.75,148.36944444444444,140.125,148.3275848765432,142.5,148.15416666666667C144.875,147.98074845679014,147.25,147.67577160493826,149.625,147.43657407407406C152,147.19737654320986,154.375,146.95817901234568,156.75,146.71898148148148C159.125,146.47978395061727,161.5,146.2405864197531,163.875,146.0013888888889C166.25,145.7621913580247,168.625,145.5229938271605,171,145.2837962962963C173.375,145.04459876543208,175.75,144.8054012345679,178.125,144.5662037037037C180.5,144.3270061728395,182.875,144.0878086419753,185.25,143.8486111111111C187.625,143.6094135802469,190,143.37021604938272,192.375,143.13101851851852C194.75,142.8918209876543,197.12500000000003,142.65262345679014,199.50000000000003,142.41342592592594C201.875,142.17422839506173,204.25,141.93503086419753,206.62499999999997,141.69583333333333C208.99999999999997,141.45663580246912,211.375,141.21743827160495,213.75,140.97824074074074C216.125,140.73904320987654,218.5,140.49984567901234,220.875,140.26064814814814C223.25,140.02145061728393,225.625,139.78225308641976,228,139.54305555555555C230.375,139.30385802469135,232.75,139.06466049382718,235.125,138.82546296296297C237.5,138.58626543209877,239.87500000000003,138.34706790123457,242.25000000000003,138.10787037037036C244.625,137.86867283950616,247,137.629475308642,249.37499999999997,137.39027777777778C251.74999999999997,137.15108024691358,254.125,136.91188271604938,256.5,136.67268518518517C258.875,136.43348765432097,261.25,136.1942901234568,263.625,135.9550925925926C266,135.7158950617284,268.375,135.47669753086421,270.75,135.2375C273.125,134.9983024691358,275.5,134.7591049382716,277.875,134.5199074074074C280.25,134.2807098765432,282.625,134.04151234567902,285,133.80231481481482C287.375,133.56311728395062,289.75,133.32391975308641,292.125,133.0847222222222C294.5,132.845524691358,296.875,132.60632716049383,299.25,132.36712962962963C301.625,132.12793209876543,304,131.88873456790125,306.375,131.64953703703705C308.75,131.41033950617285,311.125,131.17114197530864,313.5,130.93194444444444C315.875,130.69274691358024,318.25,130.45354938271606,320.625,130.21435185185186C323,129.97515432098766,325.375,129.73595679012345,327.75,129.49675925925925C330.125,129.25756172839505,332.5,129.01836419753087,334.875,128.77916666666667C337.25,128.53996913580247,339.625,128.30077160493826,342,128.06157407407406C344.375,127.82237654320986,346.75,127.58317901234568,349.125,127.34398148148149C351.5,127.1047839506173,353.875,126.8655864197531,356.25,126.6263888888889C358.625,126.3871913580247,361,126.1479938271605,363.375,125.9087962962963C365.75,125.6695987654321,368.125,125.43040123456791,370.5,125.1912037037037C372.875,124.9520061728395,375.25,124.71280864197533,377.625,124.47361111111113C380,124.23441358024692,382.375,123.99521604938272,384.75,123.75601851851852C387.125,123.51682098765431,389.50000000000006,123.27762345679014,391.87500000000006,123.03842592592594C394.25000000000006,122.79922839506175,396.62500000000006,122.56003086419754,399.00000000000006,122.32083333333334C401.375,122.08163580246914,403.75,121.84243827160493,406.12499999999994,121.60324074074074C408.49999999999994,121.36404320987654,410.87499999999994,121.12484567901237,413.24999999999994,120.88564814814816C415.62499999999994,120.64645061728396,418,120.40725308641976,420.375,120.16805555555555C422.75,119.92885802469135,425.125,119.68966049382718,427.5,119.45046296296297C429.875,119.21126543209877,432.25,118.97206790123458,434.625,118.73287037037038C437,118.49367283950617,439.375,118.25447530864199,441.75,118.01527777777778C444.125,117.77608024691358,446.5,117.53688271604939,448.875,117.29768518518519C451.25,117.05848765432098,453.625,116.8192901234568,456,116.58009259259259C458.375,116.34089506172839,460.75,116.10169753086421,463.125,115.86250000000001C465.5,115.62330246913581,467.875,115.38410493827162,470.25,115.14490740740742C472.625,114.90570987654321,475.00000000000006,114.66651234567902,477.37500000000006,114.42731481481482C479.75000000000006,114.18811728395062,482.12500000000006,113.94891975308643,484.50000000000006,113.70972222222223C486.875,113.47052469135802,489.25,113.23132716049382,491.62499999999994,112.99212962962963C493.99999999999994,112.75293209876543,496.37499999999994,112.51373456790124,498.74999999999994,112.27453703703705C501.12499999999994,112.03533950617285,503.5,111.79614197530866,505.875,111.55694444444445C508.25,111.31774691358025,510.625,111.07854938271606,513,110.83935185185186C515.375,110.60015432098766,517.75,110.36095679012347,520.125,110.12175925925926C522.5,109.88256172839506,524.875,109.64336419753087,527.25,109.40416666666667C529.625,109.16496913580247,532,108.92577160493829,534.375,108.68657407407409C536.75,108.44737654320988,539.125,108.20817901234568,541.5,107.96898148148148C543.875,107.72978395061727,546.25,107.4905864197531,548.625,107.2513888888889C551,107.0121913580247,553.375,106.7729938271605,555.75,106.5337962962963C558.125,106.2945987654321,560.5,106.05540123456791,562.875,105.8162037037037C565.25,105.5770061728395,567.625,105.33780864197533,570,105.09861111111113C572.375,104.85941358024692,574.75,104.62021604938272,577.125,104.38101851851852C579.5,104.14182098765431,581.875,103.90262345679014,584.25,103.66342592592594C586.625,103.42422839506173,589,103.18503086419754,591.375,102.94583333333334C593.75,102.70663580246914,596.125,102.46743827160495,598.5,102.22824074074074C600.875,101.98904320987654,603.25,101.74984567901237,605.625,101.51064814814816C608,101.27145061728396,610.375,101.03225308641976,612.75,100.79305555555555C615.125,100.55385802469135,617.5,100.31466049382715,619.875,100.07546296296296C622.25,99.83626543209877,624.625,99.59706790123457,627,99.35787037037038C629.375,99.11867283950619,631.75,98.87947530864199,634.125,98.64027777777778C636.5,98.40108024691358,638.875,98.1618827160494,641.25,97.9226851851852C643.625,97.683487654321,646,97.4442901234568,648.375,97.20509259259259C650.75,96.96589506172839,653.125,96.72669753086421,655.5,96.48750000000001C657.875,96.24830246913581,660.25,96.00910493827162,662.625,95.76990740740742C665,95.53070987654321,667.375,95.29151234567902,669.75,95.05231481481482C672.125,94.81311728395062,674.5,94.57391975308644,676.875,94.33472222222224C679.25,94.09552469135804,681.625,93.85632716049383,684,93.61712962962963C686.375,93.37793209876543,688.75,93.13873456790125,691.125,92.89953703703705C693.5,92.66033950617285,695.875,92.42114197530866,698.25,92.18194444444445C700.625,91.94274691358025,703,91.70354938271606,705.375,91.46435185185186C707.75,91.22515432098766,710.125,90.98595679012348,712.5,90.74675925925928C714.875,90.50756172839507,717.25,90.26836419753087,719.625,90.02916666666667C722,89.78996913580247,724.375,89.55077160493829,726.75,89.31157407407409C729.125,89.07237654320988,731.5,88.83317901234568,733.875,88.59398148148148C736.25,88.35478395061727,738.625,88.1155864197531,741,87.8763888888889C743.375,87.6371913580247,745.75,87.39799382716048,748.125,87.15879629629627C750.5,86.91959876543207,752.875,86.6804012345679,755.25,86.4412037037037C757.625,86.20200617283952,760,85.96280864197531,762.375,85.72361111111111C764.75,85.48441358024691,767.125,85.2452160493827,769.5,85.00601851851852C771.875,84.76682098765431,774.2500000000001,84.52762345679014,776.6250000000001,84.28842592592594C779.0000000000001,84.04922839506175,781.3750000000001,83.81003086419754,783.7500000000001,83.57083333333334C786.1250000000001,83.33163580246914,788.5000000000001,83.09243827160495,790.8750000000001,82.85324074074074C793.2500000000001,82.61404320987654,795.6250000000001,82.37484567901237,798.0000000000001,82.13564814814816C800.375,81.89645061728397,802.75,81.65725308641976,805.1249999999999,81.41805555555555C807.4999999999999,81.17885802469135,809.8749999999999,80.93966049382716,812.2499999999999,80.70046296296296C814.6249999999999,80.46126543209876,816.9999999999999,80.22206790123457,819.3749999999999,79.98287037037036C821.7499999999999,79.74367283950616,824.1249999999999,79.50447530864197,826.4999999999999,79.26527777777778C828.8749999999999,79.02608024691358,831.25,78.78688271604939,833.625,78.54768518518519C836,78.308487654321,838.375,78.0692901234568,840.75,77.8300925925926C843.125,77.59089506172842,845.5,77.35169753086421,847.875,77.11250000000001C850.25,76.87330246913581,852.625,76.63410493827162,855,76.39490740740742C857.375,76.15570987654321,859.75,75.91651234567902,862.125,75.67731481481482C864.5,75.43811728395062,866.875,75.19891975308643,869.25,74.95972222222223C871.625,74.72052469135802,874,74.48132716049383,876.375,74.24212962962963C878.75,74.00293209876543,881.125,73.76373456790124,883.5,73.52453703703704C885.875,73.28533950617283,888.25,73.04614197530864,890.625,72.80694444444444C893,72.56774691358024,895.375,72.32854938271605,897.75,72.08935185185186C900.125,71.85015432098767,902.5,71.61095679012348,904.875,71.37175925925928C907.25,71.13256172839507,909.625,70.89336419753087,912,70.65416666666667C914.375,70.41496913580247,916.75,70.17577160493826,919.125,69.93657407407407C921.5,69.69737654320988,923.875,69.45817901234568,926.25,69.21898148148149C928.625,68.9797839506173,931,68.7405864197531,933.375,68.5013888888889C935.75,68.2621913580247,938.125,68.02299382716048,940.5,67.78379629629627C942.875,67.54459876543207,945.25,67.3054012345679,947.625,67.0662037037037C950,66.82700617283952,952.3750000000001,66.58780864197531,954.7500000000001,66.34861111111111C957.1250000000001,66.10941358024691,959.5000000000001,65.87021604938272,961.8750000000001,65.63101851851852C964.2500000000001,65.39182098765431,966.6250000000001,65.15262345679014,969.0000000000001,64.91342592592594C971.3750000000001,64.67422839506173,973.7500000000001,64.43503086419754,976.1250000000001,64.19583333333334C978.5,63.956635802469144,980.875,63.717438271604934,983.2499999999999,63.47824074074074C985.6249999999999,63.239043209876534,987.9999999999999,62.99984567901234,990.3749999999999,62.76064814814814C992.7499999999999,62.521450617283946,995.1249999999999,62.282253086419765,997.4999999999999,62.04305555555557C999.8749999999999,61.80385802469137,1002.2499999999999,61.564660493827155,1004.6249999999999,61.32546296296295C1006.9999999999999,61.08626543209875,1009.375,60.84706790123455,1011.75,60.60787037037036C1014.125,60.36867283950616,1016.5,60.12947530864197,1018.875,59.890277777777776C1021.25,59.65108024691358,1023.625,59.41188271604938,1026,59.17268518518518C1028.375,58.933487654320984,1030.75,58.6942901234568,1033.125,58.45509259259261C1035.5,58.21589506172841,1037.875,57.976697530864215,1040.25,57.73750000000001C1042.625,57.49830246913581,1045,57.259104938271605,1047.375,57.01990740740741C1049.75,56.78070987654321,1052.125,56.54151234567901,1054.5,56.302314814814814C1056.875,56.06311728395062,1059.25,55.823919753086415,1061.625,55.58472222222222C1064,55.34552469135802,1066.375,55.10632716049382,1068.75,54.86712962962962C1071.125,54.62793209876543,1073.5,54.388734567901224,1075.875,54.14953703703703C1078.25,53.91033950617283,1080.625,53.67114197530863,1083,53.43194444444443C1085.375,53.19274691358024,1087.75,52.95354938271605,1090.125,52.71435185185185C1092.5,52.475154320987656,1094.875,52.235956790123474,1097.25,51.99675925925928C1099.625,51.75756172839508,1102,51.51836419753088,1104.375,51.27916666666668C1106.75,51.03996913580249,1109.125,50.80077160493829,1111.5,50.56157407407409C1113.875,50.322376543209884,1116.25,50.083179012345674,1118.625,49.84398148148147C1121,49.60478395061727,1123.375,49.36558641975307,1125.75,49.126388888888876C1128.125,48.88719135802468,1130.5,48.64799382716048,1132.875,48.40879629629628C1135.25,48.169598765432085,1137.625,47.930401234567896,1140,47.6912037037037C1142.375,47.4520061728395,1144.75,47.2128086419753,1147.125,46.973611111111104C1149.5,46.73441358024691,1151.875,46.495216049382705,1154.25,46.25601851851851C1156.625,46.01682098765431,1159,45.777623456790124,1161.375,45.538425925925935C1163.75,45.299228395061746,1166.125,45.06003086419755,1168.5,44.820833333333354C1170.875,44.58163580246916,1173.25,44.34243827160496,1175.625,44.10324074074076C1178,43.864043209876556,1180.375,43.624845679012346,1182.75,43.38564814814814C1185.125,43.14645061728394,1187.5,42.90725308641974,1189.875,42.66805555555555C1192.25,42.42885802469135,1194.625,42.18966049382715,1197,41.95046296296295C1199.375,41.711265432098756,1201.75,41.47206790123455,1204.125,41.23287037037036C1206.5,40.99367283950616,1208.875,40.75447530864197,1211.25,40.515277777777776C1213.625,40.27608024691358,1216,40.03688271604938,1218.375,39.79768518518518C1220.75,39.558487654320984,1223.125,39.3192901234568,1225.5,39.08009259259261C1227.875,38.84089506172841,1230.25,38.60169753086421,1232.625,38.36250000000001C1235,38.123302469135815,1237.375,37.88410493827163,1239.75,37.64490740740743C1242.125,37.40570987654323,1244.5,37.166512345679,1246.875,36.9273148148148C1249.25,36.6881172839506,1251.625,36.448919753086415,1254,36.20972222222222C1256.375,35.97052469135802,1258.75,35.73132716049382,1261.125,35.49212962962962C1263.5,35.25293209876543,1265.875,35.013734567901224,1268.25,34.77453703703703C1270.625,34.53533950617283,1273,34.29614197530863,1275.375,34.05694444444443C1277.75,33.81774691358024,1280.125,33.57854938271605,1282.5,33.33935185185185C1284.875,33.100154320987656,1287.25,32.860956790123474,1289.625,32.62175925925928C1292,32.38256172839508,1294.375,32.14336419753088,1296.75,31.90416666666668C1299.125,31.66496913580248,1301.5,31.425771604938284,1303.875,31.186574074074084C1306.25,30.947376543209884,1308.625,30.708179012345674,1311,30.46898148148147C1313.375,30.229783950617268,1315.75,29.990586419753075,1318.125,29.751388888888876C1320.5,29.512191358024676,1322.875,29.272993827160477,1325.25,29.03379629629628C1327.625,28.794598765432085,1330,28.5554012345679,1332.375,28.316203703703703C1334.75,28.077006172839507,1337.125,27.837808641975304,1339.5,27.598611111111104C1341.875,27.359413580246905,1344.25,27.120216049382705,1346.625,26.88101851851851C1349,26.641820987654313,1351.375,26.402623456790124,1353.75,26.16342592592593C1356.125,25.92422839506174,1358.5,25.68503086419755,1360.875,25.445833333333354C1363.25,25.206635802469158,1365.625,24.967438271604962,1368,24.72824074074076C1370.375,24.489043209876556,1372.75,24.24984567901235,1375.125,24.010648148148146C1377.5,23.771450617283943,1379.875,23.532253086419743,1382.25,23.293055555555547C1384.625,23.05385802469135,1387,22.81466049382717,1389.375,22.57546296296297C1391.75,22.33626543209877,1394.125,22.097067901234553,1396.5,21.857870370370357C1398.875,21.61867283950616,1401.25,21.379475308641993,1403.625,21.140277777777797C1406,20.9010802469136,1408.375,20.661882716049384,1410.75,20.422685185185184C1413.125,20.183487654320984,1415.5,19.9442901234568,1417.875,19.705092592592603C1420.25,19.465895061728407,1422.625,19.226697530864207,1425,18.987500000000008" fill="transparent" stroke-linecap="round" stroke="#1AD4B3" stroke-width="2"></path><g class="visx-group visx-axis visx-axis-bottom" transform="translate(0, 155)"><g class="visx-group visx-axis-tick" transform="translate(0, 0)"><line class="visx-line" x1="0" y1="0" x2="0" y2="8" fill="transparent" shape-rendering="crispEdges" stroke="#F2F0F9" stroke-width="1" stroke-linecap="square"></line><svg x="0" y="0" font-size="11" style="overflow:visible"><text transform="" x="0" y="19" fill="#1B2030" font-size="11" text-anchor="middle"><tspan x="0" dy="0em">0%</tspan></text></svg></g><g class="visx-group visx-axis-tick" transform="translate(0, 0)"><line class="visx-line" x1="356.25" y1="0" x2="356.25" y2="8" fill="transparent" shape-rendering="crispEdges" stroke="#F2F0F9" stroke-width="1" stroke-linecap="square"></line><svg x="0" y="0" font-size="11" style="overflow:visible"><text transform="" x="356.25" y="19" fill="#1B2030" font-size="11" text-anchor="middle"><tspan x="356.25" dy="0em">25%</tspan></text></svg></g><g class="visx-group visx-axis-tick" transform="translate(0, 0)"><line class="visx-line" x1="712.5" y1="0" x2="712.5" y2="8" fill="transparent" shape-rendering="crispEdges" stroke="#F2F0F9" stroke-width="1" stroke-linecap="square"></line><svg x="0" y="0" font-size="11" style="overflow:visible"><text transform="" x="712.5" y="19" fill="#1B2030" font-size="11" text-anchor="middle"><tspan x="712.5" dy="0em">50%</tspan></text></svg></g><g class="visx-group visx-axis-tick" transform="translate(0, 0)"><line class="visx-line" x1="1068.75" y1="0" x2="1068.75" y2="8" fill="transparent" shape-rendering="crispEdges" stroke="#F2F0F9" stroke-width="1" stroke-linecap="square"></line><svg x="0" y="0" font-size="11" style="overflow:visible"><text transform="" x="1068.75" y="19" fill="#1B2030" font-size="11" text-anchor="middle"><tspan x="1068.75" dy="0em">75%</tspan></text></svg></g><g class="visx-group visx-axis-tick" transform="translate(0, 0)"><line class="visx-line" x1="1425" y1="0" x2="1425" y2="8" fill="transparent" shape-rendering="crispEdges" stroke="#F2F0F9" stroke-width="1" stroke-linecap="square"></line><svg x="0" y="0" font-size="11" style="overflow:visible"><text transform="" x="1425" y="19" fill="#1B2030" font-size="11" text-anchor="middle"><tspan x="1425" dy="0em">100%</tspan></text></svg></g></g><g class="visx-group visx-axis visx-axis-left" transform="translate(0, 0)"><g class="visx-group visx-axis-tick" transform="translate(0, 0)"><line class="visx-line" x1="0" y1="155" x2="-8" y2="155" fill="transparent" shape-rendering="crispEdges" stroke="#F2F0F9" stroke-width="1" stroke-linecap="square"></line><svg x="-30" y="0" font-size="11" style="overflow:visible"><text transform="" x="-8" y="155" fill="#1B2030" font-size="11" text-anchor="start"><tspan x="-8" dy="0em">0%</tspan></text></svg></g><g class="visx-group visx-axis-tick" transform="translate(0, 0)"><line class="visx-line" x1="0" y1="90.41666666666666" x2="-8" y2="90.41666666666666" fill="transparent" shape-rendering="crispEdges" stroke="#F2F0F9" stroke-width="1" stroke-linecap="square"></line><svg x="-30" y="0" font-size="11" style="overflow:visible"><text transform="" x="-8" y="90.41666666666666" fill="#1B2030" font-size="11" text-anchor="start"><tspan x="-8" dy="0em">500%</tspan></text></svg></g><g class="visx-group visx-axis-tick" transform="translate(0, 0)"><line class="visx-line" x1="0" y1="25.83333333333333" x2="-8" y2="25.83333333333333" fill="transparent" shape-rendering="crispEdges" stroke="#F2F0F9" stroke-width="1" stroke-linecap="square"></line><svg x="-30" y="0" font-size="11" style="overflow:visible"><text transform="" x="-8" y="25.83333333333333" fill="#1B2030" font-size="11" text-anchor="start"><tspan x="-8" dy="0em">1000%</tspan></text></svg></g><line class="visx-line visx-axis-line" x1="0" y1="155.5" x2="0" y2="0.5" fill="transparent" shape-rendering="crispEdges" stroke="#F2F0F9" stroke-width="1"></line></g><rect class="visx-bar" width="1425" height="155" fill="transparent"></rect><line class="visx-line" x1="142.5" y1="58" x2="142.5" y2="155" fill="transparent" shape-rendering="crispEdges" stroke="#CDC8E1" stroke-width="1" pointer-events="none" stroke-dasharray="5"></line><svg x="0" y="0" font-size="11px" style="overflow:visible"><text transform="" x="142.5" y="50" font-size="11px" fill="#555069" stroke="#FFFFFF" stroke-width="1px" text-anchor="middle"><tspan x="142.5" dy="0.355em">uOptimal 10%</tspan></text></svg><svg x="0" y="0" font-size="11px" style="overflow:visible"><text transform="" x="142.5" y="50" font-size="11px" fill="#CDC8E1" text-anchor="middle"><tspan x="142.5" dy="0.355em">uOptimal 10%</tspan></text></svg></g></svg>