<?xml version="1.0"?><svg xmlns="http://www.w3.org/2000/svg" xmlns:xlink= "http://www.w3.org/1999/xlink" style="background: white;" width="1500" height="300"> <g style="color: black; font-size: 13px; font-family: sans-serif; transform: translate(18px, 25px);"><g><circle r="3" cx="-6" cy="-5" style="fill: #1AD4B3" /><text>Borrow APR, variable</text></g><g style="transform: translateX(150px);"><circle r="3" cx="-6" cy="-5" style="fill: #101423" /><text>Borrow APR, stable</text></g></g><g class="visx-group" transform="translate(45, 50)"><g class="visx-group visx-rows" transform="translate(0, 0)"><line class="visx-line" x1="0" y1="155" x2="1425" y2="155" fill="transparent" shape-rendering="crispEdges" stroke="#F2F0F9" stroke-width="1" pointer-events="none"></line><line class="visx-line" x1="0" y1="90.41666666666666" x2="1425" y2="90.41666666666666" fill="transparent" shape-rendering="crispEdges" stroke="#F2F0F9" stroke-width="1" pointer-events="none"></line><line class="visx-line" x1="0" y1="25.83333333333333" x2="1425" y2="25.83333333333333" fill="transparent" shape-rendering="crispEdges" stroke="#F2F0F9" stroke-width="1" pointer-events="none"></line></g><path class="visx-linepath" d="M0,154.99999999935417C2.375,154.89236111073438,4.75,154.7847222221146,7.125,154.67708333333334C9.5,154.5694444445521,11.875,154.46180555555554,14.25,154.35416666666666C16.625,154.24652777777777,19,154.13888888888889,21.375,154.03125C23.75,153.92361111111111,26.125,153.81597222222223,28.5,153.70833333333334C30.875,153.60069444444446,33.25,153.49305555555557,35.625,153.38541666666669C38,153.2777777777778,40.375,153.17013888888889,42.75,153.0625C45.125,152.95486111111111,47.50000000000001,152.84722222222223,49.87500000000001,152.73958333333334C52.25000000000001,152.63194444444446,54.625,152.52430555555554,57,152.41666666666666C59.375,152.30902777777777,61.75,152.20138888888889,64.125,152.09375C66.5,151.98611111111111,68.875,151.8784722222222,71.25,151.77083333333331C73.625,151.66319444444443,76,151.55555555555554,78.375,151.44791666666666C80.75,151.34027777777777,83.125,151.23263888888889,85.5,151.125C87.875,151.01736111111111,90.25,150.90972222222223,92.625,150.80208333333334C95,150.69444444444446,97.37500000000001,150.58680555555554,99.75000000000001,150.47916666666666C102.12500000000001,150.37152777777777,104.5,150.26388888888889,106.875,150.15625C109.25,150.04861111111111,111.625,149.94097222222223,114,149.83333333333334C116.375,149.72569444444446,118.75000000000001,149.61805555555554,121.12500000000001,149.51041666666666C123.50000000000001,149.40277777777777,125.875,149.29513888888889,128.25,149.1875C130.625,149.07986111111111,133,148.97222222222223,135.375,148.86458333333334C137.75,148.75694444444446,140.125,148.71508487654324,142.5,148.54166666666669C144.875,148.36824845679013,147.25,148.06327160493828,149.625,147.82407407407408C152,147.58487654320987,154.375,147.34567901234567,156.75,147.10648148148147C159.125,146.86728395061726,161.5,146.6280864197531,163.875,146.38888888888889C166.25,146.14969135802468,168.625,145.91049382716048,171,145.67129629629628C173.375,145.43209876543207,175.75,145.1929012345679,178.125,144.9537037037037C180.5,144.7145061728395,182.875,144.47530864197532,185.25,144.23611111111111C187.625,143.9969135802469,190,143.75771604938274,192.375,143.51851851851853C194.75,143.27932098765433,197.12500000000003,143.04012345679013,199.50000000000003,142.80092592592592C201.875,142.56172839506172,204.25,142.32253086419752,206.62499999999997,142.08333333333331C208.99999999999997,141.8441358024691,211.375,141.60493827160494,213.75,141.36574074074073C216.125,141.12654320987653,218.5,140.88734567901236,220.875,140.64814814814815C223.25,140.40895061728395,225.625,140.16975308641977,228,139.93055555555557C230.375,139.69135802469137,232.75,139.45216049382717,235.125,139.21296296296296C237.5,138.97376543209876,239.87500000000003,138.73456790123456,242.25000000000003,138.49537037037035C244.625,138.25617283950615,247,138.016975308642,249.37499999999997,137.7777777777778C251.74999999999997,137.5385802469136,254.125,137.2993827160494,256.5,137.0601851851852C258.875,136.820987654321,261.25,136.5817901234568,263.625,136.3425925925926C266,136.1033950617284,268.375,135.8641975308642,270.75,135.625C273.125,135.3858024691358,275.5,135.1466049382716,277.875,134.9074074074074C280.25,134.6682098765432,282.625,134.429012345679,285,134.1898148148148C287.375,133.9506172839506,289.75,133.71141975308643,292.125,133.47222222222223C294.5,133.23302469135803,296.875,132.99382716049385,299.25,132.75462962962965C301.625,132.51543209876544,304,132.27623456790124,306.375,132.03703703703704C308.75,131.79783950617283,311.125,131.55864197530863,313.5,131.31944444444443C315.875,131.08024691358023,318.25,130.84104938271605,320.625,130.60185185185185C323,130.36265432098764,325.375,130.12345679012347,327.75,129.88425925925927C330.125,129.64506172839506,332.5,129.4058641975309,334.875,129.16666666666669C337.25,128.92746913580248,339.625,128.68827160493828,342,128.44907407407408C344.375,128.20987654320987,346.75,127.97067901234568,349.125,127.73148148148148C351.5,127.49228395061728,353.875,127.25308641975309,356.25,127.01388888888889C358.625,126.77469135802468,361,126.53549382716048,363.375,126.29629629629629C365.75,126.0570987654321,368.125,125.8179012345679,370.5,125.57870370370371C372.875,125.33950617283952,375.25,125.10030864197532,377.625,124.86111111111111C380,124.62191358024691,382.375,124.38271604938272,384.75,124.14351851851852C387.125,123.90432098765432,389.50000000000006,123.66512345679013,391.87500000000006,123.42592592592592C394.25000000000006,123.18672839506172,396.62500000000006,122.94753086419753,399.00000000000006,122.70833333333333C401.375,122.46913580246913,403.75,122.22993827160492,406.12499999999994,121.99074074074073C408.49999999999994,121.75154320987653,410.87499999999994,121.51234567901234,413.24999999999994,121.27314814814815C415.62499999999994,121.03395061728395,418,120.79475308641976,420.375,120.55555555555556C422.75,120.31635802469135,425.125,120.07716049382717,427.5,119.83796296296296C429.875,119.59876543209876,432.25,119.35956790123457,434.625,119.12037037037037C437,118.88117283950616,439.375,118.64197530864197,441.75,118.40277777777777C444.125,118.16358024691357,446.5,117.9243827160494,448.875,117.68518518518519C451.25,117.44598765432099,453.625,117.2067901234568,456,116.9675925925926C458.375,116.72839506172839,460.75,116.4891975308642,463.125,116.25C465.5,116.0108024691358,467.875,115.77160493827162,470.25,115.53240740740742C472.625,115.29320987654322,475.00000000000006,115.05401234567901,477.37500000000006,114.81481481481481C479.75000000000006,114.5756172839506,482.12500000000006,114.33641975308643,484.50000000000006,114.09722222222223C486.875,113.85802469135803,489.25,113.61882716049382,491.62499999999994,113.37962962962962C493.99999999999994,113.14043209876542,496.37499999999994,112.90123456790123,498.74999999999994,112.66203703703704C501.12499999999994,112.42283950617283,503.5,112.18364197530865,505.875,111.94444444444444C508.25,111.70524691358024,510.625,111.46604938271605,513,111.22685185185185C515.375,110.98765432098764,517.75,110.74845679012347,520.125,110.50925925925927C522.5,110.27006172839506,524.875,110.03086419753086,527.25,109.79166666666666C529.625,109.55246913580245,532,109.31327160493828,534.375,109.07407407407408C536.75,108.83487654320987,539.125,108.59567901234568,541.5,108.35648148148148C543.875,108.11728395061728,546.25,107.87808641975309,548.625,107.63888888888889C551,107.39969135802468,553.375,107.16049382716051,555.75,106.9212962962963C558.125,106.6820987654321,560.5,106.4429012345679,562.875,106.2037037037037C565.25,105.96450617283949,567.625,105.72530864197532,570,105.48611111111111C572.375,105.24691358024691,574.75,105.00771604938272,577.125,104.76851851851852C579.5,104.52932098765432,581.875,104.29012345679013,584.25,104.05092592592592C586.625,103.81172839506172,589,103.57253086419755,591.375,103.33333333333334C593.75,103.09413580246914,596.125,102.85493827160494,598.5,102.61574074074073C600.875,102.37654320987653,603.25,102.13734567901236,605.625,101.89814814814815C608,101.65895061728395,610.375,101.41975308641975,612.75,101.18055555555554C615.125,100.94135802469134,617.5,100.70216049382715,619.875,100.46296296296296C622.25,100.22376543209877,624.625,99.98456790123458,627,99.74537037037038C629.375,99.50617283950618,631.75,99.26697530864197,634.125,99.02777777777777C636.5,98.78858024691357,638.875,98.5493827160494,641.25,98.31018518518519C643.625,98.07098765432099,646,97.83179012345678,648.375,97.59259259259258C650.75,97.35339506172838,653.125,97.11419753086419,655.5,96.875C657.875,96.63580246913581,660.25,96.39660493827162,662.625,96.15740740740742C665,95.91820987654322,667.375,95.67901234567901,669.75,95.43981481481481C672.125,95.2006172839506,674.5,94.96141975308643,676.875,94.72222222222223C679.25,94.48302469135803,681.625,94.24382716049382,684,94.00462962962962C686.375,93.76543209876542,688.75,93.52623456790123,691.125,93.28703703703704C693.5,93.04783950617285,695.875,92.80864197530866,698.25,92.56944444444446C700.625,92.33024691358025,703,92.09104938271605,705.375,91.85185185185185C707.75,91.61265432098764,710.125,91.37345679012347,712.5,91.13425925925927C714.875,90.89506172839506,717.25,90.65586419753086,719.625,90.41666666666666C722,90.17746913580245,724.375,89.93827160493828,726.75,89.69907407407408C729.125,89.45987654320987,731.5,89.22067901234568,733.875,88.98148148148148C736.25,88.74228395061728,738.625,88.50308641975309,741,88.26388888888889C743.375,88.02469135802468,745.75,87.78549382716048,748.125,87.54629629629629C750.5,87.3070987654321,752.875,87.0679012345679,755.25,86.82870370370371C757.625,86.58950617283952,760,86.35030864197532,762.375,86.11111111111111C764.75,85.87191358024691,767.125,85.63271604938272,769.5,85.39351851851852C771.875,85.15432098765432,774.2500000000001,84.91512345679013,776.6250000000001,84.67592592592592C779.0000000000001,84.43672839506173,781.3750000000001,84.19753086419755,783.7500000000001,83.95833333333334C786.1250000000001,83.71913580246914,788.5000000000001,83.47993827160494,790.8750000000001,83.24074074074073C793.2500000000001,83.00154320987653,795.6250000000001,82.76234567901236,798.0000000000001,82.52314814814815C800.375,82.28395061728396,802.75,82.04475308641973,805.1249999999999,81.80555555555554C807.4999999999999,81.56635802469134,809.8749999999999,81.32716049382715,812.2499999999999,81.08796296296296C814.6249999999999,80.84876543209877,816.9999999999999,80.60956790123458,819.3749999999999,80.37037037037038C821.7499999999999,80.13117283950618,824.1249999999999,79.89197530864199,826.4999999999999,79.65277777777779C828.8749999999999,79.41358024691358,831.25,79.1743827160494,833.625,78.93518518518519C836,78.69598765432099,838.375,78.45679012345678,840.75,78.21759259259258C843.125,77.97839506172838,845.5,77.7391975308642,847.875,77.5C850.25,77.2608024691358,852.625,77.0216049382716,855,76.7824074074074C857.375,76.54320987654322,859.75,76.30401234567903,862.125,76.06481481481482C864.5,75.82561728395062,866.875,75.58641975308642,869.25,75.34722222222221C871.625,75.10802469135801,874,74.86882716049382,876.375,74.62962962962962C878.75,74.39043209876542,881.125,74.15123456790123,883.5,73.91203703703704C885.875,73.67283950617285,888.25,73.43364197530866,890.625,73.19444444444446C893,72.95524691358025,895.375,72.71604938271605,897.75,72.47685185185185C900.125,72.23765432098764,902.5,71.99845679012344,904.875,71.75925925925925C907.25,71.52006172839506,909.625,71.28086419753086,912,71.04166666666667C914.375,70.80246913580248,916.75,70.56327160493828,919.125,70.32407407407408C921.5,70.08487654320987,923.875,69.84567901234568,926.25,69.60648148148148C928.625,69.36728395061728,931,69.12808641975309,933.375,68.88888888888889C935.75,68.64969135802468,938.125,68.41049382716048,940.5,68.17129629629629C942.875,67.9320987654321,945.25,67.6929012345679,947.625,67.45370370370371C950,67.2145061728395,952.3750000000001,66.97530864197532,954.7500000000001,66.73611111111111C957.1250000000001,66.49691358024691,959.5000000000001,66.25771604938272,961.8750000000001,66.01851851851852C964.2500000000001,65.77932098765432,966.6250000000001,65.54012345679013,969.0000000000001,65.30092592592592C971.3750000000001,65.06172839506172,973.7500000000001,64.82253086419753,976.1250000000001,64.58333333333333C978.5,64.34413580246914,980.875,64.10493827160494,983.2499999999999,63.86574074074075C985.6249999999999,63.626543209876544,987.9999999999999,63.387345679012356,990.3749999999999,63.14814814814815C992.7499999999999,62.90895061728395,995.1249999999999,62.66975308641974,997.4999999999999,62.43055555555554C999.8749999999999,62.19135802469135,1002.2499999999999,61.95216049382715,1004.6249999999999,61.71296296296296C1006.9999999999999,61.473765432098766,1009.375,61.23456790123458,1011.75,60.99537037037038C1014.125,60.756172839506185,1016.5,60.51697530864199,1018.875,60.277777777777786C1021.25,60.03858024691358,1023.625,59.79938271604937,1026,59.560185185185176C1028.375,59.32098765432098,1030.75,59.08179012345679,1033.125,58.842592592592595C1035.5,58.6033950617284,1037.875,58.364197530864196,1040.25,58.125C1042.625,57.885802469135804,1045,57.6466049382716,1047.375,57.407407407407405C1049.75,57.16820987654321,1052.125,56.92901234567902,1054.5,56.689814814814824C1056.875,56.45061728395063,1059.25,56.21141975308642,1061.625,55.972222222222214C1064,55.73302469135801,1066.375,55.493827160493815,1068.75,55.25462962962962C1071.125,55.01543209876542,1073.5,54.776234567901234,1075.875,54.53703703703704C1078.25,54.29783950617284,1080.625,54.05864197530865,1083,53.81944444444446C1085.375,53.58024691358026,1087.75,53.34104938271605,1090.125,53.10185185185185C1092.5,52.862654320987644,1094.875,52.62345679012345,1097.25,52.38425925925925C1099.625,52.145061728395056,1102,51.90586419753087,1104.375,51.66666666666667C1106.75,51.427469135802475,1109.125,51.18827160493827,1111.5,50.949074074074076C1113.875,50.70987654320988,1116.25,50.47067901234568,1118.625,50.23148148148148C1121,49.992283950617285,1123.375,49.753086419753096,1125.75,49.5138888888889C1128.125,49.274691358024704,1130.5,49.03549382716051,1132.875,48.796296296296305C1135.25,48.5570987654321,1137.625,48.3179012345679,1140,48.078703703703695C1142.375,47.83950617283949,1144.75,47.600308641975296,1147.125,47.3611111111111C1149.5,47.121913580246904,1151.875,46.882716049382715,1154.25,46.64351851851852C1156.625,46.40432098765432,1159,46.16512345679012,1161.375,45.925925925925924C1163.75,45.68672839506173,1166.125,45.447530864197525,1168.5,45.20833333333333C1170.875,44.96913580246913,1173.25,44.729938271604944,1175.625,44.49074074074075C1178,44.25154320987655,1180.375,44.01234567901235,1182.75,43.77314814814815C1185.125,43.533950617283956,1187.5,43.29475308641975,1189.875,43.05555555555556C1192.25,42.81635802469136,1194.625,42.57716049382716,1197,42.33796296296296C1199.375,42.098765432098766,1201.75,41.85956790123456,1204.125,41.62037037037037C1206.5,41.38117283950617,1208.875,41.14197530864197,1211.25,40.90277777777777C1213.625,40.663580246913575,1216,40.42438271604937,1218.375,40.185185185185176C1220.75,39.94598765432098,1223.125,39.70679012345679,1225.5,39.467592592592595C1227.875,39.2283950617284,1230.25,38.989197530864196,1232.625,38.75C1235,38.510802469135804,1237.375,38.2716049382716,1239.75,38.032407407407405C1242.125,37.79320987654321,1244.5,37.55401234567902,1246.875,37.314814814814824C1249.25,37.07561728395063,1251.625,36.836419753086425,1254,36.59722222222223C1256.375,36.35802469135803,1258.75,36.11882716049383,1261.125,35.87962962962963C1263.5,35.64043209876544,1265.875,35.401234567901234,1268.25,35.16203703703704C1270.625,34.92283950617284,1273,34.68364197530864,1275.375,34.44444444444444C1277.75,34.20524691358025,1280.125,33.966049382716044,1282.5,33.72685185185185C1284.875,33.48765432098765,1287.25,33.24845679012345,1289.625,33.00925925925925C1292,32.770061728395056,1294.375,32.53086419753087,1296.75,32.29166666666667C1299.125,32.052469135802475,1301.5,31.813271604938276,1303.875,31.574074074074076C1306.25,31.334876543209877,1308.625,31.095679012345677,1311,30.85648148148148C1313.375,30.617283950617285,1315.75,30.3780864197531,1318.125,30.138888888888903C1320.5,29.899691358024707,1322.875,29.660493827160508,1325.25,29.421296296296305C1327.625,29.1820987654321,1330,28.9429012345679,1332.375,28.703703703703695C1334.75,28.464506172839492,1337.125,28.225308641975293,1339.5,27.986111111111097C1341.875,27.7469135802469,1344.25,27.507716049382715,1346.625,27.26851851851852C1349,27.029320987654323,1351.375,26.790123456790123,1353.75,26.550925925925924C1356.125,26.311728395061724,1358.5,26.072530864197525,1360.875,25.83333333333333C1363.25,25.594135802469133,1365.625,25.354938271604944,1368,25.115740740740748C1370.375,24.87654320987655,1372.75,24.637345679012352,1375.125,24.398148148148152C1377.5,24.158950617283953,1379.875,23.919753086419757,1382.25,23.680555555555557C1384.625,23.441358024691358,1387,23.20216049382716,1389.375,22.962962962962962C1391.75,22.723765432098762,1394.125,22.48456790123457,1396.5,22.245370370370367C1398.875,22.006172839506164,1401.25,21.766975308641953,1403.625,21.527777777777754C1406,21.288580246913554,1408.375,21.04938271604937,1410.75,20.810185185185173C1413.125,20.570987654320977,1415.5,20.331790123456774,1417.875,20.092592592592577C1420.25,19.85339506172838,1422.625,19.614197530864192,1425,19.375" fill="transparent" stroke-linecap="round" stroke="#1AD4B3" stroke-width="2"></path><g class="visx-group visx-axis visx-axis-bottom" transform="translate(0, 155)"><g class="visx-group visx-axis-tick" transform="translate(0, 0)"><line class="visx-line" x1="0" y1="0" x2="0" y2="8" fill="transparent" shape-rendering="crispEdges" stroke="#F2F0F9" stroke-width="1" stroke-linecap="square"></line><svg x="0" y="0" font-size="11" style="overflow:visible"><text transform="" x="0" y="19" fill="#1B2030" font-size="11" text-anchor="middle"><tspan x="0" dy="0em">0%</tspan></text></svg></g><g class="visx-group visx-axis-tick" transform="translate(0, 0)"><line class="visx-line" x1="356.25" y1="0" x2="356.25" y2="8" fill="transparent" shape-rendering="crispEdges" stroke="#F2F0F9" stroke-width="1" stroke-linecap="square"></line><svg x="0" y="0" font-size="11" style="overflow:visible"><text transform="" x="356.25" y="19" fill="#1B2030" font-size="11" text-anchor="middle"><tspan x="356.25" dy="0em">25%</tspan></text></svg></g><g class="visx-group visx-axis-tick" transform="translate(0, 0)"><line class="visx-line" x1="712.5" y1="0" x2="712.5" y2="8" fill="transparent" shape-rendering="crispEdges" stroke="#F2F0F9" stroke-width="1" stroke-linecap="square"></line><svg x="0" y="0" font-size="11" style="overflow:visible"><text transform="" x="712.5" y="19" fill="#1B2030" font-size="11" text-anchor="middle"><tspan x="712.5" dy="0em">50%</tspan></text></svg></g><g class="visx-group visx-axis-tick" transform="translate(0, 0)"><line class="visx-line" x1="1068.75" y1="0" x2="1068.75" y2="8" fill="transparent" shape-rendering="crispEdges" stroke="#F2F0F9" stroke-width="1" stroke-linecap="square"></line><svg x="0" y="0" font-size="11" style="overflow:visible"><text transform="" x="1068.75" y="19" fill="#1B2030" font-size="11" text-anchor="middle"><tspan x="1068.75" dy="0em">75%</tspan></text></svg></g><g class="visx-group visx-axis-tick" transform="translate(0, 0)"><line class="visx-line" x1="1425" y1="0" x2="1425" y2="8" fill="transparent" shape-rendering="crispEdges" stroke="#F2F0F9" stroke-width="1" stroke-linecap="square"></line><svg x="0" y="0" font-size="11" style="overflow:visible"><text transform="" x="1425" y="19" fill="#1B2030" font-size="11" text-anchor="middle"><tspan x="1425" dy="0em">100%</tspan></text></svg></g></g><g class="visx-group visx-axis visx-axis-left" transform="translate(0, 0)"><g class="visx-group visx-axis-tick" transform="translate(0, 0)"><line class="visx-line" x1="0" y1="155" x2="-8" y2="155" fill="transparent" shape-rendering="crispEdges" stroke="#F2F0F9" stroke-width="1" stroke-linecap="square"></line><svg x="-30" y="0" font-size="11" style="overflow:visible"><text transform="" x="-8" y="155" fill="#1B2030" font-size="11" text-anchor="start"><tspan x="-8" dy="0em">0%</tspan></text></svg></g><g class="visx-group visx-axis-tick" transform="translate(0, 0)"><line class="visx-line" x1="0" y1="90.41666666666666" x2="-8" y2="90.41666666666666" fill="transparent" shape-rendering="crispEdges" stroke="#F2F0F9" stroke-width="1" stroke-linecap="square"></line><svg x="-30" y="0" font-size="11" style="overflow:visible"><text transform="" x="-8" y="90.41666666666666" fill="#1B2030" font-size="11" text-anchor="start"><tspan x="-8" dy="0em">500%</tspan></text></svg></g><g class="visx-group visx-axis-tick" transform="translate(0, 0)"><line class="visx-line" x1="0" y1="25.83333333333333" x2="-8" y2="25.83333333333333" fill="transparent" shape-rendering="crispEdges" stroke="#F2F0F9" stroke-width="1" stroke-linecap="square"></line><svg x="-30" y="0" font-size="11" style="overflow:visible"><text transform="" x="-8" y="25.83333333333333" fill="#1B2030" font-size="11" text-anchor="start"><tspan x="-8" dy="0em">1000%</tspan></text></svg></g><line class="visx-line visx-axis-line" x1="0" y1="155.5" x2="0" y2="0.5" fill="transparent" shape-rendering="crispEdges" stroke="#F2F0F9" stroke-width="1"></line></g><rect class="visx-bar" width="1425" height="155" fill="transparent"></rect><line class="visx-line" x1="142.5" y1="58" x2="142.5" y2="155" fill="transparent" shape-rendering="crispEdges" stroke="#CDC8E1" stroke-width="1" pointer-events="none" stroke-dasharray="5"></line><svg x="0" y="0" font-size="11px" style="overflow:visible"><text transform="" x="142.5" y="50" font-size="11px" fill="#555069" stroke="#FFFFFF" stroke-width="1px" text-anchor="middle"><tspan x="142.5" dy="0.355em">uOptimal 10%</tspan></text></svg><svg x="0" y="0" font-size="11px" style="overflow:visible"><text transform="" x="142.5" y="50" font-size="11px" fill="#CDC8E1" text-anchor="middle"><tspan x="142.5" dy="0.355em">uOptimal 10%</tspan></text></svg></g></svg>