<?xml version="1.0"?><svg xmlns="http://www.w3.org/2000/svg" xmlns:xlink= "http://www.w3.org/1999/xlink" style="background: white;" width="1500" height="300"> <g style="color: black; font-size: 13px; font-family: sans-serif; transform: translate(18px, 25px);"><g><circle r="3" cx="-6" cy="-5" style="fill: #1AD4B3" /><text>Borrow APR, variable</text></g><g style="transform: translateX(150px);"><circle r="3" cx="-6" cy="-5" style="fill: #101423" /><text>Borrow APR, stable</text></g></g><g class="visx-group" transform="translate(45, 50)"><g class="visx-group visx-rows" transform="translate(0, 0)"><line class="visx-line" x1="0" y1="155" x2="1425" y2="155" fill="transparent" shape-rendering="crispEdges" stroke="#F2F0F9" stroke-width="1" pointer-events="none"></line><line class="visx-line" x1="0" y1="120.55555555555556" x2="1425" y2="120.55555555555556" fill="transparent" shape-rendering="crispEdges" stroke="#F2F0F9" stroke-width="1" pointer-events="none"></line><line class="visx-line" x1="0" y1="86.11111111111111" x2="1425" y2="86.11111111111111" fill="transparent" shape-rendering="crispEdges" stroke="#F2F0F9" stroke-width="1" pointer-events="none"></line><line class="visx-line" x1="0" y1="51.66666666666667" x2="1425" y2="51.66666666666667" fill="transparent" shape-rendering="crispEdges" stroke="#F2F0F9" stroke-width="1" pointer-events="none"></line><line class="visx-line" x1="0" y1="17.22222222222223" x2="1425" y2="17.22222222222223" fill="transparent" shape-rendering="crispEdges" stroke="#F2F0F9" stroke-width="1" pointer-events="none"></line></g><path class="visx-linepath" d="M0,154.99999999997578C2.375,154.99596354165254,4.75,154.9919270833293,7.125,154.987890625C9.5,154.9838541666707,11.875,154.97981770833334,14.25,154.97578125C16.625,154.97174479166668,19,154.96770833333332,21.375,154.963671875C23.75,154.95963541666666,26.125,154.95559895833333,28.5,154.9515625C30.875,154.94752604166666,33.25,154.94348958333333,35.625,154.939453125C38,154.93541666666667,40.375,154.93138020833334,42.75,154.92734375C45.125,154.92330729166667,47.50000000000001,154.91927083333334,49.87500000000001,154.915234375C52.25000000000001,154.91119791666668,54.625,154.90716145833332,57,154.903125C59.375,154.89908854166666,61.75,154.89505208333333,64.125,154.891015625C66.5,154.88697916666666,68.875,154.88294270833333,71.25,154.87890625C73.625,154.87486979166667,76,154.87083333333334,78.375,154.866796875C80.75,154.86276041666667,83.125,154.85872395833331,85.5,154.85468749999998C87.875,154.85065104166665,90.25,154.84661458333335,92.625,154.84257812500002C95,154.83854166666669,97.37500000000001,154.83450520833333,99.75000000000001,154.83046875C102.12500000000001,154.82643229166666,104.5,154.82239583333333,106.875,154.818359375C109.25,154.81432291666667,111.625,154.81028645833334,114,154.80625C116.375,154.80221354166667,118.75000000000001,154.79817708333334,121.12500000000001,154.794140625C123.50000000000001,154.79010416666668,125.875,154.78606770833332,128.25,154.78203125C130.625,154.77799479166666,133,154.77395833333333,135.375,154.769921875C137.75,154.76588541666666,140.125,154.76184895833333,142.5,154.7578125C144.875,154.75377604166667,147.25,154.74973958333334,149.625,154.745703125C152,154.74166666666667,154.375,154.73763020833334,156.75,154.73359375C159.125,154.72955729166668,161.5,154.72552083333332,163.875,154.721484375C166.25,154.71744791666666,168.625,154.71341145833333,171,154.709375C173.375,154.70533854166666,175.75,154.70130208333333,178.125,154.697265625C180.5,154.69322916666667,182.875,154.68919270833334,185.25,154.68515625C187.625,154.68111979166667,190,154.67708333333334,192.375,154.673046875C194.75,154.66901041666668,197.12500000000003,154.66497395833332,199.50000000000003,154.6609375C201.875,154.65690104166666,204.25,154.65286458333333,206.62499999999997,154.648828125C208.99999999999997,154.64479166666666,211.375,154.64075520833333,213.75,154.63671875C216.125,154.63268229166667,218.5,154.62864583333334,220.875,154.624609375C223.25,154.62057291666667,225.625,154.61653645833334,228,154.6125C230.375,154.60846354166668,232.75,154.60442708333332,235.125,154.600390625C237.5,154.59635416666666,239.87500000000003,154.59231770833333,242.25000000000003,154.58828125C244.625,154.58424479166666,247,154.58020833333333,249.37499999999997,154.576171875C251.74999999999997,154.57213541666667,254.125,154.56809895833334,256.5,154.5640625C258.875,154.56002604166667,261.25,154.55598958333331,263.625,154.55195312499998C266,154.54791666666665,268.375,154.54388020833335,270.75,154.53984375000002C273.125,154.53580729166669,275.5,154.53177083333333,277.875,154.527734375C280.25,154.52369791666666,282.625,154.51966145833333,285,154.515625C287.375,154.51158854166667,289.75,154.50755208333334,292.125,154.503515625C294.5,154.49947916666667,296.875,154.49544270833334,299.25,154.49140625C301.625,154.48736979166668,304,154.48333333333332,306.375,154.479296875C308.75,154.47526041666666,311.125,154.47122395833333,313.5,154.4671875C315.875,154.46315104166666,318.25,154.45911458333333,320.625,154.455078125C323,154.45104166666667,325.375,154.44700520833334,327.75,154.44296875C330.125,154.43893229166667,332.5,154.43489583333334,334.875,154.430859375C337.25,154.42682291666668,339.625,154.42278645833332,342,154.41875C344.375,154.41471354166666,346.75,154.41067708333333,349.125,154.406640625C351.5,154.40260416666666,353.875,154.39856770833333,356.25,154.39453125C358.625,154.39049479166667,361,154.38645833333334,363.375,154.382421875C365.75,154.37838541666667,368.125,154.37434895833334,370.5,154.3703125C372.875,154.36627604166668,375.25,154.36223958333332,377.625,154.358203125C380,154.35416666666666,382.375,154.35013020833333,384.75,154.34609375C387.125,154.34205729166666,389.50000000000006,154.33802083333333,391.87500000000006,154.333984375C394.25000000000006,154.32994791666667,396.62500000000006,154.32591145833334,399.00000000000006,154.321875C401.375,154.31783854166667,403.75,154.31380208333334,406.12499999999994,154.309765625C408.49999999999994,154.30572916666668,410.87499999999994,154.30169270833332,413.24999999999994,154.29765625C415.62499999999994,154.29361979166666,418,154.28958333333333,420.375,154.285546875C422.75,154.28151041666666,425.125,154.27747395833333,427.5,154.2734375C429.875,154.26940104166667,432.25,154.26536458333334,434.625,154.261328125C437,154.25729166666667,439.375,154.25325520833331,441.75,154.24921874999998C444.125,154.24518229166665,446.5,154.24114583333335,448.875,154.23710937500002C451.25,154.23307291666669,453.625,154.22903645833333,456,154.225C458.375,154.22096354166666,460.75,154.21692708333333,463.125,154.212890625C465.5,154.20885416666667,467.875,154.20481770833334,470.25,154.20078125C472.625,154.19674479166667,475.00000000000006,154.19270833333334,477.37500000000006,154.188671875C479.75000000000006,154.18463541666668,482.12500000000006,154.18059895833332,484.50000000000006,154.1765625C486.875,154.17252604166666,489.25,154.16848958333333,491.62499999999994,154.164453125C493.99999999999994,154.16041666666666,496.37499999999994,154.15638020833333,498.74999999999994,154.15234375C501.12499999999994,154.14830729166667,503.5,154.14427083333334,505.875,154.140234375C508.25,154.13619791666667,510.625,154.13216145833334,513,154.128125C515.375,154.12408854166668,517.75,154.12005208333332,520.125,154.116015625C522.5,154.11197916666666,524.875,154.10794270833333,527.25,154.10390625C529.625,154.09986979166666,532,154.09583333333333,534.375,154.091796875C536.75,154.08776041666667,539.125,154.08372395833334,541.5,154.0796875C543.875,154.07565104166667,546.25,154.07161458333334,548.625,154.067578125C551,154.06354166666668,553.375,154.05950520833332,555.75,154.05546875C558.125,154.05143229166666,560.5,154.04739583333333,562.875,154.043359375C565.25,154.03932291666666,567.625,154.03528645833333,570,154.03125C572.375,154.02721354166667,574.75,154.02317708333334,577.125,154.019140625C579.5,154.01510416666667,581.875,154.01106770833334,584.25,154.00703125C586.625,154.00299479166668,589,153.99895833333332,591.375,153.994921875C593.75,153.99088541666666,596.125,153.98684895833333,598.5,153.9828125C600.875,153.97877604166666,603.25,153.97473958333333,605.625,153.970703125C608,153.96666666666667,610.375,153.96263020833334,612.75,153.95859375C615.125,153.95455729166667,617.5,153.95052083333331,619.875,153.94648437499998C622.25,153.94244791666665,624.625,153.93841145833335,627,153.93437500000002C629.375,153.93033854166669,631.75,153.92630208333333,634.125,153.922265625C636.5,153.91822916666666,638.875,153.91419270833333,641.25,153.91015625C643.625,153.90611979166667,646,153.90208333333334,648.375,153.898046875C650.75,153.89401041666667,653.125,153.88997395833334,655.5,153.8859375C657.875,153.88190104166668,660.25,153.87786458333332,662.625,153.873828125C665,153.86979166666666,667.375,153.86575520833333,669.75,153.86171875C672.125,153.85768229166666,674.5,153.85364583333333,676.875,153.849609375C679.25,153.84557291666667,681.625,153.84557291666667,684,153.8375C686.375,153.82942708333334,688.75,153.00950854700855,691.125,152.59551282051282C693.5,152.1815170940171,695.875,151.76752136752137,698.25,151.35352564102564C700.625,150.9395299145299,703,150.5255341880342,705.375,150.11153846153846C707.75,149.69754273504273,710.125,149.283547008547,712.5,148.86955128205128C714.875,148.45555555555555,717.25,148.04155982905982,719.625,147.6275641025641C722,147.21356837606837,724.375,146.79957264957264,726.75,146.3855769230769C729.125,145.97158119658118,731.5,145.55758547008548,733.875,145.14358974358976C736.25,144.72959401709403,738.625,144.31559829059827,741,143.90160256410255C743.375,143.48760683760682,745.75,143.07361111111112,748.125,142.6596153846154C750.5,142.24561965811967,752.875,141.83162393162394,755.25,141.4176282051282C757.625,141.00363247863248,760,140.58963675213676,762.375,140.17564102564103C764.75,139.7616452991453,767.125,139.34764957264957,769.5,138.93365384615385C771.875,138.51965811965812,774.2500000000001,138.1056623931624,776.6250000000001,137.69166666666666C779.0000000000001,137.27767094017094,781.3750000000001,136.8636752136752,783.7500000000001,136.44967948717948C786.1250000000001,136.03568376068375,788.5000000000001,135.62168803418803,790.8750000000001,135.2076923076923C793.2500000000001,134.79369658119657,795.6250000000001,134.37970085470084,798.0000000000001,133.96570512820512C800.375,133.5517094017094,802.75,133.13771367521366,805.1249999999999,132.72371794871793C807.4999999999999,132.3097222222222,809.8749999999999,131.8957264957265,812.2499999999999,131.48173076923078C814.6249999999999,131.06773504273505,816.9999999999999,130.65373931623932,819.3749999999999,130.2397435897436C821.7499999999999,129.82574786324787,824.1249999999999,129.41175213675214,826.4999999999999,128.99775641025641C828.8749999999999,128.5837606837607,831.25,128.16976495726496,833.625,127.75576923076923C836,127.3417735042735,838.375,126.92777777777778,840.75,126.51378205128205C843.125,126.09978632478632,845.5,125.68579059829061,847.875,125.27179487179488C850.25,124.85779914529915,852.625,124.44380341880341,855,124.02980769230768C857.375,123.61581196581196,859.75,123.20181623931624,862.125,122.78782051282052C864.5,122.37382478632479,866.875,121.95982905982906,869.25,121.54583333333333C871.625,121.1318376068376,874,120.7178418803419,876.375,120.30384615384617C878.75,119.88985042735044,881.125,119.47585470085471,883.5,119.06185897435898C885.875,118.64786324786326,888.25,118.23386752136754,890.625,117.81987179487182C893,117.40587606837609,895.375,116.99188034188035,897.75,116.57788461538462C900.125,116.16388888888889,902.5,115.74989316239315,904.875,115.33589743589742C907.25,114.9219017094017,909.625,114.50790598290598,912,114.09391025641025C914.375,113.67991452991453,916.75,113.2659188034188,919.125,112.85192307692307C921.5,112.43792735042734,923.875,112.02393162393163,926.25,111.6099358974359C928.625,111.19594017094018,931,110.78194444444445,933.375,110.36794871794872C935.75,109.953952991453,938.125,109.53995726495727,940.5,109.12596153846154C942.875,108.71196581196581,945.25,108.29797008547008,947.625,107.88397435897436C950,107.46997863247863,952.3750000000001,107.05598290598289,954.7500000000001,106.64198717948716C957.1250000000001,106.22799145299143,959.5000000000001,105.81399572649572,961.8750000000001,105.39999999999999C964.2500000000001,104.98600427350426,966.6250000000001,104.57200854700854,969.0000000000001,104.15801282051281C971.3750000000001,103.74401709401708,973.7500000000001,103.33002136752137,976.1250000000001,102.91602564102564C978.5,102.50202991452993,980.875,102.08803418803417,983.2499999999999,101.67403846153846C985.6249999999999,101.26004273504273,987.9999999999999,100.84604700854702,990.3749999999999,100.43205128205129C992.7499999999999,100.01805555555556,995.1249999999999,99.60405982905982,997.4999999999999,99.1900641025641C999.8749999999999,98.77606837606837,1002.2499999999999,98.36207264957265,1004.6249999999999,97.94807692307693C1006.9999999999999,97.5340811965812,1009.375,97.12008547008547,1011.75,96.70608974358974C1014.125,96.29209401709402,1016.5,95.87809829059829,1018.875,95.46410256410256C1021.25,95.05010683760683,1023.625,94.6361111111111,1026,94.22211538461538C1028.375,93.80811965811965,1030.75,93.39412393162394,1033.125,92.98012820512821C1035.5,92.56613247863248,1037.875,92.15213675213676,1040.25,91.73814102564103C1042.625,91.3241452991453,1045,90.91014957264959,1047.375,90.49615384615386C1049.75,90.08215811965813,1052.125,89.66816239316239,1054.5,89.25416666666666C1056.875,88.84017094017094,1059.25,88.42617521367522,1061.625,88.0121794871795C1064,87.59818376068377,1066.375,87.18418803418804,1068.75,86.77019230769231C1071.125,86.35619658119658,1073.5,85.94220085470084,1075.875,85.52820512820512C1078.25,85.11420940170939,1080.625,84.70021367521367,1083,84.28621794871795C1085.375,83.87222222222222,1087.75,83.45822649572649,1090.125,83.04423076923077C1092.5,82.63023504273504,1094.875,82.21623931623932,1097.25,81.8022435897436C1099.625,81.38824786324787,1102,80.97425213675214,1104.375,80.56025641025641C1106.75,80.14626068376069,1109.125,79.73226495726497,1111.5,79.31826923076925C1113.875,78.90427350427352,1116.25,78.49027777777778,1118.625,78.07628205128205C1121,77.66228632478632,1123.375,77.2482905982906,1125.75,76.83429487179487C1128.125,76.42029914529914,1130.5,76.00630341880341,1132.875,75.59230769230768C1135.25,75.17831196581196,1137.625,74.76431623931624,1140,74.35032051282052C1142.375,73.93632478632479,1144.75,73.52232905982906,1147.125,73.10833333333333C1149.5,72.6943376068376,1151.875,72.28034188034187,1154.25,71.86634615384614C1156.625,71.45235042735041,1159,71.03835470085471,1161.375,70.62435897435898C1163.75,70.21036324786326,1166.125,69.79636752136751,1168.5,69.38237179487179C1170.875,68.96837606837606,1173.25,68.55438034188035,1175.625,68.14038461538462C1178,67.72638888888889,1180.375,67.31239316239315,1182.75,66.89839743589742C1185.125,66.4844017094017,1187.5,66.070405982906,1189.875,65.65641025641027C1192.25,65.24241452991454,1194.625,64.8284188034188,1197,64.41442307692307C1199.375,64.00042735042734,1201.75,63.586431623931645,1204.125,63.17243589743592C1206.5,62.75844017094019,1208.875,62.344444444444434,1211.25,61.93044871794871C1213.625,61.51645299145298,1216,61.10245726495726,1218.375,60.68846153846153C1220.75,60.274465811965804,1223.125,59.860470085470084,1225.5,59.446474358974356C1227.875,59.03247863247863,1230.25,58.61848290598291,1232.625,58.20448717948718C1235,57.79049145299145,1237.375,57.37649572649573,1239.75,56.962500000000006C1242.125,56.54850427350428,1244.5,56.134508547008544,1246.875,55.720512820512816C1249.25,55.30651709401709,1251.625,54.89252136752137,1254,54.47852564102564C1256.375,54.06452991452991,1258.75,53.65053418803419,1261.125,53.236538461538466C1263.5,52.82254273504274,1265.875,52.40854700854702,1268.25,51.99455128205129C1270.625,51.58055555555556,1273,51.16655982905983,1275.375,50.7525641025641C1277.75,50.33856837606837,1280.125,49.92457264957267,1282.5,49.51057692307694C1284.875,49.09658119658121,1287.25,48.682585470085456,1289.625,48.26858974358973C1292,47.854594017094,1294.375,47.4405982905983,1296.75,47.026602564102575C1299.125,46.61260683760685,1301.5,46.198611111111106,1303.875,45.78461538461538C1306.25,45.37061965811965,1308.625,44.95662393162393,1311,44.5426282051282C1313.375,44.128632478632476,1315.75,43.714636752136755,1318.125,43.30064102564103C1320.5,42.8866452991453,1322.875,42.472649572649566,1325.25,42.05865384615384C1327.625,41.64465811965811,1330,41.23066239316239,1332.375,40.81666666666666C1334.75,40.402670940170935,1337.125,39.988675213675215,1339.5,39.57467948717949C1341.875,39.16068376068376,1344.25,38.74668803418804,1346.625,38.33269230769231C1349,37.918696581196585,1351.375,37.504700854700864,1353.75,37.09070512820514C1356.125,36.67670940170941,1358.5,36.26271367521369,1360.875,35.84871794871796C1363.25,35.434722222222234,1365.625,35.02072649572648,1368,34.60673076923075C1370.375,34.19273504273502,1372.75,33.778739316239324,1375.125,33.3647435897436C1377.5,32.95074786324787,1379.875,32.53675213675213,1382.25,32.1227564102564C1384.625,31.708760683760676,1387,31.29476495726497,1389.375,30.880769230769246C1391.75,30.466773504273522,1394.125,30.052777777777784,1396.5,29.638782051282053C1398.875,29.224786324786322,1401.25,28.810790598290588,1403.625,28.39679487179486C1406,27.982799145299133,1408.375,27.56880341880341,1410.75,27.154807692307685C1413.125,26.74081196581196,1415.5,26.326816239316233,1417.875,25.91282051282051C1420.25,25.498824786324786,1422.625,25.084829059829058,1425,24.670833333333334" fill="transparent" stroke-linecap="round" stroke="#1AD4B3" stroke-width="2"></path><g class="visx-group visx-axis visx-axis-bottom" transform="translate(0, 155)"><g class="visx-group visx-axis-tick" transform="translate(0, 0)"><line class="visx-line" x1="0" y1="0" x2="0" y2="8" fill="transparent" shape-rendering="crispEdges" stroke="#F2F0F9" stroke-width="1" stroke-linecap="square"></line><svg x="0" y="0" font-size="11" style="overflow:visible"><text transform="" x="0" y="19" fill="#1B2030" font-size="11" text-anchor="middle"><tspan x="0" dy="0em">0%</tspan></text></svg></g><g class="visx-group visx-axis-tick" transform="translate(0, 0)"><line class="visx-line" x1="356.25" y1="0" x2="356.25" y2="8" fill="transparent" shape-rendering="crispEdges" stroke="#F2F0F9" stroke-width="1" stroke-linecap="square"></line><svg x="0" y="0" font-size="11" style="overflow:visible"><text transform="" x="356.25" y="19" fill="#1B2030" font-size="11" text-anchor="middle"><tspan x="356.25" dy="0em">25%</tspan></text></svg></g><g class="visx-group visx-axis-tick" transform="translate(0, 0)"><line class="visx-line" x1="712.5" y1="0" x2="712.5" y2="8" fill="transparent" shape-rendering="crispEdges" stroke="#F2F0F9" stroke-width="1" stroke-linecap="square"></line><svg x="0" y="0" font-size="11" style="overflow:visible"><text transform="" x="712.5" y="19" fill="#1B2030" font-size="11" text-anchor="middle"><tspan x="712.5" dy="0em">50%</tspan></text></svg></g><g class="visx-group visx-axis-tick" transform="translate(0, 0)"><line class="visx-line" x1="1068.75" y1="0" x2="1068.75" y2="8" fill="transparent" shape-rendering="crispEdges" stroke="#F2F0F9" stroke-width="1" stroke-linecap="square"></line><svg x="0" y="0" font-size="11" style="overflow:visible"><text transform="" x="1068.75" y="19" fill="#1B2030" font-size="11" text-anchor="middle"><tspan x="1068.75" dy="0em">75%</tspan></text></svg></g><g class="visx-group visx-axis-tick" transform="translate(0, 0)"><line class="visx-line" x1="1425" y1="0" x2="1425" y2="8" fill="transparent" shape-rendering="crispEdges" stroke="#F2F0F9" stroke-width="1" stroke-linecap="square"></line><svg x="0" y="0" font-size="11" style="overflow:visible"><text transform="" x="1425" y="19" fill="#1B2030" font-size="11" text-anchor="middle"><tspan x="1425" dy="0em">100%</tspan></text></svg></g></g><g class="visx-group visx-axis visx-axis-left" transform="translate(0, 0)"><g class="visx-group visx-axis-tick" transform="translate(0, 0)"><line class="visx-line" x1="0" y1="155" x2="-8" y2="155" fill="transparent" shape-rendering="crispEdges" stroke="#F2F0F9" stroke-width="1" stroke-linecap="square"></line><svg x="-30" y="0" font-size="11" style="overflow:visible"><text transform="" x="-8" y="155" fill="#1B2030" font-size="11" text-anchor="start"><tspan x="-8" dy="0em">0%</tspan></text></svg></g><g class="visx-group visx-axis-tick" transform="translate(0, 0)"><line class="visx-line" x1="0" y1="120.55555555555556" x2="-8" y2="120.55555555555556" fill="transparent" shape-rendering="crispEdges" stroke="#F2F0F9" stroke-width="1" stroke-linecap="square"></line><svg x="-30" y="0" font-size="11" style="overflow:visible"><text transform="" x="-8" y="120.55555555555556" fill="#1B2030" font-size="11" text-anchor="start"><tspan x="-8" dy="0em">200%</tspan></text></svg></g><g class="visx-group visx-axis-tick" transform="translate(0, 0)"><line class="visx-line" x1="0" y1="86.11111111111111" x2="-8" y2="86.11111111111111" fill="transparent" shape-rendering="crispEdges" stroke="#F2F0F9" stroke-width="1" stroke-linecap="square"></line><svg x="-30" y="0" font-size="11" style="overflow:visible"><text transform="" x="-8" y="86.11111111111111" fill="#1B2030" font-size="11" text-anchor="start"><tspan x="-8" dy="0em">400%</tspan></text></svg></g><g class="visx-group visx-axis-tick" transform="translate(0, 0)"><line class="visx-line" x1="0" y1="51.66666666666667" x2="-8" y2="51.66666666666667" fill="transparent" shape-rendering="crispEdges" stroke="#F2F0F9" stroke-width="1" stroke-linecap="square"></line><svg x="-30" y="0" font-size="11" style="overflow:visible"><text transform="" x="-8" y="51.66666666666667" fill="#1B2030" font-size="11" text-anchor="start"><tspan x="-8" dy="0em">600%</tspan></text></svg></g><g class="visx-group visx-axis-tick" transform="translate(0, 0)"><line class="visx-line" x1="0" y1="17.22222222222223" x2="-8" y2="17.22222222222223" fill="transparent" shape-rendering="crispEdges" stroke="#F2F0F9" stroke-width="1" stroke-linecap="square"></line><svg x="-30" y="0" font-size="11" style="overflow:visible"><text transform="" x="-8" y="17.22222222222223" fill="#1B2030" font-size="11" text-anchor="start"><tspan x="-8" dy="0em">800%</tspan></text></svg></g><line class="visx-line visx-axis-line" x1="0" y1="155.5" x2="0" y2="0.5" fill="transparent" shape-rendering="crispEdges" stroke="#F2F0F9" stroke-width="1"></line></g><rect class="visx-bar" width="1425" height="155" fill="transparent"></rect><line class="visx-line" x1="684" y1="58" x2="684" y2="155" fill="transparent" shape-rendering="crispEdges" stroke="#CDC8E1" stroke-width="1" pointer-events="none" stroke-dasharray="5"></line><svg x="0" y="0" font-size="11px" style="overflow:visible"><text transform="" x="684" y="50" font-size="11px" fill="#555069" stroke="#FFFFFF" stroke-width="1px" text-anchor="middle"><tspan x="684" dy="0.355em">uOptimal 48%</tspan></text></svg><svg x="0" y="0" font-size="11px" style="overflow:visible"><text transform="" x="684" y="50" font-size="11px" fill="#CDC8E1" text-anchor="middle"><tspan x="684" dy="0.355em">uOptimal 48%</tspan></text></svg></g></svg>