<?xml version="1.0"?><svg xmlns="http://www.w3.org/2000/svg" xmlns:xlink= "http://www.w3.org/1999/xlink" style="background: white;" width="1500" height="300"> <g style="color: black; font-size: 13px; font-family: sans-serif; transform: translate(18px, 25px);"><g><circle r="3" cx="-6" cy="-5" style="fill: #1AD4B3" /><text>Borrow APR, variable</text></g><g style="transform: translateX(150px);"><circle r="3" cx="-6" cy="-5" style="fill: #101423" /><text>Borrow APR, stable</text></g></g><g class="visx-group" transform="translate(45, 50)"><g class="visx-group visx-rows" transform="translate(0, 0)"><line class="visx-line" x1="0" y1="155" x2="1425" y2="155" fill="transparent" shape-rendering="crispEdges" stroke="#F2F0F9" stroke-width="1" pointer-events="none"></line><line class="visx-line" x1="0" y1="120.55555555555556" x2="1425" y2="120.55555555555556" fill="transparent" shape-rendering="crispEdges" stroke="#F2F0F9" stroke-width="1" pointer-events="none"></line><line class="visx-line" x1="0" y1="86.11111111111111" x2="1425" y2="86.11111111111111" fill="transparent" shape-rendering="crispEdges" stroke="#F2F0F9" stroke-width="1" pointer-events="none"></line><line class="visx-line" x1="0" y1="51.66666666666667" x2="1425" y2="51.66666666666667" fill="transparent" shape-rendering="crispEdges" stroke="#F2F0F9" stroke-width="1" pointer-events="none"></line><line class="visx-line" x1="0" y1="17.22222222222223" x2="1425" y2="17.22222222222223" fill="transparent" shape-rendering="crispEdges" stroke="#F2F0F9" stroke-width="1" pointer-events="none"></line></g><path class="visx-linepath" d="M0,154.99999999997956C2.375,154.99659143517326,4.75,154.99318287036698,7.125,154.98977430555556C9.5,154.98636574074413,11.875,154.98295717592592,14.25,154.9795486111111C16.625,154.9761400462963,19,154.97273148148147,21.375,154.96932291666667C23.75,154.96591435185186,26.125,154.96250578703703,28.5,154.95909722222223C30.875,154.95568865740742,33.25,154.9522800925926,35.625,154.94887152777778C38,154.94546296296298,40.375,154.94205439814814,42.75,154.93864583333334C45.125,154.93523726851853,47.50000000000001,154.9318287037037,49.87500000000001,154.9284201388889C52.25000000000001,154.9250115740741,54.625,154.92160300925926,57,154.91819444444445C59.375,154.91478587962965,61.75,154.9113773148148,64.125,154.90796875C66.5,154.9045601851852,68.875,154.9011516203704,71.25,154.89774305555557C73.625,154.89433449074073,76,154.8909259259259,78.375,154.8875173611111C80.75,154.8841087962963,83.125,154.88070023148148,85.5,154.87729166666668C87.875,154.87388310185187,90.25,154.870474537037,92.625,154.8670659722222C95,154.8636574074074,97.37500000000001,154.8602488425926,99.75000000000001,154.8568402777778C102.12500000000001,154.853431712963,104.5,154.85002314814815,106.875,154.84661458333335C109.25,154.84320601851852,111.625,154.83979745370368,114,154.83638888888888C116.375,154.83298032407407,118.75000000000001,154.82957175925927,121.12500000000001,154.82616319444446C123.50000000000001,154.82275462962966,125.875,154.8193460648148,128.25,154.8159375C130.625,154.81252893518516,133,154.80912037037035,135.375,154.80571180555555C137.75,154.80230324074074,140.125,154.7988946759259,142.5,154.7954861111111C144.875,154.7920775462963,147.25,154.78866898148146,149.625,154.78526041666666C152,154.78185185185185,154.375,154.77844328703702,156.75,154.77503472222222C159.125,154.7716261574074,161.5,154.76821759259258,163.875,154.76480902777777C166.25,154.76140046296297,168.625,154.75799189814813,171,154.75458333333333C173.375,154.75117476851852,175.75,154.7477662037037,178.125,154.74435763888889C180.5,154.74094907407408,182.875,154.73754050925925,185.25,154.73413194444444C187.625,154.73072337962964,190,154.7273148148148,192.375,154.72390625C194.75,154.7204976851852,197.12500000000003,154.71708912037036,199.50000000000003,154.71368055555556C201.875,154.71027199074075,204.25,154.70686342592592,206.62499999999997,154.7034548611111C208.99999999999997,154.7000462962963,211.375,154.69663773148147,213.75,154.69322916666667C216.125,154.68982060185186,218.5,154.68641203703703,220.875,154.68300347222223C223.25,154.67959490740742,225.625,154.6761863425926,228,154.67277777777778C230.375,154.66936921296298,232.75,154.66596064814814,235.125,154.66255208333334C237.5,154.65914351851853,239.87500000000003,154.6557349537037,242.25000000000003,154.6523263888889C244.625,154.6489178240741,247,154.64550925925926,249.37499999999997,154.64210069444445C251.74999999999997,154.63869212962965,254.125,154.6352835648148,256.5,154.631875C258.875,154.6284664351852,261.25,154.62505787037037,263.625,154.62164930555556C266,154.61824074074076,268.375,154.61483217592593,270.75,154.61142361111112C273.125,154.60801504629632,275.5,154.60460648148145,277.875,154.60119791666665C280.25,154.59778935185184,282.625,154.59438078703704,285,154.59097222222223C287.375,154.58756365740743,289.75,154.5841550925926,292.125,154.58074652777776C294.5,154.57733796296293,296.875,154.57392939814812,299.25,154.57052083333332C301.625,154.5671122685185,304,154.5637037037037,306.375,154.5602951388889C308.75,154.5568865740741,311.125,154.55347800925924,313.5,154.55006944444443C315.875,154.54666087962963,318.25,154.54325231481482,320.625,154.53984375000002C323,154.5364351851852,325.375,154.53302662037038,327.75,154.52961805555555C330.125,154.5262094907407,332.5,154.5228009259259,334.875,154.5193923611111C337.25,154.5159837962963,339.625,154.51257523148146,342,154.50916666666666C344.375,154.50575810185185,346.75,154.50234953703702,349.125,154.49894097222221C351.5,154.4955324074074,353.875,154.49212384259258,356.25,154.48871527777777C358.625,154.48530671296297,361,154.48189814814813,363.375,154.47848958333333C365.75,154.47508101851852,368.125,154.4716724537037,370.5,154.46826388888888C372.875,154.46485532407408,375.25,154.46144675925925,377.625,154.45803819444444C380,154.45462962962964,382.375,154.4512210648148,384.75,154.4478125C387.125,154.4444039351852,389.50000000000006,154.44099537037036,391.87500000000006,154.43758680555555C394.25000000000006,154.43417824074075,396.62500000000006,154.43076967592592,399.00000000000006,154.4273611111111C401.375,154.4239525462963,403.75,154.42054398148147,406.12499999999994,154.41713541666667C408.49999999999994,154.41372685185186,410.87499999999994,154.41031828703703,413.24999999999994,154.40690972222222C415.62499999999994,154.40350115740742,418,154.40009259259259,420.375,154.39668402777778C422.75,154.39327546296298,425.125,154.38986689814814,427.5,154.38645833333334C429.875,154.38304976851853,432.25,154.3796412037037,434.625,154.3762326388889C437,154.3728240740741,439.375,154.36941550925926,441.75,154.36600694444445C444.125,154.36259837962965,446.5,154.3591898148148,448.875,154.35578125C451.25,154.3523726851852,453.625,154.34896412037037,456,154.34555555555556C458.375,154.34214699074076,460.75,154.33873842592592,463.125,154.33532986111112C465.5,154.33192129629631,467.875,154.32851273148148,470.25,154.32510416666668C472.625,154.32169560185184,475.00000000000006,154.318287037037,477.37500000000006,154.3148784722222C479.75000000000006,154.3114699074074,482.12500000000006,154.3080613425926,484.50000000000006,154.3046527777778C486.875,154.30124421296298,489.25,154.29783564814812,491.62499999999994,154.29442708333332C493.99999999999994,154.2910185185185,496.37499999999994,154.2876099537037,498.74999999999994,154.2842013888889C501.12499999999994,154.2807928240741,503.5,154.2773842592593,505.875,154.27397569444446C508.25,154.27056712962965,510.625,154.2671585648148,513,154.26375C515.375,154.26034143518518,517.75,154.25693287037038,520.125,154.25352430555557C522.5,154.25011574074077,524.875,154.2467071759259,527.25,154.2432986111111C529.625,154.2398900462963,532,154.23648148148146,534.375,154.23307291666666C536.75,154.22966435185185,539.125,154.22625578703702,541.5,154.2228472222222C543.875,154.2194386574074,546.25,154.21603009259258,548.625,154.21262152777777C551,154.20921296296297,553.375,154.20580439814813,555.75,154.20239583333333C558.125,154.19898726851852,560.5,154.1955787037037,562.875,154.19217013888888C565.25,154.18876157407408,567.625,154.18876157407408,570,154.18194444444444C572.375,154.1751273148148,574.75,153.46435185185186,577.125,153.10555555555555C579.5,152.74675925925925,581.875,152.38796296296297,584.25,152.02916666666667C586.625,151.67037037037036,589,151.3115740740741,591.375,150.95277777777778C593.75,150.59398148148148,596.125,150.2351851851852,598.5,149.8763888888889C600.875,149.5175925925926,603.25,149.1587962962963,605.625,148.79999999999998C608,148.44120370370368,610.375,148.0824074074074,612.75,147.7236111111111C615.125,147.3648148148148,617.5,147.00601851851852,619.875,146.6472222222222C622.25,146.2884259259259,624.625,145.92962962962963,627,145.57083333333333C629.375,145.21203703703702,631.75,144.85324074074074,634.125,144.49444444444444C636.5,144.13564814814814,638.875,143.77685185185186,641.25,143.41805555555555C643.625,143.05925925925925,646,142.70046296296297,648.375,142.34166666666667C650.75,141.98287037037036,653.125,141.6240740740741,655.5,141.26527777777778C657.875,140.90648148148148,660.25,140.54768518518517,662.625,140.18888888888887C665,139.83009259259256,667.375,139.4712962962963,669.75,139.11249999999998C672.125,138.75370370370368,674.5,138.3949074074074,676.875,138.0361111111111C679.25,137.6773148148148,681.625,137.31851851851852,684,136.9597222222222C686.375,136.6009259259259,688.75,136.24212962962963,691.125,135.88333333333333C693.5,135.52453703703702,695.875,135.16574074074074,698.25,134.80694444444444C700.625,134.44814814814814,703,134.08935185185186,705.375,133.73055555555555C707.75,133.37175925925925,710.125,133.01296296296297,712.5,132.65416666666667C714.875,132.29537037037036,717.25,131.9365740740741,719.625,131.57777777777778C722,131.21898148148148,724.375,130.86018518518517,726.75,130.50138888888887C729.125,130.14259259259256,731.5,129.7837962962963,733.875,129.42499999999998C736.25,129.06620370370368,738.625,128.7074074074074,741,128.3486111111111C743.375,127.9898148148148,745.75,127.63101851851852,748.125,127.27222222222223C750.5,126.91342592592594,752.875,126.55462962962963,755.25,126.19583333333334C757.625,125.83703703703705,760,125.47824074074074,762.375,125.11944444444445C764.75,124.76064814814816,767.125,124.40185185185184,769.5,124.04305555555555C771.875,123.68425925925925,774.2500000000001,123.32546296296297,776.6250000000001,122.96666666666667C779.0000000000001,122.60787037037038,781.3750000000001,122.24907407407409,783.7500000000001,121.89027777777778C786.1250000000001,121.53148148148148,788.5000000000001,121.17268518518517,790.8750000000001,120.81388888888888C793.2500000000001,120.45509259259259,795.6250000000001,120.0962962962963,798.0000000000001,119.7375C800.375,119.3787037037037,802.75,119.0199074074074,805.1249999999999,118.66111111111111C807.4999999999999,118.3023148148148,809.8749999999999,117.94351851851852,812.2499999999999,117.58472222222223C814.6249999999999,117.22592592592594,816.9999999999999,116.86712962962963,819.3749999999999,116.50833333333334C821.7499999999999,116.14953703703705,824.1249999999999,115.79074074074074,826.4999999999999,115.43194444444445C828.8749999999999,115.07314814814815,831.25,114.71435185185186,833.625,114.35555555555555C836,113.99675925925926,838.375,113.63796296296296,840.75,113.27916666666667C843.125,112.92037037037038,845.5,112.56157407407409,847.875,112.20277777777778C850.25,111.84398148148148,852.625,111.48518518518517,855,111.12638888888888C857.375,110.76759259259259,859.75,110.40879629629629,862.125,110.05C864.5,109.6912037037037,866.875,109.3324074074074,869.25,108.97361111111111C871.625,108.61481481481482,874,108.25601851851852,876.375,107.89722222222223C878.75,107.53842592592594,881.125,107.17962962962963,883.5,106.82083333333334C885.875,106.46203703703705,888.25,106.10324074074074,890.625,105.74444444444445C893,105.38564814814816,895.375,105.02685185185186,897.75,104.66805555555555C900.125,104.30925925925925,902.5,103.95046296296296,904.875,103.59166666666667C907.25,103.23287037037038,909.625,102.87407407407409,912,102.51527777777778C914.375,102.15648148148148,916.75,101.79768518518517,919.125,101.43888888888888C921.5,101.08009259259259,923.875,100.72129629629629,926.25,100.3625C928.625,100.0037037037037,931,99.6449074074074,933.375,99.28611111111111C935.75,98.92731481481482,938.125,98.56851851851852,940.5,98.20972222222223C942.875,97.85092592592594,945.25,97.49212962962963,947.625,97.13333333333334C950,96.77453703703704,952.3750000000001,96.41574074074076,954.7500000000001,96.05694444444445C957.1250000000001,95.69814814814816,959.5000000000001,95.33935185185186,961.8750000000001,94.98055555555555C964.2500000000001,94.62175925925925,966.6250000000001,94.26296296296296,969.0000000000001,93.90416666666667C971.3750000000001,93.54537037037038,973.7500000000001,93.18657407407409,976.1250000000001,92.82777777777778C978.5,92.46898148148149,980.875,92.11018518518517,983.2499999999999,91.75138888888888C985.6249999999999,91.39259259259258,987.9999999999999,91.03379629629629,990.3749999999999,90.675C992.7499999999999,90.3162037037037,995.1249999999999,89.9574074074074,997.4999999999999,89.59861111111111C999.8749999999999,89.23981481481482,1002.2499999999999,88.88101851851852,1004.6249999999999,88.52222222222223C1006.9999999999999,88.16342592592592,1009.375,87.80462962962964,1011.75,87.44583333333334C1014.125,87.08703703703705,1016.5,86.72824074074076,1018.875,86.36944444444445C1021.25,86.01064814814815,1023.625,85.65185185185184,1026,85.29305555555554C1028.375,84.93425925925924,1030.75,84.57546296296294,1033.125,84.21666666666665C1035.5,83.85787037037036,1037.875,83.49907407407406,1040.25,83.14027777777777C1042.625,82.78148148148148,1045,82.42268518518517,1047.375,82.06388888888888C1049.75,81.70509259259259,1052.125,81.34629629629629,1054.5,80.9875C1056.875,80.6287037037037,1059.25,80.2699074074074,1061.625,79.91111111111111C1064,79.55231481481482,1066.375,79.19351851851852,1068.75,78.83472222222223C1071.125,78.47592592592594,1073.5,78.11712962962963,1075.875,77.75833333333333C1078.25,77.39953703703702,1080.625,77.04074074074073,1083,76.68194444444444C1085.375,76.32314814814815,1087.75,75.96435185185186,1090.125,75.60555555555555C1092.5,75.24675925925925,1094.875,74.88796296296294,1097.25,74.52916666666665C1099.625,74.17037037037036,1102,73.81157407407406,1104.375,73.45277777777777C1106.75,73.09398148148148,1109.125,72.73518518518517,1111.5,72.37638888888888C1113.875,72.01759259259259,1116.25,71.65879629629629,1118.625,71.3C1121,70.9412037037037,1123.375,70.5824074074074,1125.75,70.22361111111111C1128.125,69.86481481481482,1130.5,69.50601851851852,1132.875,69.14722222222221C1135.25,68.7884259259259,1137.625,68.42962962962962,1140,68.07083333333333C1142.375,67.71203703703704,1144.75,67.35324074074073,1147.125,66.99444444444444C1149.5,66.63564814814815,1151.875,66.27685185185184,1154.25,65.91805555555555C1156.625,65.55925925925926,1159,65.20046296296296,1161.375,64.84166666666667C1163.75,64.48287037037038,1166.125,64.12407407407407,1168.5,63.76527777777778C1170.875,63.406481481481485,1173.25,63.047685185185195,1175.625,62.6888888888889C1178,62.3300925925926,1180.375,61.971296296296295,1182.75,61.6125C1185.125,61.2537037037037,1187.5,60.89490740740741,1189.875,60.53611111111111C1192.25,60.177314814814814,1194.625,59.81851851851852,1197,59.459722222222226C1199.375,59.10092592592593,1201.75,58.74212962962964,1204.125,58.38333333333334C1206.5,58.02453703703704,1208.875,57.66574074074074,1211.25,57.30694444444444C1213.625,56.94814814814814,1216,56.58935185185185,1218.375,56.230555555555554C1220.75,55.87175925925926,1223.125,55.512962962962966,1225.5,55.15416666666667C1227.875,54.79537037037037,1230.25,54.43657407407408,1232.625,54.07777777777778C1235,53.718981481481485,1237.375,53.360185185185195,1239.75,53.0013888888889C1242.125,52.6425925925926,1244.5,52.283796296296295,1246.875,51.925C1249.25,51.5662037037037,1251.625,51.20740740740741,1254,50.84861111111111C1256.375,50.489814814814814,1258.75,50.13101851851852,1261.125,49.772222222222226C1263.5,49.41342592592593,1265.875,49.05462962962964,1268.25,48.69583333333334C1270.625,48.33703703703704,1273,47.97824074074074,1275.375,47.61944444444444C1277.75,47.26064814814814,1280.125,46.90185185185185,1282.5,46.543055555555554C1284.875,46.18425925925926,1287.25,45.825462962962966,1289.625,45.46666666666667C1292,45.10787037037037,1294.375,44.74907407407408,1296.75,44.39027777777778C1299.125,44.031481481481485,1301.5,43.672685185185195,1303.875,43.3138888888889C1306.25,42.9550925925926,1308.625,42.596296296296295,1311,42.2375C1313.375,41.8787037037037,1315.75,41.51990740740741,1318.125,41.16111111111111C1320.5,40.802314814814814,1322.875,40.44351851851852,1325.25,40.084722222222226C1327.625,39.72592592592593,1330,39.36712962962964,1332.375,39.00833333333334C1334.75,38.64953703703704,1337.125,38.29074074074074,1339.5,37.93194444444444C1341.875,37.57314814814814,1344.25,37.21435185185185,1346.625,36.855555555555554C1349,36.49675925925926,1351.375,36.137962962962966,1353.75,35.77916666666667C1356.125,35.42037037037037,1358.5,35.06157407407408,1360.875,34.70277777777778C1363.25,34.343981481481485,1365.625,33.985185185185195,1368,33.6263888888889C1370.375,33.2675925925926,1372.75,32.908796296296295,1375.125,32.55C1377.5,32.1912037037037,1379.875,31.832407407407402,1382.25,31.473611111111108C1384.625,31.114814814814814,1387,30.75601851851852,1389.375,30.397222222222226C1391.75,30.03842592592593,1394.125,29.679629629629638,1396.5,29.32083333333334C1398.875,28.962037037037042,1401.25,28.603240740740734,1403.625,28.244444444444436C1406,27.88564814814814,1408.375,27.526851851851845,1410.75,27.16805555555555C1413.125,26.809259259259257,1415.5,26.450462962962963,1417.875,26.09166666666667C1420.25,25.732870370370375,1422.625,25.374074074074077,1425,25.015277777777783" fill="transparent" stroke-linecap="round" stroke="#1AD4B3" stroke-width="2"></path><g class="visx-group visx-axis visx-axis-bottom" transform="translate(0, 155)"><g class="visx-group visx-axis-tick" transform="translate(0, 0)"><line class="visx-line" x1="0" y1="0" x2="0" y2="8" fill="transparent" shape-rendering="crispEdges" stroke="#F2F0F9" stroke-width="1" stroke-linecap="square"></line><svg x="0" y="0" font-size="11" style="overflow:visible"><text transform="" x="0" y="19" fill="#1B2030" font-size="11" text-anchor="middle"><tspan x="0" dy="0em">0%</tspan></text></svg></g><g class="visx-group visx-axis-tick" transform="translate(0, 0)"><line class="visx-line" x1="356.25" y1="0" x2="356.25" y2="8" fill="transparent" shape-rendering="crispEdges" stroke="#F2F0F9" stroke-width="1" stroke-linecap="square"></line><svg x="0" y="0" font-size="11" style="overflow:visible"><text transform="" x="356.25" y="19" fill="#1B2030" font-size="11" text-anchor="middle"><tspan x="356.25" dy="0em">25%</tspan></text></svg></g><g class="visx-group visx-axis-tick" transform="translate(0, 0)"><line class="visx-line" x1="712.5" y1="0" x2="712.5" y2="8" fill="transparent" shape-rendering="crispEdges" stroke="#F2F0F9" stroke-width="1" stroke-linecap="square"></line><svg x="0" y="0" font-size="11" style="overflow:visible"><text transform="" x="712.5" y="19" fill="#1B2030" font-size="11" text-anchor="middle"><tspan x="712.5" dy="0em">50%</tspan></text></svg></g><g class="visx-group visx-axis-tick" transform="translate(0, 0)"><line class="visx-line" x1="1068.75" y1="0" x2="1068.75" y2="8" fill="transparent" shape-rendering="crispEdges" stroke="#F2F0F9" stroke-width="1" stroke-linecap="square"></line><svg x="0" y="0" font-size="11" style="overflow:visible"><text transform="" x="1068.75" y="19" fill="#1B2030" font-size="11" text-anchor="middle"><tspan x="1068.75" dy="0em">75%</tspan></text></svg></g><g class="visx-group visx-axis-tick" transform="translate(0, 0)"><line class="visx-line" x1="1425" y1="0" x2="1425" y2="8" fill="transparent" shape-rendering="crispEdges" stroke="#F2F0F9" stroke-width="1" stroke-linecap="square"></line><svg x="0" y="0" font-size="11" style="overflow:visible"><text transform="" x="1425" y="19" fill="#1B2030" font-size="11" text-anchor="middle"><tspan x="1425" dy="0em">100%</tspan></text></svg></g></g><g class="visx-group visx-axis visx-axis-left" transform="translate(0, 0)"><g class="visx-group visx-axis-tick" transform="translate(0, 0)"><line class="visx-line" x1="0" y1="155" x2="-8" y2="155" fill="transparent" shape-rendering="crispEdges" stroke="#F2F0F9" stroke-width="1" stroke-linecap="square"></line><svg x="-30" y="0" font-size="11" style="overflow:visible"><text transform="" x="-8" y="155" fill="#1B2030" font-size="11" text-anchor="start"><tspan x="-8" dy="0em">0%</tspan></text></svg></g><g class="visx-group visx-axis-tick" transform="translate(0, 0)"><line class="visx-line" x1="0" y1="120.55555555555556" x2="-8" y2="120.55555555555556" fill="transparent" shape-rendering="crispEdges" stroke="#F2F0F9" stroke-width="1" stroke-linecap="square"></line><svg x="-30" y="0" font-size="11" style="overflow:visible"><text transform="" x="-8" y="120.55555555555556" fill="#1B2030" font-size="11" text-anchor="start"><tspan x="-8" dy="0em">200%</tspan></text></svg></g><g class="visx-group visx-axis-tick" transform="translate(0, 0)"><line class="visx-line" x1="0" y1="86.11111111111111" x2="-8" y2="86.11111111111111" fill="transparent" shape-rendering="crispEdges" stroke="#F2F0F9" stroke-width="1" stroke-linecap="square"></line><svg x="-30" y="0" font-size="11" style="overflow:visible"><text transform="" x="-8" y="86.11111111111111" fill="#1B2030" font-size="11" text-anchor="start"><tspan x="-8" dy="0em">400%</tspan></text></svg></g><g class="visx-group visx-axis-tick" transform="translate(0, 0)"><line class="visx-line" x1="0" y1="51.66666666666667" x2="-8" y2="51.66666666666667" fill="transparent" shape-rendering="crispEdges" stroke="#F2F0F9" stroke-width="1" stroke-linecap="square"></line><svg x="-30" y="0" font-size="11" style="overflow:visible"><text transform="" x="-8" y="51.66666666666667" fill="#1B2030" font-size="11" text-anchor="start"><tspan x="-8" dy="0em">600%</tspan></text></svg></g><g class="visx-group visx-axis-tick" transform="translate(0, 0)"><line class="visx-line" x1="0" y1="17.22222222222223" x2="-8" y2="17.22222222222223" fill="transparent" shape-rendering="crispEdges" stroke="#F2F0F9" stroke-width="1" stroke-linecap="square"></line><svg x="-30" y="0" font-size="11" style="overflow:visible"><text transform="" x="-8" y="17.22222222222223" fill="#1B2030" font-size="11" text-anchor="start"><tspan x="-8" dy="0em">800%</tspan></text></svg></g><line class="visx-line visx-axis-line" x1="0" y1="155.5" x2="0" y2="0.5" fill="transparent" shape-rendering="crispEdges" stroke="#F2F0F9" stroke-width="1"></line></g><rect class="visx-bar" width="1425" height="155" fill="transparent"></rect><line class="visx-line" x1="570" y1="58" x2="570" y2="155" fill="transparent" shape-rendering="crispEdges" stroke="#CDC8E1" stroke-width="1" pointer-events="none" stroke-dasharray="5"></line><svg x="0" y="0" font-size="11px" style="overflow:visible"><text transform="" x="570" y="50" font-size="11px" fill="#555069" stroke="#FFFFFF" stroke-width="1px" text-anchor="middle"><tspan x="570" dy="0.355em">uOptimal 40%</tspan></text></svg><svg x="0" y="0" font-size="11px" style="overflow:visible"><text transform="" x="570" y="50" font-size="11px" fill="#CDC8E1" text-anchor="middle"><tspan x="570" dy="0.355em">uOptimal 40%</tspan></text></svg></g></svg>