<?xml version="1.0"?><svg xmlns="http://www.w3.org/2000/svg" xmlns:xlink= "http://www.w3.org/1999/xlink" style="background: white;" width="1500" height="300"> <g style="color: black; font-size: 13px; font-family: sans-serif; transform: translate(18px, 25px);"><g><circle r="3" cx="-6" cy="-5" style="fill: #1AD4B3" /><text>Borrow APR, variable</text></g><g style="transform: translateX(150px);"><circle r="3" cx="-6" cy="-5" style="fill: #101423" /><text>Borrow APR, stable</text></g></g><g class="visx-group" transform="translate(45, 50)"><g class="visx-group visx-rows" transform="translate(0, 0)"><line class="visx-line" x1="0" y1="155" x2="1425" y2="155" fill="transparent" shape-rendering="crispEdges" stroke="#F2F0F9" stroke-width="1" pointer-events="none"></line><line class="visx-line" x1="0" y1="120.55555555555556" x2="1425" y2="120.55555555555556" fill="transparent" shape-rendering="crispEdges" stroke="#F2F0F9" stroke-width="1" pointer-events="none"></line><line class="visx-line" x1="0" y1="86.11111111111111" x2="1425" y2="86.11111111111111" fill="transparent" shape-rendering="crispEdges" stroke="#F2F0F9" stroke-width="1" pointer-events="none"></line><line class="visx-line" x1="0" y1="51.66666666666667" x2="1425" y2="51.66666666666667" fill="transparent" shape-rendering="crispEdges" stroke="#F2F0F9" stroke-width="1" pointer-events="none"></line><line class="visx-line" x1="0" y1="17.22222222222223" x2="1425" y2="17.22222222222223" fill="transparent" shape-rendering="crispEdges" stroke="#F2F0F9" stroke-width="1" pointer-events="none"></line></g><path class="visx-linepath" d="M0,154.9999999999779C2.375,154.99631506505216,4.75,154.99263013012643,7.125,154.98894519519519C9.5,154.98526026026394,11.875,154.98157532532534,14.25,154.9778903903904C16.625,154.97420545545546,19,154.97052052052052,21.375,154.96683558558559C23.75,154.96315065065065,26.125,154.9594657157157,28.5,154.95578078078077C30.875,154.95209584584583,33.25,154.94841091091092,35.625,154.94472597597598C38,154.94104104104105,40.375,154.9373561061061,42.75,154.93367117117117C45.125,154.92998623623623,47.50000000000001,154.9263013013013,49.87500000000001,154.92261636636636C52.25000000000001,154.91893143143142,54.625,154.9152464964965,57,154.91156156156157C59.375,154.90787662662663,61.75,154.9041916916917,64.125,154.90050675675676C66.5,154.89682182182182,68.875,154.8931368868869,71.25,154.88945195195197C73.625,154.88576701701703,76,154.8820820820821,78.375,154.87839714714715C80.75,154.87471221221222,83.125,154.87102727727728,85.5,154.86734234234234C87.875,154.8636574074074,90.25,154.85997247247246,92.625,154.85628753753753C95,154.8526026026026,97.37500000000001,154.84891766766768,99.75000000000001,154.84523273273274C102.12500000000001,154.8415477977978,104.5,154.83786286286286,106.875,154.83417792792793C109.25,154.830492992993,111.625,154.82680805805805,114,154.8231231231231C116.375,154.81943818818817,118.75000000000001,154.81575325325326,121.12500000000001,154.81206831831832C123.50000000000001,154.8083833833834,125.875,154.80469844844845,128.25,154.8010135135135C130.625,154.79732857857857,133,154.79364364364366,135.375,154.78995870870872C137.75,154.7862737737738,140.125,154.78258883883885,142.5,154.7789039039039C144.875,154.77521896896897,147.25,154.77153403403403,149.625,154.7678490990991C152,154.76416416416416,154.375,154.76047922922925,156.75,154.7567942942943C159.125,154.75310935935937,161.5,154.74942442442443,163.875,154.7457394894895C166.25,154.74205455455456,168.625,154.73836961961962,171,154.73468468468468C173.375,154.73099974974974,175.75,154.7273148148148,178.125,154.72362987987987C180.5,154.71994494494493,182.875,154.71626001001002,185.25,154.71257507507508C187.625,154.70889014014014,190,154.7052052052052,192.375,154.70152027027027C194.75,154.69783533533533,197.12500000000003,154.69415040040042,199.50000000000003,154.69046546546548C201.875,154.68678053053054,204.25,154.6830955955956,206.62499999999997,154.67941066066066C208.99999999999997,154.67572572572573,211.375,154.6720407907908,213.75,154.66835585585585C216.125,154.6646709209209,218.5,154.660985985986,220.875,154.65730105105106C223.25,154.65361611611613,225.625,154.6499311811812,228,154.64624624624625C230.375,154.6425613113113,232.75,154.63887637637637,235.125,154.63519144144144C237.5,154.6315065065065,239.87500000000003,154.62782157157156,242.25000000000003,154.62413663663662C244.625,154.62045170170168,247,154.61676676676677,249.37499999999997,154.61308183183183C251.74999999999997,154.6093968968969,254.125,154.60571196196196,256.5,154.60202702702702C258.875,154.59834209209208,261.25,154.59465715715717,263.625,154.59097222222223C266,154.5872872872873,268.375,154.58360235235236,270.75,154.57991741741742C273.125,154.57623248248248,275.5,154.57254754754754,277.875,154.5688626126126C280.25,154.56517767767767,282.625,154.56149274274276,285,154.55780780780782C287.375,154.55412287287288,289.75,154.55043793793794,292.125,154.546753003003C294.5,154.54306806806807,296.875,154.53938313313313,299.25,154.5356981981982C301.625,154.53201326326325,304,154.5283283283283,306.375,154.52464339339338C308.75,154.52095845845844,311.125,154.51727352352353,313.5,154.5135885885886C315.875,154.50990365365365,318.25,154.5062187187187,320.625,154.50253378378378C323,154.49884884884884,325.375,154.49516391391393,327.75,154.491478978979C330.125,154.48779404404405,332.5,154.4841091091091,334.875,154.48042417417417C337.25,154.47673923923924,339.625,154.47305430430433,342,154.4693693693694C344.375,154.46568443443445,346.75,154.4619994994995,349.125,154.45831456456457C351.5,154.45462962962964,353.875,154.4509446946947,356.25,154.44725975975976C358.625,154.44357482482482,361,154.43988988988988,363.375,154.43620495495495C365.75,154.43252002002,368.125,154.42883508508507,370.5,154.42515015015013C372.875,154.4214652152152,375.25,154.41778028028028,377.625,154.41409534534534C380,154.4104104104104,382.375,154.40672547547547,384.75,154.40304054054053C387.125,154.3993556056056,389.50000000000006,154.39567067067068,391.87500000000006,154.39198573573574C394.25000000000006,154.3883008008008,396.62500000000006,154.38461586586587,399.00000000000006,154.38093093093093C401.375,154.377245995996,403.75,154.37356106106108,406.12499999999994,154.36987612612614C408.49999999999994,154.3661911911912,410.87499999999994,154.36250625625627,413.24999999999994,154.35882132132133C415.62499999999994,154.3551363863864,418,154.35145145145145,420.375,154.34776651651651C422.75,154.34408158158158,425.125,154.34039664664664,427.5,154.3367117117117C429.875,154.33302677677676,432.25,154.32934184184185,434.625,154.32565690690691C437,154.32197197197198,439.375,154.31828703703704,441.75,154.3146021021021C444.125,154.31091716716716,446.5,154.30723223223222,448.875,154.30354729729729C451.25,154.29986236236235,453.625,154.29617742742744,456,154.2924924924925C458.375,154.28880755755756,460.75,154.28512262262262,463.125,154.28143768768768C465.5,154.27775275275275,467.875,154.27406781781784,470.25,154.2703828828829C472.625,154.26669794794796,475.00000000000006,154.26301301301302,477.37500000000006,154.25932807807808C479.75000000000006,154.25564314314315,482.12500000000006,154.2519582082082,484.50000000000006,154.24827327327327C486.875,154.24458833833833,489.25,154.2409034034034,491.62499999999994,154.23721846846846C493.99999999999994,154.23353353353352,496.37499999999994,154.2298485985986,498.74999999999994,154.22616366366367C501.12499999999994,154.22247872872873,503.5,154.2187937937938,505.875,154.21510885885886C508.25,154.21142392392392,510.625,154.207738988989,513,154.20405405405407C515.375,154.20036911911913,517.75,154.1966841841842,520.125,154.19299924924925C522.5,154.18931431431432,524.875,154.18931431431432,527.25,154.18194444444444C529.625,154.17457457457456,532,153.4985229276896,534.375,153.1568121693122C536.75,152.81510141093477,539.125,152.47339065255733,541.5,152.1316798941799C543.875,151.7899691358025,546.25,151.44825837742505,548.625,151.10654761904763C551,150.76483686067021,553.375,150.42312610229277,555.75,150.08141534391535C558.125,149.73970458553794,560.5,149.3979938271605,562.875,149.05628306878307C565.25,148.71457231040566,567.625,148.3728615520282,570,148.0311507936508C572.375,147.68944003527338,574.75,147.34772927689593,577.125,147.00601851851852C579.5,146.6643077601411,581.875,146.32259700176365,584.25,145.98088624338624C586.625,145.63917548500882,589,145.2974647266314,591.375,144.955753968254C593.75,144.61404320987657,596.125,144.27233245149912,598.5,143.9306216931217C600.875,143.5889109347443,603.25,143.24720017636685,605.625,142.90548941798943C608,142.563778659612,610.375,142.22206790123457,612.75,141.88035714285715C615.125,141.53864638447973,617.5,141.1969356261023,619.875,140.85522486772487C622.25,140.51351410934745,624.625,140.17180335097,627,139.8300925925926C629.375,139.48838183421518,631.75,139.14667107583773,634.125,138.8049603174603C636.5,138.4632495590829,638.875,138.12153880070545,641.25,137.77982804232803C643.625,137.43811728395062,646,137.09640652557317,648.375,136.75469576719576C650.75,136.41298500881834,653.125,136.07127425044092,655.5,135.7295634920635C657.875,135.3878527336861,660.25,135.04614197530864,662.625,134.70443121693123C665,134.3627204585538,667.375,134.02100970017636,669.75,133.67929894179895C672.125,133.33758818342153,674.5,132.99587742504409,676.875,132.65416666666667C679.25,132.31245590828925,681.625,131.9707451499118,684,131.6290343915344C686.375,131.28732363315697,688.75,130.94561287477953,691.125,130.6039021164021C693.5,130.2621913580247,695.875,129.92048059964725,698.25,129.57876984126983C700.625,129.23705908289242,703,128.895348324515,705.375,128.55363756613758C707.75,128.21192680776016,710.125,127.8702160493827,712.5,127.52850529100527C714.875,127.18679453262784,717.25,126.84508377425044,719.625,126.50337301587302C722,126.1616622574956,724.375,125.81995149911818,726.75,125.47824074074074C729.125,125.13652998236331,731.5,124.7948192239859,733.875,124.45310846560847C736.25,124.11139770723103,738.625,123.76968694885362,741,123.42797619047619C743.375,123.08626543209876,745.75,122.74455467372134,748.125,122.40284391534391C750.5,122.06113315696648,752.875,121.71942239858906,755.25,121.37771164021163C757.625,121.0360008818342,760,120.69429012345677,762.375,120.35257936507935C764.75,120.01086860670193,767.125,119.66915784832452,769.5,119.3274470899471C771.875,118.98573633156967,774.2500000000001,118.64402557319224,776.6250000000001,118.3023148148148C779.0000000000001,117.96060405643739,781.3750000000001,117.61889329805996,783.7500000000001,117.27718253968254C786.1250000000001,116.93547178130513,788.5000000000001,116.5937610229277,790.8750000000001,116.25205026455026C793.2500000000001,115.91033950617283,795.6250000000001,115.56862874779542,798.0000000000001,115.22691798941798C800.375,114.88520723104057,802.75,114.54349647266312,805.1249999999999,114.2017857142857C807.4999999999999,113.86007495590827,809.8749999999999,113.51836419753087,812.2499999999999,113.17665343915344C814.6249999999999,112.83494268077601,816.9999999999999,112.49323192239859,819.3749999999999,112.15152116402116C821.7499999999999,111.80981040564373,824.1249999999999,111.4680996472663,826.4999999999999,111.12638888888888C828.8749999999999,110.78467813051145,831.25,110.44296737213405,833.625,110.10125661375662C836,109.7595458553792,838.375,109.41783509700177,840.75,109.07612433862434C843.125,108.73441358024691,845.5,108.39270282186949,847.875,108.05099206349206C850.25,107.70928130511463,852.625,107.3675705467372,855,107.02585978835978C857.375,106.68414902998236,859.75,106.34243827160495,862.125,106.00072751322752C864.5,105.65901675485009,866.875,105.31730599647267,869.25,104.97559523809524C871.625,104.6338844797178,874,104.29217372134039,876.375,103.95046296296296C878.75,103.60875220458553,881.125,103.26704144620813,883.5,102.9253306878307C885.875,102.58361992945326,888.25,102.24190917107583,890.625,101.9001984126984C893,101.55848765432097,895.375,101.21677689594355,897.75,100.87506613756614C900.125,100.53335537918872,902.5,100.19164462081127,904.875,99.84993386243386C907.25,99.50822310405644,909.625,99.16651234567901,912,98.8248015873016C914.375,98.48309082892418,916.75,98.14138007054676,919.125,97.79966931216933C921.5,97.4579585537919,923.875,97.11624779541447,926.25,96.77453703703704C928.625,96.4328262786596,931,96.0911155202822,933.375,95.74940476190477C935.75,95.40769400352734,938.125,95.06598324514991,940.5,94.72427248677248C942.875,94.38256172839505,945.25,94.04085097001763,947.625,93.69914021164021C950,93.35742945326278,952.3750000000001,93.01571869488535,954.7500000000001,92.67400793650792C957.1250000000001,92.3322971781305,959.5000000000001,91.99058641975309,961.8750000000001,91.64887566137567C964.2500000000001,91.30716490299825,966.6250000000001,90.96545414462082,969.0000000000001,90.62374338624339C971.3750000000001,90.28203262786596,973.7500000000001,89.94032186948854,976.1250000000001,89.59861111111111C978.5,89.2569003527337,980.875,88.91518959435625,983.2499999999999,88.57347883597883C985.6249999999999,88.2317680776014,987.9999999999999,87.89005731922398,990.3749999999999,87.54834656084655C992.7499999999999,87.20663580246912,995.1249999999999,86.8649250440917,997.4999999999999,86.52321428571427C999.8749999999999,86.18150352733684,1002.2499999999999,85.83979276895941,1004.6249999999999,85.498082010582C1006.9999999999999,85.15637125220456,1009.375,84.81466049382718,1011.75,84.47294973544975C1014.125,84.13123897707233,1016.5,83.78952821869488,1018.875,83.44781746031745C1021.25,83.10610670194002,1023.625,82.76439594356262,1026,82.42268518518519C1028.375,82.08097442680776,1030.75,81.73926366843034,1033.125,81.39755291005291C1035.5,81.05584215167548,1037.875,80.71413139329806,1040.25,80.37242063492063C1042.625,80.0307098765432,1045,79.6889991181658,1047.375,79.34728835978837C1049.75,79.00557760141093,1052.125,78.6638668430335,1054.5,78.32215608465607C1056.875,77.98044532627864,1059.25,77.63873456790125,1061.625,77.29702380952382C1064,76.95531305114639,1066.375,76.61360229276896,1068.75,76.27189153439153C1071.125,75.9301807760141,1073.5,75.5884700176367,1075.875,75.24675925925926C1078.25,74.90504850088183,1080.625,74.56333774250442,1083,74.22162698412698C1085.375,73.87991622574955,1087.75,73.53820546737215,1090.125,73.19649470899472C1092.5,72.85478395061729,1094.875,72.51307319223986,1097.25,72.17136243386243C1099.625,71.829651675485,1102,71.48794091710757,1104.375,71.14623015873015C1106.75,70.80451940035273,1109.125,70.46280864197531,1111.5,70.1210978835979C1113.875,69.77938712522048,1116.25,69.43767636684305,1118.625,69.09596560846562C1121,68.75425485008819,1123.375,68.41254409171076,1125.75,68.07083333333333C1128.125,67.7291225749559,1130.5,67.38741181657849,1132.875,67.04570105820106C1135.25,66.70399029982363,1137.625,66.3622795414462,1140,66.02056878306878C1142.375,65.67885802469137,1144.75,65.33714726631396,1147.125,64.99543650793653C1149.5,64.6537257495591,1151.875,64.31201499118166,1154.25,63.97030423280423C1156.625,63.6285934744268,1159,63.28688271604938,1161.375,62.94517195767195C1163.75,62.60346119929453,1166.125,62.26175044091712,1168.5,61.920039682539695C1170.875,61.57832892416227,1173.25,61.23661816578485,1175.625,60.894907407407416C1178,60.553196649029985,1180.375,60.21148589065255,1182.75,59.86977513227512C1185.125,59.5280643738977,1187.5,59.18635361552028,1189.875,58.84464285714286C1192.25,58.502932098765434,1194.625,58.16122134038801,1197,57.81951058201059C1199.375,57.47779982363316,1201.75,57.13608906525573,1204.125,56.79437830687831C1206.5,56.452667548500884,1208.875,56.110956790123474,1211.25,55.76924603174605C1213.625,55.427535273368626,1216,55.08582451499118,1218.375,54.74411375661375C1220.75,54.40240299823632,1223.125,54.0606922398589,1225.5,53.71898148148148C1227.875,53.377270723104054,1230.25,53.03555996472664,1232.625,52.69384920634921C1235,52.35213844797179,1237.375,52.010427689594366,1239.75,51.668716931216935C1242.125,51.3270061728395,1244.5,50.985295414462065,1246.875,50.64358465608464C1249.25,50.30187389770722,1251.625,49.96016313932981,1254,49.618452380952384C1256.375,49.27674162257496,1258.75,48.93503086419753,1261.125,48.593320105820105C1263.5,48.25160934744268,1265.875,47.90989858906525,1268.25,47.568187830687826C1270.625,47.2264770723104,1273,46.88476631393298,1275.375,46.543055555555554C1277.75,46.20134479717813,1280.125,45.8596340388007,1282.5,45.517923280423275C1284.875,45.17621252204585,1287.25,44.83450176366842,1289.625,44.492791005291C1292,44.15108024691357,1294.375,43.80936948853616,1296.75,43.46765873015874C1299.125,43.125947971781315,1301.5,42.78423721340388,1303.875,42.442526455026446C1306.25,42.100815696649015,1308.625,41.75910493827159,1311,41.41739417989417C1313.375,41.07568342151674,1315.75,40.73397266313933,1318.125,40.39226190476191C1320.5,40.050551146384485,1322.875,39.70884038800706,1325.25,39.36712962962963C1327.625,39.0254188712522,1330,38.68370811287476,1332.375,38.34199735449734C1334.75,38.00028659611991,1337.125,37.6585758377425,1339.5,37.31686507936507C1341.875,36.97515432098765,1344.25,36.63344356261022,1346.625,36.291732804232794C1349,35.95002204585537,1351.375,35.60831128747794,1353.75,35.26660052910052C1356.125,34.924889770723105,1358.5,34.5831790123457,1360.875,34.24146825396828C1363.25,33.899757495590855,1365.625,33.55804673721342,1368,33.216335978835986C1370.375,32.874625220458555,1372.75,32.53291446208113,1375.125,32.19120370370371C1377.5,31.849492945326283,1379.875,31.50778218694887,1382.25,31.166071428571446C1384.625,30.82436067019402,1387,30.482649911816594,1389.375,30.140939153439167C1391.75,29.79922839506174,1394.125,29.4575176366843,1396.5,29.115806878306874C1398.875,28.774096119929446,1401.25,28.432385361552036,1403.625,28.090674603174612C1406,27.74896384479719,1408.375,27.407253086419765,1410.75,27.065542328042337C1413.125,26.72383156966491,1415.5,26.382120811287486,1417.875,26.040410052910058C1420.25,25.69869929453263,1422.625,25.356988536155207,1425,25.015277777777783" fill="transparent" stroke-linecap="round" stroke="#1AD4B3" stroke-width="2"></path><g class="visx-group visx-axis visx-axis-bottom" transform="translate(0, 155)"><g class="visx-group visx-axis-tick" transform="translate(0, 0)"><line class="visx-line" x1="0" y1="0" x2="0" y2="8" fill="transparent" shape-rendering="crispEdges" stroke="#F2F0F9" stroke-width="1" stroke-linecap="square"></line><svg x="0" y="0" font-size="11" style="overflow:visible"><text transform="" x="0" y="19" fill="#1B2030" font-size="11" text-anchor="middle"><tspan x="0" dy="0em">0%</tspan></text></svg></g><g class="visx-group visx-axis-tick" transform="translate(0, 0)"><line class="visx-line" x1="356.25" y1="0" x2="356.25" y2="8" fill="transparent" shape-rendering="crispEdges" stroke="#F2F0F9" stroke-width="1" stroke-linecap="square"></line><svg x="0" y="0" font-size="11" style="overflow:visible"><text transform="" x="356.25" y="19" fill="#1B2030" font-size="11" text-anchor="middle"><tspan x="356.25" dy="0em">25%</tspan></text></svg></g><g class="visx-group visx-axis-tick" transform="translate(0, 0)"><line class="visx-line" x1="712.5" y1="0" x2="712.5" y2="8" fill="transparent" shape-rendering="crispEdges" stroke="#F2F0F9" stroke-width="1" stroke-linecap="square"></line><svg x="0" y="0" font-size="11" style="overflow:visible"><text transform="" x="712.5" y="19" fill="#1B2030" font-size="11" text-anchor="middle"><tspan x="712.5" dy="0em">50%</tspan></text></svg></g><g class="visx-group visx-axis-tick" transform="translate(0, 0)"><line class="visx-line" x1="1068.75" y1="0" x2="1068.75" y2="8" fill="transparent" shape-rendering="crispEdges" stroke="#F2F0F9" stroke-width="1" stroke-linecap="square"></line><svg x="0" y="0" font-size="11" style="overflow:visible"><text transform="" x="1068.75" y="19" fill="#1B2030" font-size="11" text-anchor="middle"><tspan x="1068.75" dy="0em">75%</tspan></text></svg></g><g class="visx-group visx-axis-tick" transform="translate(0, 0)"><line class="visx-line" x1="1425" y1="0" x2="1425" y2="8" fill="transparent" shape-rendering="crispEdges" stroke="#F2F0F9" stroke-width="1" stroke-linecap="square"></line><svg x="0" y="0" font-size="11" style="overflow:visible"><text transform="" x="1425" y="19" fill="#1B2030" font-size="11" text-anchor="middle"><tspan x="1425" dy="0em">100%</tspan></text></svg></g></g><g class="visx-group visx-axis visx-axis-left" transform="translate(0, 0)"><g class="visx-group visx-axis-tick" transform="translate(0, 0)"><line class="visx-line" x1="0" y1="155" x2="-8" y2="155" fill="transparent" shape-rendering="crispEdges" stroke="#F2F0F9" stroke-width="1" stroke-linecap="square"></line><svg x="-30" y="0" font-size="11" style="overflow:visible"><text transform="" x="-8" y="155" fill="#1B2030" font-size="11" text-anchor="start"><tspan x="-8" dy="0em">0%</tspan></text></svg></g><g class="visx-group visx-axis-tick" transform="translate(0, 0)"><line class="visx-line" x1="0" y1="120.55555555555556" x2="-8" y2="120.55555555555556" fill="transparent" shape-rendering="crispEdges" stroke="#F2F0F9" stroke-width="1" stroke-linecap="square"></line><svg x="-30" y="0" font-size="11" style="overflow:visible"><text transform="" x="-8" y="120.55555555555556" fill="#1B2030" font-size="11" text-anchor="start"><tspan x="-8" dy="0em">200%</tspan></text></svg></g><g class="visx-group visx-axis-tick" transform="translate(0, 0)"><line class="visx-line" x1="0" y1="86.11111111111111" x2="-8" y2="86.11111111111111" fill="transparent" shape-rendering="crispEdges" stroke="#F2F0F9" stroke-width="1" stroke-linecap="square"></line><svg x="-30" y="0" font-size="11" style="overflow:visible"><text transform="" x="-8" y="86.11111111111111" fill="#1B2030" font-size="11" text-anchor="start"><tspan x="-8" dy="0em">400%</tspan></text></svg></g><g class="visx-group visx-axis-tick" transform="translate(0, 0)"><line class="visx-line" x1="0" y1="51.66666666666667" x2="-8" y2="51.66666666666667" fill="transparent" shape-rendering="crispEdges" stroke="#F2F0F9" stroke-width="1" stroke-linecap="square"></line><svg x="-30" y="0" font-size="11" style="overflow:visible"><text transform="" x="-8" y="51.66666666666667" fill="#1B2030" font-size="11" text-anchor="start"><tspan x="-8" dy="0em">600%</tspan></text></svg></g><g class="visx-group visx-axis-tick" transform="translate(0, 0)"><line class="visx-line" x1="0" y1="17.22222222222223" x2="-8" y2="17.22222222222223" fill="transparent" shape-rendering="crispEdges" stroke="#F2F0F9" stroke-width="1" stroke-linecap="square"></line><svg x="-30" y="0" font-size="11" style="overflow:visible"><text transform="" x="-8" y="17.22222222222223" fill="#1B2030" font-size="11" text-anchor="start"><tspan x="-8" dy="0em">800%</tspan></text></svg></g><line class="visx-line visx-axis-line" x1="0" y1="155.5" x2="0" y2="0.5" fill="transparent" shape-rendering="crispEdges" stroke="#F2F0F9" stroke-width="1"></line></g><rect class="visx-bar" width="1425" height="155" fill="transparent"></rect><line class="visx-line" x1="527.25" y1="58" x2="527.25" y2="155" fill="transparent" shape-rendering="crispEdges" stroke="#CDC8E1" stroke-width="1" pointer-events="none" stroke-dasharray="5"></line><svg x="0" y="0" font-size="11px" style="overflow:visible"><text transform="" x="527.25" y="50" font-size="11px" fill="#555069" stroke="#FFFFFF" stroke-width="1px" text-anchor="middle"><tspan x="527.25" dy="0.355em">uOptimal 37%</tspan></text></svg><svg x="0" y="0" font-size="11px" style="overflow:visible"><text transform="" x="527.25" y="50" font-size="11px" fill="#CDC8E1" text-anchor="middle"><tspan x="527.25" dy="0.355em">uOptimal 37%</tspan></text></svg></g></svg>