<?xml version="1.0"?><svg xmlns="http://www.w3.org/2000/svg" xmlns:xlink= "http://www.w3.org/1999/xlink" style="background: white;" width="1500" height="300"> <g style="color: black; font-size: 13px; font-family: sans-serif; transform: translate(18px, 25px);"><g><circle r="3" cx="-6" cy="-5" style="fill: #1AD4B3" /><text>Borrow APR, variable</text></g><g style="transform: translateX(150px);"><circle r="3" cx="-6" cy="-5" style="fill: #101423" /><text>Borrow APR, stable</text></g></g><g class="visx-group" transform="translate(45, 50)"><g class="visx-group visx-rows" transform="translate(0, 0)"><line class="visx-line" x1="0" y1="155" x2="1425" y2="155" fill="transparent" shape-rendering="crispEdges" stroke="#F2F0F9" stroke-width="1" pointer-events="none"></line><line class="visx-line" x1="0" y1="90.41666666666666" x2="1425" y2="90.41666666666666" fill="transparent" shape-rendering="crispEdges" stroke="#F2F0F9" stroke-width="1" pointer-events="none"></line><line class="visx-line" x1="0" y1="25.83333333333333" x2="1425" y2="25.83333333333333" fill="transparent" shape-rendering="crispEdges" stroke="#F2F0F9" stroke-width="1" pointer-events="none"></line></g><path class="visx-linepath" d="M0,154.35416666634376C2.375,154.30034722203385,4.75,154.24652777772394,7.125,154.19270833333331C9.5,154.1388888889427,11.875,154.08506944444446,14.25,154.03125C16.625,153.97743055555554,19,153.9236111111111,21.375,153.86979166666666C23.75,153.81597222222223,26.125,153.76215277777777,28.5,153.70833333333334C30.875,153.6545138888889,33.25,153.60069444444446,35.625,153.546875C38,153.49305555555554,40.375,153.43923611111111,42.75,153.38541666666669C45.125,153.33159722222223,47.50000000000001,153.2777777777778,49.87500000000001,153.22395833333334C52.25000000000001,153.17013888888889,54.625,153.11631944444446,57,153.0625C59.375,153.00868055555554,61.75,152.9548611111111,64.125,152.90104166666666C66.5,152.84722222222223,68.875,152.79340277777777,71.25,152.73958333333334C73.625,152.6857638888889,76,152.63194444444446,78.375,152.578125C80.75,152.52430555555554,83.125,152.4704861111111,85.5,152.41666666666666C87.875,152.36284722222223,90.25,152.30902777777777,92.625,152.25520833333334C95,152.20138888888889,97.37500000000001,152.14756944444446,99.75000000000001,152.09375C102.12500000000001,152.03993055555554,104.5,151.98611111111111,106.875,151.93229166666666C109.25,151.8784722222222,111.625,151.82465277777774,114,151.77083333333331C116.375,151.71701388888886,118.75000000000001,151.66319444444446,121.12500000000001,151.609375C123.50000000000001,151.55555555555557,125.875,151.5017361111111,128.25,151.44791666666666C130.625,151.3940972222222,133,151.34027777777777,135.375,151.28645833333334C137.75,151.2326388888889,140.125,151.17881944444446,142.5,151.125C144.875,151.07118055555554,147.25,151.01736111111114,149.625,150.96354166666669C152,150.90972222222223,154.375,150.8559027777778,156.75,150.80208333333334C159.125,150.74826388888889,161.5,150.69444444444446,163.875,150.640625C166.25,150.58680555555554,168.625,150.5329861111111,171,150.47916666666666C173.375,150.42534722222223,175.75,150.37152777777777,178.125,150.31770833333334C180.5,150.2638888888889,182.875,150.21006944444446,185.25,150.15625C187.625,150.10243055555554,190,150.0486111111111,192.375,149.99479166666666C194.75,149.9409722222222,197.12500000000003,149.8871527777778,199.50000000000003,149.83333333333334C201.875,149.7795138888889,204.25,149.72569444444446,206.62499999999997,149.671875C208.99999999999997,149.61805555555554,211.375,149.56423611111111,213.75,149.51041666666666C216.125,149.4565972222222,218.5,149.40277777777777,220.875,149.34895833333331C223.25,149.29513888888886,225.625,149.24131944444446,228,149.1875C230.375,149.13368055555554,232.75,149.0798611111111,235.125,149.02604166666666C237.5,148.9722222222222,239.87500000000003,148.9184027777778,242.25000000000003,148.86458333333334C244.625,148.8107638888889,247,148.75694444444443,249.37499999999997,148.703125C251.74999999999997,148.64930555555554,254.125,148.59548611111114,256.5,148.54166666666669C258.875,148.48784722222226,261.25,148.4340277777778,263.625,148.38020833333334C266,148.32638888888889,268.375,148.27256944444446,270.75,148.21875C273.125,148.16493055555554,275.5,148.11111111111111,277.875,148.05729166666666C280.25,148.0034722222222,282.625,148.0034722222222,285,147.89583333333331C287.375,147.78819444444443,289.75,147.35763888888889,292.125,147.08854166666666C294.5,146.81944444444443,296.875,146.55034722222223,299.25,146.28125C301.625,146.01215277777777,304,145.74305555555557,306.375,145.47395833333334C308.75,145.20486111111111,311.125,144.93576388888889,313.5,144.66666666666666C315.875,144.39756944444443,318.25,144.12847222222223,320.625,143.859375C323,143.59027777777777,325.375,143.32118055555554,327.75,143.05208333333331C330.125,142.7829861111111,332.5,142.51388888888889,334.875,142.24479166666666C337.25,141.97569444444443,339.625,141.70659722222223,342,141.4375C344.375,141.16840277777777,346.75,140.89930555555554,349.125,140.63020833333331C351.5,140.3611111111111,353.875,140.09201388888889,356.25,139.82291666666666C358.625,139.55381944444443,361,139.28472222222223,363.375,139.015625C365.75,138.74652777777777,368.125,138.47743055555554,370.5,138.20833333333331C372.875,137.9392361111111,375.25,137.67013888888889,377.625,137.40104166666666C380,137.13194444444443,382.375,136.86284722222223,384.75,136.59375C387.125,136.32465277777777,389.50000000000006,136.05555555555554,391.87500000000006,135.78645833333331C394.25000000000006,135.5173611111111,396.62500000000006,135.24826388888889,399.00000000000006,134.97916666666666C401.375,134.71006944444443,403.75,134.44097222222223,406.12499999999994,134.171875C408.49999999999994,133.90277777777777,410.87499999999994,133.63368055555554,413.24999999999994,133.36458333333331C415.62499999999994,133.0954861111111,418,132.82638888888889,420.375,132.55729166666666C422.75,132.28819444444443,425.125,132.01909722222223,427.5,131.75C429.875,131.48090277777777,432.25,131.21180555555554,434.625,130.94270833333331C437,130.6736111111111,439.375,130.40451388888889,441.75,130.13541666666666C444.125,129.86631944444443,446.5,129.59722222222223,448.875,129.328125C451.25,129.05902777777777,453.625,128.78993055555557,456,128.52083333333334C458.375,128.25173611111111,460.75,127.98263888888889,463.125,127.71354166666667C465.5,127.44444444444446,467.875,127.17534722222223,470.25,126.90625000000001C472.625,126.63715277777779,475.00000000000006,126.36805555555557,477.37500000000006,126.09895833333334C479.75000000000006,125.82986111111111,482.12500000000006,125.5607638888889,484.50000000000006,125.29166666666667C486.875,125.02256944444446,489.25,124.75347222222223,491.62499999999994,124.48437500000001C493.99999999999994,124.21527777777779,496.37499999999994,123.94618055555557,498.74999999999994,123.67708333333334C501.12499999999994,123.40798611111111,503.5,123.1388888888889,505.875,122.86979166666667C508.25,122.60069444444446,510.625,122.33159722222224,513,122.06250000000001C515.375,121.79340277777779,517.75,121.52430555555556,520.125,121.25520833333333C522.5,120.9861111111111,524.875,120.71701388888889,527.25,120.44791666666667C529.625,120.17881944444446,532,119.90972222222223,534.375,119.640625C536.75,119.37152777777777,539.125,119.10243055555554,541.5,118.83333333333333C543.875,118.56423611111111,546.25,118.29513888888889,548.625,118.02604166666667C551,117.75694444444446,553.375,117.48784722222223,555.75,117.21875C558.125,116.94965277777777,560.5,116.68055555555554,562.875,116.41145833333333C565.25,116.14236111111111,567.625,115.87326388888889,570,115.60416666666667C572.375,115.33506944444446,574.75,115.06597222222223,577.125,114.796875C579.5,114.52777777777777,581.875,114.25868055555554,584.25,113.98958333333333C586.625,113.72048611111111,589,113.45138888888889,591.375,113.18229166666667C593.75,112.91319444444446,596.125,112.64409722222223,598.5,112.375C600.875,112.10590277777777,603.25,111.83680555555554,605.625,111.56770833333333C608,111.29861111111111,610.375,111.02951388888889,612.75,110.76041666666667C615.125,110.49131944444446,617.5,110.22222222222223,619.875,109.953125C622.25,109.68402777777777,624.625,109.41493055555554,627,109.14583333333333C629.375,108.87673611111111,631.75,108.60763888888889,634.125,108.33854166666667C636.5,108.06944444444446,638.875,107.80034722222223,641.25,107.53125C643.625,107.26215277777777,646,106.99305555555554,648.375,106.72395833333333C650.75,106.45486111111111,653.125,106.18576388888889,655.5,105.91666666666667C657.875,105.64756944444446,660.25,105.37847222222223,662.625,105.109375C665,104.84027777777777,667.375,104.57118055555554,669.75,104.30208333333333C672.125,104.03298611111111,674.5,103.76388888888889,676.875,103.49479166666667C679.25,103.22569444444446,681.625,102.95659722222223,684,102.6875C686.375,102.41840277777777,688.75,102.14930555555554,691.125,101.88020833333333C693.5,101.61111111111111,695.875,101.34201388888889,698.25,101.07291666666667C700.625,100.80381944444446,703,100.53472222222223,705.375,100.265625C707.75,99.99652777777777,710.125,99.72743055555554,712.5,99.45833333333333C714.875,99.18923611111111,717.25,98.92013888888889,719.625,98.65104166666667C722,98.38194444444446,724.375,98.11284722222223,726.75,97.84375C729.125,97.57465277777777,731.5,97.30555555555554,733.875,97.03645833333333C736.25,96.76736111111111,738.625,96.49826388888889,741,96.22916666666667C743.375,95.96006944444446,745.75,95.69097222222223,748.125,95.421875C750.5,95.15277777777777,752.875,94.88368055555554,755.25,94.61458333333333C757.625,94.34548611111111,760,94.07638888888889,762.375,93.80729166666667C764.75,93.53819444444446,767.125,93.26909722222223,769.5,93C771.875,92.73090277777777,774.2500000000001,92.46180555555556,776.6250000000001,92.19270833333333C779.0000000000001,91.92361111111111,781.3750000000001,91.65451388888889,783.7500000000001,91.38541666666667C786.1250000000001,91.11631944444446,788.5000000000001,90.84722222222223,790.8750000000001,90.578125C793.2500000000001,90.30902777777777,795.6250000000001,90.03993055555556,798.0000000000001,89.77083333333333C800.375,89.50173611111111,802.75,89.23263888888889,805.1249999999999,88.96354166666667C807.4999999999999,88.69444444444444,809.8749999999999,88.42534722222223,812.2499999999999,88.15625C814.6249999999999,87.88715277777777,816.9999999999999,87.61805555555554,819.3749999999999,87.34895833333333C821.7499999999999,87.07986111111111,824.1249999999999,86.81076388888889,826.4999999999999,86.54166666666667C828.8749999999999,86.27256944444444,831.25,86.00347222222223,833.625,85.734375C836,85.46527777777777,838.375,85.19618055555554,840.75,84.92708333333333C843.125,84.65798611111111,845.5,84.38888888888889,847.875,84.11979166666667C850.25,83.85069444444446,852.625,83.58159722222223,855,83.3125C857.375,83.04340277777777,859.75,82.77430555555554,862.125,82.50520833333333C864.5,82.23611111111111,866.875,81.96701388888889,869.25,81.69791666666667C871.625,81.42881944444446,874,81.15972222222223,876.375,80.890625C878.75,80.62152777777777,881.125,80.35243055555554,883.5,80.08333333333333C885.875,79.81423611111111,888.25,79.54513888888889,890.625,79.27604166666667C893,79.00694444444446,895.375,78.73784722222223,897.75,78.46875C900.125,78.19965277777777,902.5,77.93055555555554,904.875,77.66145833333333C907.25,77.39236111111111,909.625,77.12326388888889,912,76.85416666666667C914.375,76.58506944444446,916.75,76.31597222222223,919.125,76.046875C921.5,75.77777777777777,923.875,75.50868055555557,926.25,75.23958333333334C928.625,74.97048611111111,931,74.7013888888889,933.375,74.43229166666667C935.75,74.16319444444444,938.125,73.89409722222223,940.5,73.625C942.875,73.35590277777777,945.25,73.08680555555556,947.625,72.81770833333334C950,72.54861111111111,952.3750000000001,72.2795138888889,954.7500000000001,72.01041666666667C957.1250000000001,71.74131944444444,959.5000000000001,71.47222222222223,961.8750000000001,71.203125C964.2500000000001,70.93402777777777,966.6250000000001,70.66493055555557,969.0000000000001,70.39583333333334C971.3750000000001,70.12673611111111,973.7500000000001,69.8576388888889,976.1250000000001,69.58854166666667C978.5,69.31944444444446,980.875,69.05034722222221,983.2499999999999,68.78125C985.6249999999999,68.51215277777777,987.9999999999999,68.24305555555557,990.3749999999999,67.97395833333334C992.7499999999999,67.70486111111111,995.1249999999999,67.4357638888889,997.4999999999999,67.16666666666667C999.8749999999999,66.89756944444444,1002.2499999999999,66.62847222222221,1004.6249999999999,66.359375C1006.9999999999999,66.09027777777777,1009.375,65.82118055555557,1011.75,65.55208333333334C1014.125,65.28298611111113,1016.5,65.0138888888889,1018.875,64.74479166666667C1021.25,64.47569444444444,1023.625,64.20659722222223,1026,63.9375C1028.375,63.66840277777778,1030.75,63.399305555555564,1033.125,63.13020833333334C1035.5,62.86111111111112,1037.875,62.59201388888889,1040.25,62.32291666666667C1042.625,62.05381944444445,1045,61.78472222222222,1047.375,61.515625C1049.75,61.24652777777778,1052.125,60.977430555555564,1054.5,60.70833333333334C1056.875,60.43923611111112,1059.25,60.17013888888889,1061.625,59.90104166666667C1064,59.63194444444445,1066.375,59.36284722222222,1068.75,59.09375C1071.125,58.82465277777778,1073.5,58.555555555555564,1075.875,58.28645833333334C1078.25,58.01736111111112,1080.625,57.74826388888889,1083,57.47916666666667C1085.375,57.21006944444445,1087.75,56.94097222222222,1090.125,56.671875C1092.5,56.40277777777778,1094.875,56.133680555555564,1097.25,55.86458333333334C1099.625,55.59548611111112,1102,55.32638888888889,1104.375,55.05729166666667C1106.75,54.78819444444445,1109.125,54.51909722222222,1111.5,54.25C1113.875,53.98090277777778,1116.25,53.711805555555564,1118.625,53.44270833333334C1121,53.17361111111112,1123.375,52.90451388888889,1125.75,52.63541666666667C1128.125,52.36631944444445,1130.5,52.09722222222223,1132.875,51.828125C1135.25,51.55902777777777,1137.625,51.28993055555554,1140,51.02083333333332C1142.375,50.7517361111111,1144.75,50.48263888888887,1147.125,50.21354166666665C1149.5,49.94444444444443,1151.875,49.6753472222222,1154.25,49.40624999999998C1156.625,49.13715277777776,1159,48.86805555555554,1161.375,48.59895833333332C1163.75,48.3298611111111,1166.125,48.06076388888887,1168.5,47.79166666666665C1170.875,47.52256944444443,1173.25,47.2534722222222,1175.625,46.98437499999998C1178,46.71527777777776,1180.375,46.44618055555554,1182.75,46.17708333333332C1185.125,45.9079861111111,1187.5,45.63888888888887,1189.875,45.36979166666665C1192.25,45.10069444444443,1194.625,44.8315972222222,1197,44.56249999999998C1199.375,44.29340277777776,1201.75,44.02430555555554,1204.125,43.75520833333332C1206.5,43.4861111111111,1208.875,43.21701388888887,1211.25,42.94791666666665C1213.625,42.67881944444443,1216,42.4097222222222,1218.375,42.14062499999998C1220.75,41.87152777777776,1223.125,41.60243055555554,1225.5,41.33333333333332C1227.875,41.0642361111111,1230.25,40.79513888888887,1232.625,40.52604166666665C1235,40.25694444444443,1237.375,39.9878472222222,1239.75,39.71874999999998C1242.125,39.44965277777776,1244.5,39.18055555555554,1246.875,38.91145833333332C1249.25,38.6423611111111,1251.625,38.37326388888887,1254,38.10416666666665C1256.375,37.83506944444443,1258.75,37.5659722222222,1261.125,37.29687499999998C1263.5,37.02777777777776,1265.875,36.75868055555554,1268.25,36.48958333333332C1270.625,36.2204861111111,1273,35.95138888888887,1275.375,35.68229166666665C1277.75,35.41319444444443,1280.125,35.1440972222222,1282.5,34.87499999999998C1284.875,34.60590277777776,1287.25,34.33680555555554,1289.625,34.06770833333332C1292,33.7986111111111,1294.375,33.52951388888887,1296.75,33.26041666666665C1299.125,32.99131944444443,1301.5,32.7222222222222,1303.875,32.45312499999998C1306.25,32.18402777777776,1308.625,31.914930555555546,1311,31.645833333333325C1313.375,31.376736111111104,1315.75,31.107638888888875,1318.125,30.83854166666665C1320.5,30.569444444444425,1322.875,30.3003472222222,1325.25,30.03124999999998C1327.625,29.762152777777757,1330,29.493055555555546,1332.375,29.223958333333325C1334.75,28.954861111111104,1337.125,28.685763888888875,1339.5,28.41666666666665C1341.875,28.147569444444425,1344.25,27.8784722222222,1346.625,27.60937499999998C1349,27.340277777777757,1351.375,27.071180555555546,1353.75,26.802083333333325C1356.125,26.532986111111104,1358.5,26.263888888888875,1360.875,25.99479166666665C1363.25,25.725694444444425,1365.625,25.4565972222222,1368,25.18749999999998C1370.375,24.918402777777757,1372.75,24.649305555555546,1375.125,24.380208333333325C1377.5,24.111111111111104,1379.875,23.842013888888875,1382.25,23.57291666666665C1384.625,23.303819444444425,1387,23.034722222222197,1389.375,22.76562499999998C1391.75,22.49652777777776,1394.125,22.22743055555556,1396.5,21.958333333333343C1398.875,21.689236111111125,1401.25,21.420138888888893,1403.625,21.151041666666668C1406,20.881944444444443,1408.375,20.612847222222218,1410.75,20.343749999999996C1413.125,20.074652777777775,1415.5,19.805555555555564,1417.875,19.536458333333343C1420.25,19.26736111111112,1422.625,18.998263888888893,1425,18.729166666666668" fill="transparent" stroke-linecap="round" stroke="#1AD4B3" stroke-width="2"></path><g class="visx-group visx-axis visx-axis-bottom" transform="translate(0, 155)"><g class="visx-group visx-axis-tick" transform="translate(0, 0)"><line class="visx-line" x1="0" y1="0" x2="0" y2="8" fill="transparent" shape-rendering="crispEdges" stroke="#F2F0F9" stroke-width="1" stroke-linecap="square"></line><svg x="0" y="0" font-size="11" style="overflow:visible"><text transform="" x="0" y="19" fill="#1B2030" font-size="11" text-anchor="middle"><tspan x="0" dy="0em">0%</tspan></text></svg></g><g class="visx-group visx-axis-tick" transform="translate(0, 0)"><line class="visx-line" x1="356.25" y1="0" x2="356.25" y2="8" fill="transparent" shape-rendering="crispEdges" stroke="#F2F0F9" stroke-width="1" stroke-linecap="square"></line><svg x="0" y="0" font-size="11" style="overflow:visible"><text transform="" x="356.25" y="19" fill="#1B2030" font-size="11" text-anchor="middle"><tspan x="356.25" dy="0em">25%</tspan></text></svg></g><g class="visx-group visx-axis-tick" transform="translate(0, 0)"><line class="visx-line" x1="712.5" y1="0" x2="712.5" y2="8" fill="transparent" shape-rendering="crispEdges" stroke="#F2F0F9" stroke-width="1" stroke-linecap="square"></line><svg x="0" y="0" font-size="11" style="overflow:visible"><text transform="" x="712.5" y="19" fill="#1B2030" font-size="11" text-anchor="middle"><tspan x="712.5" dy="0em">50%</tspan></text></svg></g><g class="visx-group visx-axis-tick" transform="translate(0, 0)"><line class="visx-line" x1="1068.75" y1="0" x2="1068.75" y2="8" fill="transparent" shape-rendering="crispEdges" stroke="#F2F0F9" stroke-width="1" stroke-linecap="square"></line><svg x="0" y="0" font-size="11" style="overflow:visible"><text transform="" x="1068.75" y="19" fill="#1B2030" font-size="11" text-anchor="middle"><tspan x="1068.75" dy="0em">75%</tspan></text></svg></g><g class="visx-group visx-axis-tick" transform="translate(0, 0)"><line class="visx-line" x1="1425" y1="0" x2="1425" y2="8" fill="transparent" shape-rendering="crispEdges" stroke="#F2F0F9" stroke-width="1" stroke-linecap="square"></line><svg x="0" y="0" font-size="11" style="overflow:visible"><text transform="" x="1425" y="19" fill="#1B2030" font-size="11" text-anchor="middle"><tspan x="1425" dy="0em">100%</tspan></text></svg></g></g><g class="visx-group visx-axis visx-axis-left" transform="translate(0, 0)"><g class="visx-group visx-axis-tick" transform="translate(0, 0)"><line class="visx-line" x1="0" y1="155" x2="-8" y2="155" fill="transparent" shape-rendering="crispEdges" stroke="#F2F0F9" stroke-width="1" stroke-linecap="square"></line><svg x="-30" y="0" font-size="11" style="overflow:visible"><text transform="" x="-8" y="155" fill="#1B2030" font-size="11" text-anchor="start"><tspan x="-8" dy="0em">0%</tspan></text></svg></g><g class="visx-group visx-axis-tick" transform="translate(0, 0)"><line class="visx-line" x1="0" y1="90.41666666666666" x2="-8" y2="90.41666666666666" fill="transparent" shape-rendering="crispEdges" stroke="#F2F0F9" stroke-width="1" stroke-linecap="square"></line><svg x="-30" y="0" font-size="11" style="overflow:visible"><text transform="" x="-8" y="90.41666666666666" fill="#1B2030" font-size="11" text-anchor="start"><tspan x="-8" dy="0em">500%</tspan></text></svg></g><g class="visx-group visx-axis-tick" transform="translate(0, 0)"><line class="visx-line" x1="0" y1="25.83333333333333" x2="-8" y2="25.83333333333333" fill="transparent" shape-rendering="crispEdges" stroke="#F2F0F9" stroke-width="1" stroke-linecap="square"></line><svg x="-30" y="0" font-size="11" style="overflow:visible"><text transform="" x="-8" y="25.83333333333333" fill="#1B2030" font-size="11" text-anchor="start"><tspan x="-8" dy="0em">1000%</tspan></text></svg></g><line class="visx-line visx-axis-line" x1="0" y1="155.5" x2="0" y2="0.5" fill="transparent" shape-rendering="crispEdges" stroke="#F2F0F9" stroke-width="1"></line></g><rect class="visx-bar" width="1425" height="155" fill="transparent"></rect><line class="visx-line" x1="285" y1="58" x2="285" y2="155" fill="transparent" shape-rendering="crispEdges" stroke="#CDC8E1" stroke-width="1" pointer-events="none" stroke-dasharray="5"></line><svg x="0" y="0" font-size="11px" style="overflow:visible"><text transform="" x="285" y="50" font-size="11px" fill="#555069" stroke="#FFFFFF" stroke-width="1px" text-anchor="middle"><tspan x="285" dy="0.355em">uOptimal 20%</tspan></text></svg><svg x="0" y="0" font-size="11px" style="overflow:visible"><text transform="" x="285" y="50" font-size="11px" fill="#CDC8E1" text-anchor="middle"><tspan x="285" dy="0.355em">uOptimal 20%</tspan></text></svg></g></svg>