<?xml version="1.0"?><svg xmlns="http://www.w3.org/2000/svg" xmlns:xlink= "http://www.w3.org/1999/xlink" style="background: white;" width="1500" height="300"> <g style="color: black; font-size: 13px; font-family: sans-serif; transform: translate(18px, 25px);"><g><circle r="3" cx="-6" cy="-5" style="fill: #1AD4B3" /><text>Borrow APR, variable</text></g><g style="transform: translateX(150px);"><circle r="3" cx="-6" cy="-5" style="fill: #101423" /><text>Borrow APR, stable</text></g></g><g class="visx-group" transform="translate(45, 50)"><g class="visx-group visx-rows" transform="translate(0, 0)"><line class="visx-line" x1="0" y1="155" x2="1425" y2="155" fill="transparent" shape-rendering="crispEdges" stroke="#F2F0F9" stroke-width="1" pointer-events="none"></line><line class="visx-line" x1="0" y1="120.55555555555556" x2="1425" y2="120.55555555555556" fill="transparent" shape-rendering="crispEdges" stroke="#F2F0F9" stroke-width="1" pointer-events="none"></line><line class="visx-line" x1="0" y1="86.11111111111111" x2="1425" y2="86.11111111111111" fill="transparent" shape-rendering="crispEdges" stroke="#F2F0F9" stroke-width="1" pointer-events="none"></line><line class="visx-line" x1="0" y1="51.66666666666667" x2="1425" y2="51.66666666666667" fill="transparent" shape-rendering="crispEdges" stroke="#F2F0F9" stroke-width="1" pointer-events="none"></line><line class="visx-line" x1="0" y1="17.22222222222223" x2="1425" y2="17.22222222222223" fill="transparent" shape-rendering="crispEdges" stroke="#F2F0F9" stroke-width="1" pointer-events="none"></line></g><path class="visx-linepath" d="M0,154.99999999995777C2.375,154.99296207262492,4.75,154.9859241452921,7.125,154.9788862179487C9.5,154.97184829060532,11.875,154.96481036324786,14.25,154.95777243589745C16.625,154.95073450854704,19,154.9436965811966,21.375,154.93665865384617C23.75,154.92962072649573,26.125,154.92258279914532,28.5,154.91554487179488C30.875,154.90850694444444,33.25,154.90146901709403,35.625,154.8944310897436C38,154.88739316239315,40.375,154.88035523504274,42.75,154.8733173076923C45.125,154.86627938034187,47.50000000000001,154.85924145299145,49.87500000000001,154.85220352564102C52.25000000000001,154.8451655982906,54.625,154.83812767094017,57,154.83108974358976C59.375,154.82405181623932,61.75,154.8170138888889,64.125,154.80997596153847C66.5,154.80293803418803,68.875,154.79590010683762,71.25,154.78886217948718C73.625,154.78182425213674,76,154.77478632478633,78.375,154.7677483974359C80.75,154.76071047008546,83.125,154.75367254273505,85.5,154.7466346153846C87.875,154.73959668803417,90.25,154.73255876068373,92.625,154.72552083333332C95,154.71848290598288,97.37500000000001,154.7114449786325,99.75000000000001,154.70440705128206C102.12500000000001,154.69736912393165,104.5,154.6903311965812,106.875,154.68329326923077C109.25,154.67625534188033,111.625,154.66921741452992,114,154.6621794871795C116.375,154.65514155982905,118.75000000000001,154.64810363247864,121.12500000000001,154.6410657051282C123.50000000000001,154.63402777777776,125.875,154.62698985042732,128.25,154.6199519230769C130.625,154.61291399572647,133,154.60587606837606,135.375,154.59883814102565C137.75,154.59180021367524,140.125,154.5847622863248,142.5,154.57772435897436C144.875,154.57068643162393,147.25,154.56364850427352,149.625,154.55661057692308C152,154.54957264957264,154.375,154.54253472222223,156.75,154.5354967948718C159.125,154.52845886752135,161.5,154.52142094017094,163.875,154.5143830128205C166.25,154.50734508547006,168.625,154.50030715811965,171,154.49326923076922C173.375,154.48623130341878,175.75,154.4791933760684,178.125,154.47215544871796C180.5,154.46511752136752,182.875,154.4580795940171,185.25,154.45104166666667C187.625,154.44400373931623,190,154.4369658119658,192.375,154.42992788461538C194.75,154.42288995726494,197.12500000000003,154.41585202991456,199.50000000000003,154.40881410256412C201.875,154.40177617521368,204.25,154.39473824786324,206.62499999999997,154.3877003205128C208.99999999999997,154.38066239316237,211.375,154.37362446581196,213.75,154.36658653846152C216.125,154.3595486111111,218.5,154.35251068376067,220.875,154.34547275641026C223.25,154.33843482905985,225.625,154.3313969017094,228,154.32435897435897C230.375,154.31732104700853,232.75,154.3102831196581,235.125,154.30324519230768C237.5,154.29620726495725,239.87500000000003,154.28916933760686,242.25000000000003,154.28213141025643C244.625,154.27509348290602,247,154.26805555555558,249.37499999999997,154.26101762820514C251.74999999999997,154.2539797008547,254.125,154.2469417735043,256.5,154.23990384615385C258.875,154.2328659188034,261.25,154.225827991453,263.625,154.21879006410256C266,154.21175213675212,268.375,154.20471420940171,270.75,154.19767628205128C273.125,154.19063835470084,275.5,154.18360042735043,277.875,154.1765625C280.25,154.16952457264955,282.625,154.16248664529917,285,154.15544871794873C287.375,154.1484107905983,289.75,154.14137286324788,292.125,154.13433493589744C294.5,154.127297008547,296.875,154.1202590811966,299.25,154.11322115384615C301.625,154.10618322649572,304,154.0991452991453,306.375,154.09210737179487C308.75,154.08506944444443,311.125,154.07803151709402,313.5,154.07099358974358C315.875,154.06395566239314,318.25,154.05691773504276,320.625,154.04987980769232C323,154.04284188034188,325.375,154.03580395299147,327.75,154.02876602564103C330.125,154.0217280982906,332.5,154.01469017094018,334.875,154.00765224358975C337.25,154.0006143162393,339.625,153.9935763888889,342,153.98653846153846C344.375,153.97950053418802,346.75,153.9724626068376,349.125,153.96542467948717C351.5,153.95838675213673,353.875,153.9513488247863,356.25,153.94431089743588C358.625,153.93727297008547,361,153.93023504273503,363.375,153.92319711538462C365.75,153.91615918803421,368.125,153.90912126068378,370.5,153.90208333333334C372.875,153.8950454059829,375.25,153.8880074786325,377.625,153.88096955128205C380,153.8739316239316,382.375,153.8668936965812,384.75,153.85985576923076C387.125,153.85281784188032,389.50000000000006,153.8457799145299,391.87500000000006,153.83874198717947C394.25000000000006,153.83170405982904,396.62500000000006,153.82466613247863,399.00000000000006,153.8176282051282C401.375,153.81059027777778,403.75,153.80355235042734,406.12499999999994,153.79651442307693C408.49999999999994,153.7894764957265,410.87499999999994,153.78243856837608,413.24999999999994,153.77540064102564C415.62499999999994,153.7683627136752,418,153.7613247863248,420.375,153.75428685897435C422.75,153.74724893162394,425.125,153.74021100427353,427.5,153.7331730769231C429.875,153.72613514957266,432.25,153.71909722222225,434.625,153.7120592948718C437,153.70502136752137,439.375,153.69798344017096,441.75,153.69094551282052C444.125,153.68390758547008,446.5,153.67686965811967,448.875,153.66983173076923C451.25,153.6627938034188,453.625,153.65575587606838,456,153.64871794871794C458.375,153.6416800213675,460.75,153.63464209401707,463.125,153.62760416666666C465.5,153.62056623931625,467.875,153.6135283119658,470.25,153.6064903846154C472.625,153.59945245726496,475.00000000000006,153.59241452991455,477.37500000000006,153.5853766025641C479.75000000000006,153.57833867521367,482.12500000000006,153.57130074786326,484.50000000000006,153.56426282051282C486.875,153.55722489316238,489.25,153.55018696581197,491.62499999999994,153.54314903846154C493.99999999999994,153.5361111111111,496.37499999999994,153.52907318376066,498.74999999999994,153.52203525641025C501.12499999999994,153.5149973290598,503.5,153.50795940170943,505.875,153.500921474359C508.25,153.49388354700858,510.625,153.48684561965814,513,153.4798076923077C515.375,153.47276976495726,517.75,153.46573183760685,520.125,153.45869391025641C522.5,153.45165598290598,524.875,153.44461805555557,527.25,153.43758012820513C529.625,153.4305422008547,532,153.42350427350428,534.375,153.41646634615384C536.75,153.4094284188034,539.125,153.402390491453,541.5,153.39535256410255C543.875,153.3883146367521,546.25,153.38127670940173,548.625,153.3742387820513C551,153.36720085470085,553.375,153.36016292735044,555.75,153.353125C558.125,153.34608707264957,560.5,153.33904914529916,562.875,153.33201121794872C565.25,153.32497329059828,567.625,153.31793536324787,570,153.31089743589743C572.375,153.303859508547,574.75,153.29682158119658,577.125,153.28978365384614C579.5,153.2827457264957,581.875,153.27570779914527,584.25,153.26866987179486C586.625,153.26163194444445,589,153.254594017094,591.375,153.2475560897436C593.75,153.2405181623932,596.125,153.23348023504275,598.5,153.2264423076923C600.875,153.21940438034187,603.25,153.21236645299146,605.625,153.20532852564102C608,153.19829059829058,610.375,153.19125267094017,612.75,153.18421474358973C615.125,153.1771768162393,617.5,153.17013888888889,619.875,153.16310096153845C622.25,153.156063034188,624.625,153.1490251068376,627,153.14198717948716C629.375,153.13494925213672,631.75,153.12791132478634,634.125,153.1208733974359C636.5,153.11383547008546,638.875,153.10679754273505,641.25,153.0997596153846C643.625,153.09272168803417,646,153.08568376068376,648.375,153.07864583333333C650.75,153.0716079059829,653.125,153.0645699786325,655.5,153.05753205128207C657.875,153.05049412393163,660.25,153.04345619658122,662.625,153.03641826923078C665,153.02938034188034,667.375,153.02234241452993,669.75,153.0153044871795C672.125,153.00826655982905,674.5,153.00122863247864,676.875,152.9941907051282C679.25,152.98715277777777,681.625,152.98011485042736,684,152.97307692307692C686.375,152.96603899572648,688.75,152.9590010683761,691.125,152.95196314102566C693.5,152.94492521367522,695.875,152.9378872863248,698.25,152.93084935897437C700.625,152.92381143162393,703,152.91677350427352,705.375,152.90973557692308C707.75,152.90269764957264,710.125,152.89565972222223,712.5,152.8886217948718C714.875,152.88158386752136,717.25,152.87454594017095,719.625,152.8675080128205C722,152.86047008547007,724.375,152.85343215811963,726.75,152.84639423076922C729.125,152.8393563034188,731.5,152.83231837606837,733.875,152.82528044871796C736.25,152.81824252136755,738.625,152.81824252136752,741,152.80416666666667C743.375,152.79009081196583,745.75,151.90717592592594,748.125,151.45868055555556C750.5,151.01018518518518,752.875,150.56168981481483,755.25,150.11319444444445C757.625,149.66469907407406,760,149.2162037037037,762.375,148.76770833333333C764.75,148.31921296296295,767.125,147.8707175925926,769.5,147.42222222222222C771.875,146.97372685185184,774.2500000000001,146.52523148148148,776.6250000000001,146.0767361111111C779.0000000000001,145.62824074074072,781.3750000000001,145.17974537037037,783.7500000000001,144.73125C786.1250000000001,144.2827546296296,788.5000000000001,143.83425925925928,790.8750000000001,143.3857638888889C793.2500000000001,142.93726851851852,795.6250000000001,142.48877314814817,798.0000000000001,142.0402777777778C800.375,141.59178240740744,802.75,141.14328703703703,805.1249999999999,140.69479166666667C807.4999999999999,140.2462962962963,809.8749999999999,139.79780092592594,812.2499999999999,139.34930555555556C814.6249999999999,138.90081018518518,816.9999999999999,138.45231481481483,819.3749999999999,138.00381944444445C821.7499999999999,137.55532407407406,824.1249999999999,137.1068287037037,826.4999999999999,136.65833333333333C828.8749999999999,136.20983796296295,831.25,135.7613425925926,833.625,135.31284722222222C836,134.86435185185184,838.375,134.41585648148148,840.75,133.9673611111111C843.125,133.51886574074072,845.5,133.07037037037037,847.875,132.621875C850.25,132.1733796296296,852.625,131.72488425925928,855,131.2763888888889C857.375,130.82789351851852,859.75,130.37939814814817,862.125,129.9309027777778C864.5,129.4824074074074,866.875,129.03391203703706,869.25,128.58541666666667C871.625,128.1369212962963,874,127.68842592592593,876.375,127.23993055555555C878.75,126.79143518518516,881.125,126.3429398148148,883.5,125.89444444444443C885.875,125.44594907407406,888.25,124.99745370370368,890.625,124.54895833333332C893,124.10046296296295,895.375,123.6519675925926,897.75,123.20347222222223C900.125,122.75497685185186,902.5,122.3064814814815,904.875,121.85798611111112C907.25,121.40949074074074,909.625,120.96099537037036,912,120.51249999999999C914.375,120.06400462962962,916.75,119.61550925925927,919.125,119.1670138888889C921.5,118.71851851851854,923.875,118.27002314814816,926.25,117.82152777777779C928.625,117.37303240740742,931,116.92453703703706,933.375,116.47604166666667C935.75,116.0275462962963,938.125,115.57905092592593,940.5,115.13055555555555C942.875,114.68206018518516,945.25,114.2335648148148,947.625,113.78506944444443C950,113.33657407407405,952.3750000000001,112.88807870370368,954.7500000000001,112.43958333333332C957.1250000000001,111.99108796296295,959.5000000000001,111.5425925925926,961.8750000000001,111.09409722222223C964.2500000000001,110.64560185185186,966.6250000000001,110.19710648148148,969.0000000000001,109.74861111111112C971.3750000000001,109.30011574074075,973.7500000000001,108.8516203703704,976.1250000000001,108.40312500000002C978.5,107.95462962962965,980.875,107.50613425925927,983.2499999999999,107.0576388888889C985.6249999999999,106.60914351851852,987.9999999999999,106.16064814814816,990.3749999999999,105.71215277777779C992.7499999999999,105.26365740740742,995.1249999999999,104.81516203703706,997.4999999999999,104.36666666666667C999.8749999999999,103.9181712962963,1002.2499999999999,103.46967592592591,1004.6249999999999,103.02118055555555C1006.9999999999999,102.57268518518516,1009.375,102.12418981481481,1011.75,101.67569444444443C1014.125,101.22719907407406,1016.5,100.77870370370368,1018.875,100.33020833333332C1021.25,99.88171296296295,1023.625,99.4332175925926,1026,98.98472222222223C1028.375,98.53622685185186,1030.75,98.08773148148148,1033.125,97.63923611111112C1035.5,97.19074074074075,1037.875,96.74224537037038,1040.25,96.29375000000002C1042.625,95.84525462962965,1045,95.39675925925927,1047.375,94.9482638888889C1049.75,94.49976851851854,1052.125,94.05127314814816,1054.5,93.60277777777779C1056.875,93.15428240740742,1059.25,92.70578703703706,1061.625,92.25729166666667C1064,91.8087962962963,1066.375,91.36030092592593,1068.75,90.91180555555555C1071.125,90.46331018518516,1073.5,90.0148148148148,1075.875,89.56631944444443C1078.25,89.11782407407406,1080.625,88.66932870370368,1083,88.22083333333332C1085.375,87.77233796296295,1087.75,87.3238425925926,1090.125,86.87534722222223C1092.5,86.42685185185186,1094.875,85.97835648148147,1097.25,85.52986111111109C1099.625,85.08136574074071,1102,84.63287037037034,1104.375,84.18437499999997C1106.75,83.73587962962961,1109.125,83.28738425925924,1111.5,82.83888888888887C1113.875,82.39039351851851,1116.25,81.94189814814813,1118.625,81.49340277777776C1121,81.0449074074074,1123.375,80.59641203703704,1125.75,80.14791666666667C1128.125,79.69942129629631,1130.5,79.25092592592593,1132.875,78.80243055555555C1135.25,78.35393518518516,1137.625,77.9054398148148,1140,77.45694444444443C1142.375,77.00844907407406,1144.75,76.55995370370368,1147.125,76.11145833333332C1149.5,75.66296296296295,1151.875,75.21446759259257,1154.25,74.7659722222222C1156.625,74.31747685185184,1159,73.86898148148146,1161.375,73.42048611111109C1163.75,72.97199074074072,1166.125,72.52349537037036,1168.5,72.07499999999999C1170.875,71.62650462962962,1173.25,71.17800925925924,1175.625,70.72951388888887C1178,70.28101851851851,1180.375,69.83252314814813,1182.75,69.38402777777776C1185.125,68.9355324074074,1187.5,68.48703703703701,1189.875,68.03854166666665C1192.25,67.59004629629628,1194.625,67.14155092592591,1197,66.69305555555555C1199.375,66.24456018518518,1201.75,65.7960648148148,1204.125,65.34756944444443C1206.5,64.89907407407406,1208.875,64.45057870370371,1211.25,64.00208333333335C1213.625,63.55358796296298,1216,63.1050925925926,1218.375,62.656597222222224C1220.75,62.20810185185185,1223.125,61.759606481481484,1225.5,61.31111111111111C1227.875,60.862615740740736,1230.25,60.41412037037036,1232.625,59.965624999999996C1235,59.51712962962963,1237.375,59.06863425925926,1239.75,58.620138888888896C1242.125,58.17164351851853,1244.5,57.723148148148155,1246.875,57.27465277777778C1249.25,56.82615740740741,1251.625,56.37766203703704,1254,55.92916666666667C1256.375,55.48067129629629,1258.75,55.03217592592593,1261.125,54.58368055555555C1263.5,54.13518518518518,1265.875,53.686689814814805,1268.25,53.23819444444444C1270.625,52.78969907407407,1273,52.341203703703705,1275.375,51.89270833333334C1277.75,51.44421296296297,1280.125,50.9957175925926,1282.5,50.547222222222224C1284.875,50.09872685185185,1287.25,49.650231481481484,1289.625,49.20173611111111C1292,48.753240740740736,1294.375,48.30474537037036,1296.75,47.856249999999996C1299.125,47.40775462962963,1301.5,46.95925925925926,1303.875,46.510763888888896C1306.25,46.06226851851853,1308.625,45.613773148148155,1311,45.16527777777778C1313.375,44.71678240740741,1315.75,44.26828703703704,1318.125,43.81979166666667C1320.5,43.37129629629629,1322.875,42.92280092592593,1325.25,42.47430555555555C1327.625,42.02581018518518,1330,41.577314814814805,1332.375,41.12881944444444C1334.75,40.68032407407407,1337.125,40.231828703703705,1339.5,39.78333333333334C1341.875,39.33483796296297,1344.25,38.8863425925926,1346.625,38.437847222222224C1349,37.98935185185185,1351.375,37.540856481481484,1353.75,37.09236111111111C1356.125,36.643865740740736,1358.5,36.19537037037036,1360.875,35.746874999999996C1363.25,35.29837962962963,1365.625,34.84988425925926,1368,34.401388888888896C1370.375,33.95289351851853,1372.75,33.504398148148155,1375.125,33.05590277777778C1377.5,32.60740740740741,1379.875,32.15891203703704,1382.25,31.710416666666667C1384.625,31.261921296296297,1387,30.813425925925923,1389.375,30.364930555555553C1391.75,29.916435185185183,1394.125,29.46793981481481,1396.5,29.01944444444444C1398.875,28.57094907407407,1401.25,28.12245370370371,1403.625,27.67395833333334C1406,27.22546296296297,1408.375,26.776967592592595,1410.75,26.328472222222224C1413.125,25.879976851851854,1415.5,25.43148148148148,1417.875,24.98298611111111C1420.25,24.53449074074074,1422.625,24.085995370370366,1425,23.637499999999996" fill="transparent" stroke-linecap="round" stroke="#1AD4B3" stroke-width="2"></path><g class="visx-group visx-axis visx-axis-bottom" transform="translate(0, 155)"><g class="visx-group visx-axis-tick" transform="translate(0, 0)"><line class="visx-line" x1="0" y1="0" x2="0" y2="8" fill="transparent" shape-rendering="crispEdges" stroke="#F2F0F9" stroke-width="1" stroke-linecap="square"></line><svg x="0" y="0" font-size="11" style="overflow:visible"><text transform="" x="0" y="19" fill="#1B2030" font-size="11" text-anchor="middle"><tspan x="0" dy="0em">0%</tspan></text></svg></g><g class="visx-group visx-axis-tick" transform="translate(0, 0)"><line class="visx-line" x1="356.25" y1="0" x2="356.25" y2="8" fill="transparent" shape-rendering="crispEdges" stroke="#F2F0F9" stroke-width="1" stroke-linecap="square"></line><svg x="0" y="0" font-size="11" style="overflow:visible"><text transform="" x="356.25" y="19" fill="#1B2030" font-size="11" text-anchor="middle"><tspan x="356.25" dy="0em">25%</tspan></text></svg></g><g class="visx-group visx-axis-tick" transform="translate(0, 0)"><line class="visx-line" x1="712.5" y1="0" x2="712.5" y2="8" fill="transparent" shape-rendering="crispEdges" stroke="#F2F0F9" stroke-width="1" stroke-linecap="square"></line><svg x="0" y="0" font-size="11" style="overflow:visible"><text transform="" x="712.5" y="19" fill="#1B2030" font-size="11" text-anchor="middle"><tspan x="712.5" dy="0em">50%</tspan></text></svg></g><g class="visx-group visx-axis-tick" transform="translate(0, 0)"><line class="visx-line" x1="1068.75" y1="0" x2="1068.75" y2="8" fill="transparent" shape-rendering="crispEdges" stroke="#F2F0F9" stroke-width="1" stroke-linecap="square"></line><svg x="0" y="0" font-size="11" style="overflow:visible"><text transform="" x="1068.75" y="19" fill="#1B2030" font-size="11" text-anchor="middle"><tspan x="1068.75" dy="0em">75%</tspan></text></svg></g><g class="visx-group visx-axis-tick" transform="translate(0, 0)"><line class="visx-line" x1="1425" y1="0" x2="1425" y2="8" fill="transparent" shape-rendering="crispEdges" stroke="#F2F0F9" stroke-width="1" stroke-linecap="square"></line><svg x="0" y="0" font-size="11" style="overflow:visible"><text transform="" x="1425" y="19" fill="#1B2030" font-size="11" text-anchor="middle"><tspan x="1425" dy="0em">100%</tspan></text></svg></g></g><g class="visx-group visx-axis visx-axis-left" transform="translate(0, 0)"><g class="visx-group visx-axis-tick" transform="translate(0, 0)"><line class="visx-line" x1="0" y1="155" x2="-8" y2="155" fill="transparent" shape-rendering="crispEdges" stroke="#F2F0F9" stroke-width="1" stroke-linecap="square"></line><svg x="-30" y="0" font-size="11" style="overflow:visible"><text transform="" x="-8" y="155" fill="#1B2030" font-size="11" text-anchor="start"><tspan x="-8" dy="0em">0%</tspan></text></svg></g><g class="visx-group visx-axis-tick" transform="translate(0, 0)"><line class="visx-line" x1="0" y1="120.55555555555556" x2="-8" y2="120.55555555555556" fill="transparent" shape-rendering="crispEdges" stroke="#F2F0F9" stroke-width="1" stroke-linecap="square"></line><svg x="-30" y="0" font-size="11" style="overflow:visible"><text transform="" x="-8" y="120.55555555555556" fill="#1B2030" font-size="11" text-anchor="start"><tspan x="-8" dy="0em">200%</tspan></text></svg></g><g class="visx-group visx-axis-tick" transform="translate(0, 0)"><line class="visx-line" x1="0" y1="86.11111111111111" x2="-8" y2="86.11111111111111" fill="transparent" shape-rendering="crispEdges" stroke="#F2F0F9" stroke-width="1" stroke-linecap="square"></line><svg x="-30" y="0" font-size="11" style="overflow:visible"><text transform="" x="-8" y="86.11111111111111" fill="#1B2030" font-size="11" text-anchor="start"><tspan x="-8" dy="0em">400%</tspan></text></svg></g><g class="visx-group visx-axis-tick" transform="translate(0, 0)"><line class="visx-line" x1="0" y1="51.66666666666667" x2="-8" y2="51.66666666666667" fill="transparent" shape-rendering="crispEdges" stroke="#F2F0F9" stroke-width="1" stroke-linecap="square"></line><svg x="-30" y="0" font-size="11" style="overflow:visible"><text transform="" x="-8" y="51.66666666666667" fill="#1B2030" font-size="11" text-anchor="start"><tspan x="-8" dy="0em">600%</tspan></text></svg></g><g class="visx-group visx-axis-tick" transform="translate(0, 0)"><line class="visx-line" x1="0" y1="17.22222222222223" x2="-8" y2="17.22222222222223" fill="transparent" shape-rendering="crispEdges" stroke="#F2F0F9" stroke-width="1" stroke-linecap="square"></line><svg x="-30" y="0" font-size="11" style="overflow:visible"><text transform="" x="-8" y="17.22222222222223" fill="#1B2030" font-size="11" text-anchor="start"><tspan x="-8" dy="0em">800%</tspan></text></svg></g><line class="visx-line visx-axis-line" x1="0" y1="155.5" x2="0" y2="0.5" fill="transparent" shape-rendering="crispEdges" stroke="#F2F0F9" stroke-width="1"></line></g><rect class="visx-bar" width="1425" height="155" fill="transparent"></rect><line class="visx-line" x1="741" y1="58" x2="741" y2="155" fill="transparent" shape-rendering="crispEdges" stroke="#CDC8E1" stroke-width="1" pointer-events="none" stroke-dasharray="5"></line><svg x="0" y="0" font-size="11px" style="overflow:visible"><text transform="" x="741" y="50" font-size="11px" fill="#555069" stroke="#FFFFFF" stroke-width="1px" text-anchor="middle"><tspan x="741" dy="0.355em">uOptimal 52%</tspan></text></svg><svg x="0" y="0" font-size="11px" style="overflow:visible"><text transform="" x="741" y="50" font-size="11px" fill="#CDC8E1" text-anchor="middle"><tspan x="741" dy="0.355em">uOptimal 52%</tspan></text></svg></g></svg>